<?xml version="1.0" encoding="utf-8"?>
<!-- Generator: Adobe Illustrator 24.2.0, SVG Export Plug-In . SVG Version: 6.00 Build 0)  -->
<svg version="1.1" id="Layer_1" xmlns="http://www.w3.org/2000/svg" xmlns:xlink="http://www.w3.org/1999/xlink" x="0px" y="0px"
	 viewBox="0 0 1607 1136.5" style="enable-background:new 0 0 1607 1136.5;" xml:space="preserve">
<style type="text/css">
	.st0{clip-path:url(#SVGID_2_);}
	.st1{fill:none;stroke:#000000;stroke-linecap:square;stroke-miterlimit:3;}
</style>
<g>
	<defs>
		<rect id="SVGID_1_" x="-1330.1" y="-632.7" width="2937.1" height="1769.2"/>
	</defs>
	<clipPath id="SVGID_2_">
		<use xlink:href="#SVGID_1_"  style="overflow:visible;"/>
	</clipPath>
	<g class="st0">
		<path vector-effect="non-scaling-stroke" class="st1" d="M-1268-632.7l127.6,360.1 M-1143.1-272.9l46.2,130.5 M-1096.9-143.5
			l138.5,166.6 M-1302.4-191.5l242.5-89.9 M-1143.1-268.7l87.7-13.8 M-1055.3-282.5l57.7,123.1 M-774.8-415.1l-324.4,269.6
			 M-997.6-160.4l106.2,21.2 M-997.6-160.4l230.9-49.9 M-766.7-209.3l16-108.8 M-630.1-411l292.9-13.7 M-337.2-423.6L-582-300.5
			 M-582-300.5l-133.9,115.7 M-715.9-184.8l150.1-13.3 M-766.7-210.3l50.8,24.4 M-715.9-185.9l-177.8,44.6 M-884.5-142.4l113.1-67.9
			 M-882.2-140.3l-97,23.3 M-979.1-116.9l-115.5-28.7 M-972.2-116.9l11.5,141.2 M-1334.7-93.6l115.5,106.1 M-1332.4-95.7l128.3-43.5
			 M-1156.5,241.8l198.1-216.5 M-958.4,25.3l-371.8,559.3 M-1330.1,201.5l-2.3-298.2 M-1217,12.6l496.4,133.7 M-741.3,514.6
			L-963,24.2 M-963,24.2l302.5,88.1 M-660.5,112.3l311.7,64.7 M-348.8,177.1l30-27.6 M-272.6,162.2L-401.9,124 M-401.9,124
			l-265.5-14.9 M-1282.6,1132.3L-882.2,23.2 M-882.2,23.2l-90.1-144.3 M-789.8,1136.5l443.3-959.4 M-346.5,177.1l32.3,6.4
			 M-314.1,183.4l131.6,57.3 M-182.5,240.7l-2.3,28.7 M-184.8,269.4l46.2,35 M-138.6,304.4l20.8-87 M-117.9,217.4l-60,20.2
			 M-117.9,217.4l71.6-27.6 M-46.3,189.8l-224-27.6 M-270.3,162.2l154.7,56.2 M-270.3,159l46.2,62.6 M-406.5,124L-595.8-8.7
			 M-595.8-8.7l32.3-165.6 M-563.5-174.2L-515-0.2 M-515-0.2l221.7,123.1 M-293.3,121.9L-46.3,193 M-515-1.2l83.1,107.2
			 M-325.7-19.3l90.1,159.2 M-328-18.2l124.7-139 M-203.3-157.2l429.5-285.5 M61.1,68.3l-243.6,50.4 M-182.5,118.7l133.9,73.2
			 M-325.7-18.2l197.4-614.5 M-448.1-632.7l191.7,735.5 M-136.3,303.4l191.7-80.7 M55.3,222.7l-170.9-7.4 M55.3,221.6l-41.6-21.2
			 M13.8,200.4l-62.3-9.6 M-138.6,303.4l-39.3,9.6 M-177.9,312.9l-39.3-7.4 M-217.1,305.5l-302.5-115.7 M-519.6,189.8l-92.4-2.1
			 M-612,187.7l-6.9,44.6 M-618.9,232.3l69.3,80.7 M-549.7,312.9l106.2,54.1 M-443.4,367l177.8,31.8 M-265.6,398.9l99.3,41.4
			 M-166.3,440.3l-30-36.1 M-196.4,404.2l-11.5-45.6 M-207.9,358.6l30-47.8 M-210.2,306.5l-83.1,30.8 M-291,337.3l90.1,21.2
			 M-203.3,358.6l129.3,3.2 M-74,361.7l-71.6-59.4 M-337.2,309.7l32.3,17 M-304.9,326.7L-171,438.2 M-341.8,309.7l-960.6-29.7
			 M-344.1,310.8l-143.2,507.8 M-341.8,308.7l-207.8,2.1 M-549.7,310.8l-4.6-92.3 M-554.3,218.5l34.6-26.5 M-614.3,190.9l64.7,25.5
			 M-549.7,216.3l-64.7,14.9 M-1017.6,977.3L-485,289.6 M-487.3,289.6l60-66.9 M-485,291.7l203.2-12.7 M-485,291.7l2092,349.2
			 M53,222.7h127 M180,221.6l48.5-20.2 M228.5,201.5l57.7-10.6 M286.2,190.9l-18.5,60.5 M267.8,251.4l-43.9-47.8 M108.4,222.7
			L-74,361.7 M-74,361.7L55.3,221.6 M-141,303.4l108.5,12.7 M108.4,222.7L120,423.3 M120,423.3l-189.3-64.7 M-69.4,358.6l18.5,48.8
			 M-50.9,407.4l55.4,52 M4.5,459.4L120,422.2 M120,422.2l205.5-69 M327.8,353.2l-99.3-35 M228.5,318.2l-110.8,104 M228.5,317.2
			l-122.4-97.6 M1486.9,1136.5L-171,440.3 M-171,440.3l64.7,2.1 M-106.3,442.4l57.7-36.1 M-99.4,441.3l-60,52 M-168.7,441.3
			l25.4,145.4 M-106.3,438.2L6.8,460.4 M6.8,460.4l-108.5,107.2 M-101.7,567.6l-55.4-76.4 M2.2,460.4L120,474.2 M120,473.2
			L230.8,453 M230.8,453l-113.1-34 M230.8,450.9l67,21.2 M297.8,472.1l99.3-80.7 M399.4,391.5l-71.6-40.3 M-919.1,654.7l-53.1-426.1
			 M106.1,223.8l180.1,52 M288.5,276.8l140.9-32.9 M429.4,243.9l-78.5-388.4 M286.2,191.9l145.5,54.1 M436.3,243.9l50.8-54.1
			 M487.1,189.8l-67-22.3 M420.1,167.5l-18.5-38.2 M401.7,129.3L277,194 M277,194l147.8-27.6 M489.4,189.8l-207.8,2.1 M475.6,120.8
			l11.5,71.1 M487.1,191.9l106.2-45.6 M593.3,146.3l371.8-59.4 M401.7,129.3L512.5,0.9 M512.5,0.9l-46.2-123.1 M1440.7,267.3
			L567.9,5.1 M567.9,5.1l-92.4,116.7 M475.6,121.9l11.5-92.3 M480.2,121.9L591,99.6 M593.3,99.6l233.2-88.1 M826.5,11.5l90.1-73.2
			 M916.6-61.7l36.9-112.5 M953.5-174.2l30,115.7 M983.6-58.5l-90.1,83.8 M893.5,25.3L780.4,73.1 M780.4,73.1l43.9-60.5 M782.7,73.1
			l-187,23.3 M549.5,109.1l80.8-10.6 M630.3,98.5l334.8-13.8 M965.1,84.7l168.6-141.2 M1036.7,24.2l544.9-199.5 M1581.6-175.3
			l20.8-125.2 M1602.4-300.5L1523.9-187 M1523.9-187L1249.1-80.8 M1249.1-80.8l-39.3,8.5 M1209.8-72.3l-76.2,17 M1133.6-55.4
			l83.1-171.9 M1219.1-226.2l-53.1-46.7 M1166-272.9l-235.5-80.7 M930.4-353.6L694.9-516 M694.9-516l304.8,153.9 M999.7-362.1
			l-60,11.7 M997.4-364.2l173.2,92.3 M1170.6-271.9l106.2,18 M1276.8-253.8l-67-41.4 M1209.8-295.2l-212.4-69 M1279.1-252.8
			l-41.6,174.1 M1207.5-205l2.3,134.8 M1256-85.1l99.3-173 M1355.3-258.1l69.3-193.2 M1424.6-450.2l-242.5-182.5 M1182.1-632.7
			l157,190 M1339.2-442.7l-4.6,55.2 M1334.5-386.5l-57.7,132.7 M1276.8-253.8l108.5-95.5 M1392.3-372.7l-53.1-14.9 M1339.2-386.5
			l83.1-63.7 M1424.6-450.2l-184.7-112.5 M184.6-632.7l1113,596.5 M1297.6-36.3l286.3-138 M431.7,243.9l-4.6,35 M427.1,279
			l-101.6,74.3 M325.5,353.2l73.9-7.4 M399.4,345.8l20.8-36.1 M420.1,309.7l-23.1-10.6 M420.1,308.7l57.7-4.2 M477.9,304.4
			l177.8-104 M655.7,200.4l110.8-31.8 M766.5,168.6l99.3-2.1 M865.8,166.5l-4.6,48.8 M861.2,215.3l-34.6,26.5 M826.5,241.8
			l-23.1,60.5 M803.5,302.3l-101.6,58.4 M701.9,360.7l90.1-163.4 M791.9,197.2l71.6-30.8 M794.2,197.2l67,15.9 M791.9,196.2
			l34.6,45.6 M794.2,195.1l-30-27.6 M750.3,268.3l-97-67.9 M752.7,267.3l-233.2,9.6 M752.7,268.3l-154.7,38.2 M597.9,306.5
			l-80.8-23.3 M600.3,305.5l106.2,54.1 M706.5,359.6L628,373.4 M628,373.4l-168.6,69 M459.4,442.4l140.9-139 M600.3,303.4l-11.5,87
			 M420.1,308.7l46.2,36.1 M466.3,344.8l-2.3,36.1 M464,380.8l-20.8,36.1 M399.4,345.8l60,97.6 M399.4,392.5l41.6,20.2 M457.1,441.3
			l-6.9,32.9 M450.2,474.2l60,148.6 M1347.8,597.6l-1110-89.4 M237.7,508.2l57.7-36.1 M1131.3-56.4L946.6,51.8 M946.6,51.8
			L778.1,74.1 M237.7,508.2l64.7,12.7 M302.4,520.9l145.5-5.3 M-1330.1,674.8l1632.5-63.7 M757.3,1136.5L417.8,564.4 M417.8,565.5
			l-113.1,46.7 M420.1,564.4l214.7,202.7 M634.9,767.2L510.2,621.8 M237.7,509.3l-30,37.1 M207.7,546.4l-115.5,3.2 M92.3,549.6
			l60,26.5 M152.3,576.1l60-29.7 M212.3,546.4l94.7,66.9 M212.3,546.4l92.4-26.5 M92.3,549.6l-25.4-30.8 M66.9,518.8l-69.3,14.9
			 M-27.8,494.4l71.6,127.4 M43.8,621.8L90,548.5 M64.6,520.9l-90.1-27.6 M-101.7,565.5l150.1,57.3 M48.4,622.8l-50.8-1.1
			 M-2.4,621.8l-103.9-58.4 M-106.3,563.4l25.4,223.9 M-80.9,787.3l108.5-47.8 M27.6,739.6l-133.9-176.2 M-25.5,664.2l-55.4,126.3
			 M-2.4,621.8L126.9,868 M126.9,868L25.3,737.4 M126.9,868l-207.8-80.7 M-80.9,787.3L9.1,965.6 M9.1,965.6L124.6,868 M124.6,868
			l32.3,265.3 M154.6,1132.3l133.9-203.8 M288.5,928.5l-163.9-63.7 M288.5,928.5l-25.4-61.6 M263.1,866.9l166.3-74.3 M429.4,792.6
			l205.5-26.5 M431.7,793.7L1607,297 M307,610.1l124.7,182.5 M304.7,610.1l-39.3,259 M265.4,869L145.4,631.3 M145.4,631.3l4.6-56.2
			 M143.1,629.2L309.3,609 M145.4,630.3l-101.6-7.4 M6.8,640.9L304.7-632.7 M4.5,638.7l260.9,231.4 M1297.6-36.3L537.9,977.3
			 M537.9,977.3L431.7,792.6 M634.9,766.1L591,924.2 M591,924.2l-143.2,127.4 M447.9,1051.6L286.2,926.4 M445.5,1050.5l-288.6,86
			 M156.9,1136.5L-134,1022.9 M-134,1022.9L9.1,967.8 M9.1,967.8l147.8,168.7 M-136.3,1024l-32.3-163.4 M-168.7,860.6l25.4-274.9
			 M-168.7,859.5l92.4-70 M-145.6,584.6l-117.8,152.8 M-263.3,737.4l9.2,162.4 M-254.1,899.8L-134,1024 M655.7-376.9L-256.9-79.9"/>
	</g>
</g>
</svg>
