<svg width="187" height="27" viewBox="0 0 187 27" fill="none" xmlns="http://www.w3.org/2000/svg">
<path d="M15.25 17.4277C14.9968 17.6591 14.6698 17.7927 14.3273 17.8048H5.19667C5.01468 17.8224 4.83104 17.8017 4.65751 17.744C4.48399 17.6863 4.32444 17.5929 4.18908 17.4697C4.05373 17.3466 3.94558 17.1965 3.87157 17.029C3.79756 16.8616 3.75933 16.6805 3.75933 16.4973C3.75933 16.3142 3.79756 16.133 3.87157 15.9656C3.94558 15.7981 4.05373 15.648 4.18908 15.5249C4.32444 15.4018 4.48399 15.3083 4.65751 15.2507C4.83104 15.193 5.01468 15.1722 5.19667 15.1898H13.7809L15.6386 13.3168V4.64497L13.7809 2.78412H1.31131C0.964509 2.78094 0.632809 2.64153 0.387575 2.39588C0.14234 2.15023 0.00316732 1.81796 0 1.47057C0.00316732 1.12318 0.14234 0.79091 0.387575 0.545257C0.632809 0.299603 0.964509 0.160193 1.31131 0.15702H14.3273C14.4989 0.150896 14.67 0.181337 14.829 0.246332C14.9881 0.311327 15.1316 0.409395 15.25 0.534057L17.8727 3.16115C18.1063 3.41795 18.2399 3.75036 18.249 4.09766V13.8276C18.237 14.1707 18.1036 14.4983 17.8727 14.752L15.25 17.4277ZM0 5.41121C0 5.06284 0.138155 4.72873 0.384073 4.48239C0.629992 4.23605 0.963528 4.09766 1.31131 4.09766C1.65909 4.09766 1.99263 4.23605 2.23854 4.48239C2.48446 4.72873 2.62262 5.06284 2.62262 5.41121V24.9685C2.62262 25.3168 2.48446 25.651 2.23854 25.8973C1.99263 26.1436 1.65909 26.282 1.31131 26.282C0.963528 26.282 0.629992 26.1436 0.384073 25.8973C0.138155 25.651 0 25.3168 0 24.9685L0 5.41121Z" fill="white"/>
<path d="M36.8089 17.7807H22.4493C22.1027 17.7674 21.7715 17.6343 21.5123 17.4042C21.3896 17.2817 21.2929 17.1357 21.2281 16.9751C21.1633 16.8144 21.1316 16.6423 21.135 16.4691V4.09364C21.1316 3.92046 21.1633 3.74837 21.2281 3.58769C21.2929 3.427 21.3896 3.28103 21.5123 3.1585L24.1408 0.535244C24.2502 0.408944 24.3872 0.309342 24.5412 0.244079C24.6952 0.178817 24.8621 0.14963 25.0292 0.158758H35.4946C35.6727 0.147318 35.8512 0.175114 36.0173 0.240177C36.1835 0.305239 36.3332 0.405975 36.456 0.535244L39.0724 3.1585C39.31 3.41374 39.4482 3.74549 39.4618 4.09364V12.5949C39.4618 12.9428 39.3233 13.2764 39.0769 13.5224C38.8304 13.7684 38.4961 13.9066 38.1475 13.9066C37.799 13.9066 37.4647 13.7684 37.2182 13.5224C36.9717 13.2764 36.8333 12.9428 36.8333 12.5949V4.64015L34.947 2.78201H25.5889L23.7636 4.64015V15.1696H38.1232C38.4697 15.1696 38.8021 15.3061 39.0482 15.5495C39.2944 15.7928 39.4343 16.1233 39.4375 16.4691V24.9704C39.4375 25.3183 39.299 25.6519 39.0525 25.8979C38.806 26.1438 38.4718 26.282 38.1232 26.282C37.7746 26.282 37.4403 26.1438 37.1939 25.8979C36.9474 25.6519 36.8089 25.3183 36.8089 24.9704V17.7807ZM21.135 20.3675C21.135 20.0197 21.2735 19.6861 21.52 19.4401C21.7664 19.1941 22.1007 19.0559 22.4493 19.0559C22.7979 19.0559 23.1321 19.1941 23.3786 19.4401C23.6251 19.6861 23.7636 20.0197 23.7636 20.3675V24.934C23.7636 25.2818 23.6251 25.6154 23.3786 25.8614C23.1321 26.1074 22.7979 26.2456 22.4493 26.2456C22.1007 26.2456 21.7664 26.1074 21.52 25.8614C21.2735 25.6154 21.135 25.2818 21.135 24.934V20.3675Z" fill="white"/>
<path d="M66.7089 25.8256C66.5902 25.9501 66.4464 26.048 66.2869 26.1129C66.1275 26.1778 65.956 26.2082 65.784 26.2021H58.5791C58.412 26.2113 58.245 26.1821 58.091 26.1168C57.937 26.0515 57.8001 25.9519 57.6906 25.8256L55.9989 24.1374L54.3072 25.8256C54.1872 25.9517 54.0413 26.0505 53.8797 26.1155C53.718 26.1804 53.5442 26.21 53.3701 26.2021H46.1409C45.9738 26.2113 45.8069 26.1821 45.6528 26.1168C45.4988 26.0515 45.3619 25.9519 45.2524 25.8256L42.6601 23.2022C42.5313 23.0942 42.4292 22.958 42.3617 22.8043C42.2941 22.6505 42.263 22.4833 42.2707 22.3156V21.0039C42.2707 20.656 42.4092 20.3224 42.6557 20.0764C42.9022 19.8304 43.2365 19.6922 43.5851 19.6922C43.9337 19.6922 44.268 19.8304 44.5145 20.0764C44.761 20.3224 44.8995 20.656 44.8995 21.0039V21.7691L46.725 23.5909H52.8103L54.6602 21.7691V1.43777C54.6602 1.26551 54.6942 1.09495 54.7602 0.935804C54.8263 0.776662 54.9231 0.632061 55.0452 0.510259C55.1672 0.388457 55.3121 0.291838 55.4716 0.225919C55.6311 0.16 55.802 0.126072 55.9746 0.126072C56.1472 0.126072 56.3181 0.16 56.4776 0.225919C56.6371 0.291838 56.782 0.388457 56.904 0.510259C57.0261 0.632061 57.1229 0.776662 57.1889 0.935804C57.255 1.09495 57.289 1.26551 57.289 1.43777V21.7691L59.1024 23.5909H65.1876L67.0497 21.7691V21.0039C67.0321 20.8219 67.0528 20.6382 67.1105 20.4646C67.1683 20.291 67.2617 20.1314 67.3849 19.996C67.5081 19.8606 67.6583 19.7525 67.8259 19.6784C67.9935 19.6044 68.1747 19.5661 68.358 19.5661C68.5413 19.5661 68.7225 19.6044 68.8901 19.6784C69.0577 19.7525 69.2079 19.8606 69.3311 19.996C69.4543 20.1314 69.5477 20.291 69.6055 20.4646C69.6632 20.6382 69.6839 20.8219 69.6663 21.0039V22.3156C69.6674 22.4813 69.6344 22.6454 69.5695 22.7978C69.5046 22.9503 69.4092 23.0879 69.289 23.2022L66.7089 25.8256ZM42.2707 1.43777C42.2707 1.08989 42.4092 0.75625 42.6557 0.510259C42.9022 0.264268 43.2365 0.126072 43.5851 0.126072C43.9337 0.126072 44.268 0.264268 44.5145 0.510259C44.761 0.75625 44.8995 1.08989 44.8995 1.43777V17.1296C44.8995 17.4774 44.761 17.8111 44.5145 18.0571C44.268 18.3031 43.9337 18.4413 43.5851 18.4413C43.2365 18.4413 42.9022 18.3031 42.6557 18.0571C42.4092 17.8111 42.2707 17.4774 42.2707 17.1296V1.43777ZM67.0984 1.43777C67.0808 1.25573 67.1015 1.07203 67.1592 0.898456C67.2169 0.724883 67.3104 0.565278 67.4336 0.429886C67.5568 0.294495 67.707 0.18631 67.8746 0.112277C68.0422 0.0382441 68.2234 0 68.4067 0C68.5899 0 68.7712 0.0382441 68.9388 0.112277C69.1063 0.18631 69.2565 0.294495 69.3798 0.429886C69.503 0.565278 69.5964 0.724883 69.6542 0.898456C69.7119 1.07203 69.7326 1.25573 69.715 1.43777V17.1296C69.6836 17.4541 69.5322 17.7553 69.2903 17.9745C69.0484 18.1937 68.7334 18.3152 68.4067 18.3152C68.08 18.3152 67.7649 18.1937 67.5231 17.9745C67.2812 17.7553 67.1298 17.4541 67.0984 17.1296V1.43777Z" fill="white"/>
<path d="M88.2339 17.6861L75.2279 4.65244V24.9689C75.2279 25.3172 75.0899 25.6512 74.8442 25.8974C74.5984 26.1437 74.2652 26.282 73.9176 26.282C73.5701 26.282 73.2368 26.1437 72.9911 25.8974C72.7454 25.6512 72.6073 25.3172 72.6073 24.9689V1.47912C72.5927 1.2155 72.6641 0.954269 72.8108 0.734919C72.9574 0.515568 73.1714 0.35002 73.4202 0.263296C73.659 0.159149 73.9238 0.130122 74.1794 0.180056C74.4351 0.22999 74.6695 0.356532 74.8518 0.542937L90.4784 16.2028C90.7074 16.4623 90.8402 16.7929 90.8545 17.139V24.9689C90.8545 25.3172 90.7165 25.6512 90.4707 25.8974C90.225 26.1437 89.8917 26.282 89.5442 26.282C89.1967 26.282 88.8634 26.1437 88.6177 25.8974C88.372 25.6512 88.2339 25.3172 88.2339 24.9689V17.6861ZM88.2339 1.47912C88.2339 1.13087 88.372 0.79688 88.6177 0.550627C88.8634 0.304374 89.1967 0.16603 89.5442 0.16603C89.8917 0.16603 90.225 0.304374 90.4707 0.550627C90.7165 0.79688 90.8545 1.13087 90.8545 1.47912V11.9231C90.8545 12.2713 90.7165 12.6053 90.4707 12.8516C90.225 13.0978 89.8917 13.2362 89.5442 13.2362C89.1967 13.2362 88.8634 13.0978 88.6177 12.8516C88.372 12.6053 88.2339 12.2713 88.2339 11.9231V1.47912Z" fill="white"/>
<path d="M119.556 25.8928C119.437 26.0191 119.291 26.1181 119.13 26.1831C118.969 26.2481 118.796 26.2777 118.622 26.2699H109.499C109.317 26.2875 109.133 26.2668 108.96 26.2091C108.787 26.1514 108.627 26.0579 108.492 25.9348C108.357 25.8117 108.249 25.6616 108.175 25.4941C108.101 25.3267 108.062 25.1456 108.062 24.9624C108.062 24.7793 108.101 24.5982 108.175 24.4307C108.249 24.2632 108.357 24.1131 108.492 23.99C108.627 23.8669 108.787 23.7735 108.96 23.7158C109.133 23.6581 109.317 23.6374 109.499 23.655H118.076L119.933 21.8306V16.3698L118.076 14.509H106.89V24.9685C106.89 25.3169 106.752 25.651 106.506 25.8973C106.261 26.1436 105.927 26.282 105.58 26.282C105.232 26.282 104.899 26.1436 104.653 25.8973C104.408 25.651 104.27 25.3169 104.27 24.9685V5.41159C104.27 5.06322 104.408 4.72912 104.653 4.48279C104.899 4.23645 105.232 4.09807 105.58 4.09807C105.927 4.09807 106.261 4.23645 106.506 4.48279C106.752 4.72912 106.89 5.06322 106.89 5.41159V11.9184H116.766L118.586 10.0576V4.64537L116.766 2.78454H105.677C105.33 2.78137 104.999 2.64196 104.754 2.39631C104.509 2.15066 104.37 1.8184 104.367 1.47102C104.37 1.12363 104.509 0.791372 104.754 0.545723C104.999 0.300074 105.33 0.160667 105.677 0.157494H117.373C117.546 0.149619 117.719 0.179205 117.881 0.244252C118.042 0.309299 118.187 0.408288 118.307 0.534524L120.915 3.16157C121.043 3.28047 121.144 3.4257 121.211 3.58732C121.278 3.74894 121.31 3.92316 121.304 4.09807V10.617C121.308 10.7899 121.276 10.9618 121.209 11.1212C121.142 11.2806 121.042 11.4238 120.915 11.5414L119.86 12.563L122.286 14.886C122.521 15.1433 122.658 15.4745 122.675 15.8225V22.3779C122.674 22.5447 122.639 22.7096 122.572 22.8623C122.506 23.015 122.408 23.1524 122.286 23.2658L119.556 25.8928Z" fill="white"/>
<path d="M129.366 26.198C129.199 26.2071 129.033 26.1779 128.879 26.1128C128.726 26.0476 128.589 25.9481 128.48 25.822L125.872 23.2022C125.743 23.0943 125.642 22.9584 125.574 22.8048C125.507 22.6513 125.476 22.4843 125.484 22.3168V4.12393C125.477 3.94951 125.509 3.77577 125.576 3.6146C125.643 3.45342 125.744 3.3086 125.872 3.19003L128.48 0.533869C128.589 0.407737 128.726 0.308267 128.879 0.243091C129.033 0.177915 129.199 0.148767 129.366 0.157883H132.666C133 0.173635 133.314 0.319742 133.541 0.564739C133.768 0.809736 133.889 1.13403 133.879 1.46777C133.889 1.80152 133.768 2.1258 133.541 2.3708C133.314 2.6158 133 2.76191 132.666 2.77766H129.924L128.104 4.63333V21.771L129.924 23.5903H132.666C132.99 23.6216 133.291 23.7725 133.51 24.0136C133.729 24.2546 133.85 24.5685 133.85 24.8942C133.85 25.2198 133.729 25.5337 133.51 25.7747C133.291 26.0158 132.99 26.1667 132.666 26.198H129.366ZM140.734 25.822C140.615 25.9479 140.469 26.0466 140.308 26.1115C140.147 26.1763 139.974 26.2058 139.8 26.198H136.549C136.367 26.2155 136.183 26.1949 136.01 26.1373C135.836 26.0798 135.677 25.9866 135.542 25.8639C135.406 25.7411 135.298 25.5914 135.224 25.4244C135.15 25.2574 135.112 25.0768 135.112 24.8942C135.112 24.7115 135.15 24.5309 135.224 24.3639C135.298 24.1969 135.406 24.0472 135.542 23.9244C135.677 23.8017 135.836 23.7085 136.01 23.651C136.183 23.5934 136.367 23.5728 136.549 23.5903H139.254L141.11 21.771V4.63333L139.254 2.77766H136.549C136.202 2.7745 135.871 2.63547 135.625 2.3905C135.38 2.14553 135.241 1.8142 135.238 1.46777C135.241 1.12135 135.38 0.790006 135.625 0.545037C135.871 0.300068 136.202 0.161046 136.549 0.157883H139.8C139.974 0.150029 140.147 0.179533 140.308 0.2444C140.469 0.309267 140.615 0.407983 140.734 0.533869L143.343 3.15365C143.58 3.40854 143.717 3.73986 143.731 4.08755V22.2804C143.736 22.4528 143.703 22.6242 143.636 22.7832C143.569 22.9421 143.469 23.085 143.343 23.2022L140.734 25.822Z" fill="white"/>
<path d="M154.429 2.78342H147.926C147.579 2.78025 147.248 2.64084 147.003 2.39518C146.757 2.14951 146.618 1.81724 146.615 1.46984C146.618 1.12243 146.757 0.790158 147.003 0.544498C147.248 0.298837 147.579 0.159423 147.926 0.15625H155.74C156.086 0.159423 156.418 0.298837 156.663 0.544498C156.908 0.790158 157.047 1.12243 157.05 1.46984V24.9684C157.05 25.3168 156.912 25.6509 156.666 25.8973C156.421 26.1436 156.087 26.282 155.74 26.282C155.392 26.282 155.059 26.1436 154.813 25.8973C154.567 25.6509 154.429 25.3168 154.429 24.9684V2.78342ZM159.623 2.78342C159.289 2.76763 158.975 2.62111 158.748 2.37542C158.521 2.12973 158.399 1.80452 158.409 1.46984C158.399 1.13515 158.521 0.809944 158.748 0.564255C158.975 0.318566 159.289 0.172047 159.623 0.15625L163.554 0.15625C163.9 0.159423 164.232 0.298837 164.477 0.544498C164.722 0.790158 164.861 1.12243 164.864 1.46984C164.861 1.81724 164.722 2.14951 164.477 2.39518C164.232 2.64084 163.9 2.78025 163.554 2.78342H159.623Z" fill="white"/>
<path d="M183.004 25.822C182.885 25.9479 182.739 26.0466 182.578 26.1115C182.417 26.1763 182.244 26.2058 182.07 26.198H178.819C178.637 26.2155 178.453 26.1949 178.28 26.1373C178.106 26.0798 177.947 25.9867 177.812 25.8639C177.677 25.7411 177.568 25.5914 177.495 25.4244C177.421 25.2574 177.382 25.0768 177.382 24.8942C177.382 24.7116 177.421 24.5309 177.495 24.3639C177.568 24.197 177.677 24.0473 177.812 23.9245C177.947 23.8017 178.106 23.7086 178.28 23.651C178.453 23.5935 178.637 23.5728 178.819 23.5904H181.524L183.38 21.7712V17.2958L168.567 11.1347C168.318 11.0481 168.104 10.883 167.957 10.6642C167.811 10.4454 167.739 10.1848 167.754 9.92183V4.08813C167.748 3.91371 167.779 3.73998 167.846 3.57881C167.913 3.41764 168.014 3.27282 168.142 3.15425L170.763 0.534542C170.871 0.406951 171.007 0.306461 171.161 0.241159C171.315 0.175857 171.482 0.147567 171.648 0.158566H174.912C175.246 0.174318 175.56 0.320421 175.787 0.565411C176.014 0.810402 176.135 1.13468 176.125 1.46842C176.135 1.80216 176.014 2.12644 175.787 2.37143C175.56 2.61642 175.246 2.76252 174.912 2.77827H172.17L170.35 4.6339V9.06072L185.176 15.234C185.412 15.3372 185.614 15.5066 185.756 15.7219C185.898 15.9371 185.975 16.1889 185.977 16.4468V22.3169C185.978 22.4823 185.945 22.6462 185.88 22.7985C185.816 22.9507 185.72 23.0882 185.601 23.2023L183.004 25.822ZM171.648 26.198C171.482 26.209 171.315 26.1807 171.161 26.1154C171.007 26.0501 170.871 25.9496 170.763 25.822L168.142 23.2023C168.014 23.0944 167.912 22.9585 167.845 22.8049C167.777 22.6514 167.746 22.4844 167.754 22.3169V21.0071C167.754 20.6597 167.892 20.3265 168.138 20.0809C168.383 19.8352 168.717 19.6972 169.064 19.6972C169.412 19.6972 169.745 19.8352 169.991 20.0809C170.236 20.3265 170.374 20.6597 170.374 21.0071V21.7712L172.194 23.5904H174.912C175.236 23.6217 175.537 23.7726 175.756 24.0136C175.975 24.2547 176.096 24.5686 176.096 24.8942C176.096 25.2198 175.975 25.5337 175.756 25.7748C175.537 26.0158 175.236 26.1667 174.912 26.198H171.648ZM186.001 5.39798C186.001 5.74538 185.863 6.07854 185.617 6.32419C185.371 6.56983 185.038 6.70783 184.691 6.70783C184.343 6.70783 184.01 6.56983 183.764 6.32419C183.518 6.07854 183.38 5.74538 183.38 5.39798V4.6339L181.524 2.77827H178.819C178.472 2.77511 178.141 2.63609 177.896 2.39113C177.651 2.14617 177.511 1.81483 177.508 1.46842C177.511 1.122 177.651 0.790673 177.896 0.54571C178.141 0.300747 178.472 0.161729 178.819 0.158566H182.07C182.244 0.150712 182.417 0.180216 182.578 0.245081C182.739 0.309946 182.885 0.408659 183.004 0.534542L185.625 3.15425C185.854 3.41311 185.987 3.74289 186.001 4.08813V5.39798Z" fill="white"/>
</svg>
