<?xml version="1.0" encoding="UTF-8" standalone="no"?>
<svg width="95px" height="47px" viewBox="0 0 95 47" version="1.1" xmlns="http://www.w3.org/2000/svg" xmlns:xlink="http://www.w3.org/1999/xlink">
    <!-- Generator: Sketch 46.2 (44496) - http://www.bohemiancoding.com/sketch -->
    <title>Group 2</title>
    <desc>Created with Sketch.</desc>
    <defs></defs>
    <g id="Page-2" stroke="none" stroke-width="1" fill="none" fill-rule="evenodd">
        <g id="Desktop" transform="translate(-43.000000, -38.000000)">
            <g id="Group-2" transform="translate(43.000000, 38.000000)">
                <path d="M6.42321943,0.0710306407 C8.50061754,0.0710306407 10.1482091,0.994428969 10.1482091,2.34401114 C10.1482091,3.05431755 9.67064636,3.43314763 8.81103335,3.43314763 C6.78139152,3.43314763 8.30959242,1.11281337 6.73363524,1.11281337 C5.56360642,1.11281337 5.22931247,2.46239554 5.22931247,4.6643454 L5.22931247,4.80640669 L7.59324825,4.80640669 L7.59324825,5.89554318 L5.22931247,5.89554318 L5.22931247,14.8454039 C5.22931247,15.4373259 5.85014409,15.6267409 6.75751338,15.7214485 L6.75751338,16.6685237 C4.5129683,16.6211699 2.24454508,16.6211699 0,16.6685237 L0,15.7214485 C0.83573487,15.6267409 1.48044463,15.4373259 1.48044463,14.8454039 L1.48044463,5.89554318 L0.0955125566,5.89554318 L0.0955125566,4.80640669 L1.48044463,4.80640669 L1.48044463,4.61699164 C1.48044463,1.06545961 4.25030877,0.0710306407 6.42321943,0.0710306407 Z M17.8130918,4.545961 C19.0786332,4.545961 20.0098806,5.20891365 20.0098806,6.41643454 C20.0098806,7.48189415 19.2457802,7.93175487 18.5533141,7.93175487 C17.5265541,7.93175487 17.1206258,6.98467967 16.1416221,6.98467967 C14.923837,6.98467967 14.4462742,8.57103064 14.3507616,9.09192201 L14.3507616,14.8454039 C14.3507616,15.4373259 15.0193495,15.6267409 15.950597,15.7214485 L15.950597,16.6685237 C13.7060519,16.6211699 11.3659942,16.6211699 9.12144916,16.6685237 L9.12144916,15.7214485 C9.95718403,15.6267409 10.6018938,15.4373259 10.6018938,14.8454039 L10.6018938,8.21587744 C10.6018938,7.17409471 10.0049403,6.91364903 9.12144916,7.07938719 L9.12144916,6.13231198 C10.7690408,5.77715877 12.0584603,5.37465181 13.562783,4.545961 C13.8731988,4.68802228 14.1119802,4.92479109 14.2552491,5.23259053 L13.7776863,7.93175487 L13.9687114,7.93175487 C14.7805681,5.94289694 16.0222314,4.545961 17.8130918,4.545961 Z M31.2803623,14.1824513 C30.3252367,16.218663 28.5104981,16.9289694 26.7435159,16.9289694 C23.4722108,16.9289694 20.4874434,14.7270195 20.4874434,10.7256267 C20.4874434,6.62952646 23.4960889,4.59331476 26.4092219,4.59331476 C29.5372581,4.59331476 31.5430218,6.86629526 31.5430218,9.32869081 C31.5430218,10.5362117 31.1370935,11.1044568 30.0148209,11.1044568 L24.3557019,11.1044568 C24.3557019,13.3300836 25.048168,15.8635097 27.5314944,15.8635097 C28.5582544,15.8635097 29.6088925,15.4846797 30.2774804,14.1824513 L31.2803623,14.1824513 Z M28.1523261,10.1337047 C28.1523261,7.29247911 27.7463977,5.63509749 26.3853438,5.63509749 C25.0720461,5.63509749 24.3557019,7.29247911 24.3557019,10.1337047 L28.1523261,10.1337047 Z M42.4314533,13.3537604 C42.4314533,10.7493036 39.4228077,9.70752089 38.0139975,9.06824513 C36.8678469,8.57103064 35.9604776,8.0264624 35.9604776,7.03203343 C35.9604776,6.20334262 36.5335529,5.61142061 37.5603129,5.61142061 C38.5393166,5.61142061 39.9481268,6.17966574 40.8554961,8.19220056 L41.6673528,8.19220056 L41.4524496,4.80640669 L40.4734459,4.80640669 C40.4256896,5.06685237 40.2346645,5.27994429 39.8526142,5.27994429 C39.2317826,5.27994429 38.5154385,4.61699164 36.9872375,4.61699164 C34.7188143,4.61699164 32.9757102,5.96657382 32.9757102,8.09749304 C32.9757102,10.7019499 35.5784273,11.7437326 37.1066282,12.4303621 C38.3482915,12.9749304 39.303417,13.4721448 39.303417,14.5849582 C39.303417,15.4610028 38.7064636,16.005571 37.7752161,16.005571 C36.5335529,16.005571 34.4800329,15.0111421 33.9069576,13.2827298 L33.0473446,13.2827298 L33.3577604,16.6685237 L34.4561548,16.6685237 C34.4561548,16.2896936 34.6233018,16.0766017 34.8620832,16.0766017 C35.3874022,16.0766017 36.4619185,17 38.1333882,17 C40.1869082,17 42.4314533,15.6030641 42.4314533,13.3537604 Z M56.447921,14.8454039 L56.447921,8.76044568 C56.447921,5.37465181 54.561548,4.545961 52.8662001,4.545961 C50.3589955,4.545961 48.9263071,6.32172702 48.4487443,7.22144847 L48.735282,5.75348189 L48.735282,4.23816156 C48.735282,2.72284123 48.735282,1.82311978 48.8785508,0.686629526 C48.735282,0.378830084 48.4965006,0.142061281 48.1622067,0 C46.7772746,0.805013928 45.0819267,1.30222841 43.5059695,1.58635097 L43.5059695,2.53342618 C44.4849732,2.36768802 44.9864142,2.6281337 44.9864142,3.64623955 L44.9864142,14.8454039 C44.9864142,15.4373259 44.3417044,15.6267409 43.5059695,15.7214485 L43.5059695,16.6685237 C45.7505146,16.6211699 48.0189378,16.6211699 50.2634829,16.6685237 L50.2634829,15.7214485 C49.3561136,15.6267409 48.735282,15.4373259 48.735282,14.8454039 L48.735282,8.33426184 C48.8785508,7.64763231 49.6665294,6.25069638 51.0753396,6.25069638 C52.1020996,6.25069638 52.7229312,6.98467967 52.7229312,8.76044568 L52.7229312,14.8454039 C52.7229312,15.4373259 52.0543434,15.6504178 51.1469741,15.7214485 L51.1469741,16.6685237 C53.4631536,16.597493 55.7315768,16.597493 58,16.6685237 L58,15.7214485 C57.0926307,15.6267409 56.447921,15.4373259 56.447921,14.8454039 Z" id="fresh" fill="#262626"></path>
                <path d="M18.8839115,33.4590164 L17.8620595,33.4590164 C17.2679596,34.7704918 16.1035236,35.1217799 15.2004917,35.1217799 C12.6577438,35.1217799 11.9448238,32.3583138 11.9448238,29.6885246 C11.9448238,27.088993 12.6102158,25.0046838 14.3687517,25.0046838 C15.6520076,25.0046838 15.7470636,26.175644 15.7470636,27.2295082 C15.7470636,27.9789227 16.2223436,28.7283372 17.3392516,28.7283372 C18.5036875,28.7283372 18.9789675,27.9320843 18.9789675,27.2295082 C18.9789675,25.3325527 16.7926796,23.9742389 14.2261677,23.9742389 C11.2081399,23.9742389 8,25.8946136 8,29.969555 C8,34.1850117 11.1606119,36.175644 14.3925157,36.175644 C16.3411636,36.175644 17.9095875,35.4964871 18.8839115,33.4590164 Z M26.1794592,23.9742389 C28.817263,23.9742389 32.1679869,25.9882904 32.1679869,30.1100703 C32.1679869,34.3489461 28.817263,36.175644 26.1556952,36.175644 C23.5178913,36.175644 20.1671674,34.1615925 20.1671674,30.0398126 C20.1671674,25.8009368 23.5178913,23.9742389 26.1794592,23.9742389 Z M26.5596831,35.1451991 C27.7241191,35.1451991 28.2706911,33.5761124 28.2706911,31.2810304 C28.2706911,27.5807963 27.2250751,25.0046838 25.7754712,25.0046838 C24.6110352,25.0046838 24.0644633,26.5737705 24.0644633,28.8454333 C24.0644633,32.5456674 25.1100792,35.1451991 26.5596831,35.1451991 Z M46.1649822,34.1147541 L46.1649822,28.0960187 C46.1649822,24.7470726 44.2876263,23.9274005 42.6003824,23.9274005 C40.1051625,23.9274005 38.6793226,25.6838407 38.2278066,26.5737705 L38.0852226,26.5737705 L38.3941546,24.6065574 C38.2753346,24.3021077 38.0139306,24.0679157 37.7049986,23.9274005 C36.2078667,24.7704918 34.9246108,25.1451991 33.2848948,25.4964871 L33.2848948,26.4332553 C34.1641628,26.2693208 34.7344988,26.5269321 34.7344988,27.557377 L34.7344988,34.1147541 C34.7344988,34.7002342 34.0928708,34.8875878 33.2136028,34.9812646 L33.2136028,35.9180328 C35.4949467,35.8477752 37.7287626,35.8477752 40.0101065,35.9180328 L40.0101065,34.9812646 C39.1070746,34.911007 38.4654466,34.7002342 38.4654466,34.1147541 L38.4654466,27.6744731 C38.6080306,26.9953162 39.4397706,25.6135831 40.8180825,25.6135831 C41.8399344,25.6135831 42.4340344,26.3395785 42.4340344,28.0960187 L42.4340344,34.1147541 C42.4340344,34.7002342 41.7924064,34.911007 40.8893745,34.9812646 L40.8893745,35.9180328 C43.1944824,35.8477752 45.4282983,35.8477752 47.7096422,35.9180328 L47.7096422,34.9812646 C46.8066102,34.8875878 46.1649822,34.7002342 46.1649822,34.1147541 Z M59.3064736,33.4590164 L58.2846217,33.4590164 C57.6905217,34.7704918 56.5260858,35.1217799 55.6230538,35.1217799 C53.0803059,35.1217799 52.367386,32.3583138 52.367386,29.6885246 C52.367386,27.088993 53.0327779,25.0046838 54.7913138,25.0046838 C56.0745698,25.0046838 56.1696258,26.175644 56.1696258,27.2295082 C56.1696258,27.9789227 56.6449058,28.7283372 57.7618137,28.7283372 C58.9262497,28.7283372 59.4015296,27.9320843 59.4015296,27.2295082 C59.4015296,25.3325527 57.2152417,23.9742389 54.6487299,23.9742389 C51.630702,23.9742389 48.4225621,25.8946136 48.4225621,29.969555 C48.4225621,34.1850117 51.583174,36.175644 54.8150778,36.175644 C56.7637258,36.175644 58.3321497,35.4964871 59.3064736,33.4590164 Z M71.3310571,33.4590164 C70.3804971,35.4730679 68.5744332,36.175644 66.8158973,36.175644 C63.5602294,36.175644 60.5897296,33.9976581 60.5897296,30.0398126 C60.5897296,25.9882904 63.5839934,23.9742389 66.4832013,23.9742389 C69.5962852,23.9742389 71.5924611,26.2224824 71.5924611,28.6580796 C71.5924611,29.852459 71.1884731,30.4145199 70.0715651,30.4145199 L64.4394974,30.4145199 C64.4394974,32.6159251 65.1286534,35.1217799 67.6001093,35.1217799 C68.6219612,35.1217799 69.6675772,34.7470726 70.3329691,33.4590164 L71.3310571,33.4590164 Z M68.2179732,29.4543326 C68.2179732,26.6440281 67.8139852,25.0046838 66.4594373,25.0046838 C65.1524174,25.0046838 64.4394974,26.6440281 64.4394974,29.4543326 L68.2179732,29.4543326 Z M80.9079486,23.9742389 C83.3318765,23.9742389 86.2310844,25.9648712 86.2310844,30.1334895 C86.2310844,34.559719 83.0704725,36.175644 80.7178367,36.175644 C79.4345807,36.175644 78.5553128,35.6604215 77.9136848,35.0749415 L77.9136848,37.0655738 C77.9136848,38.2131148 78.4602568,38.4004684 79.5771647,38.35363 L79.5771647,39.3138173 C77.8423928,39.5480094 75.8699809,40.1803279 74.4916689,41 C74.135209,40.9063232 73.850041,40.6252927 73.731221,40.2271663 C73.968861,39.8992974 74.182737,39.2903981 74.182737,37.8618267 L74.182737,27.557377 C74.182737,26.5269321 73.683693,26.2693208 72.733133,26.4332553 L72.733133,25.4964871 C74.277793,25.2154567 75.9888009,24.7236534 77.3433488,23.9274005 C77.6522808,24.0679157 77.9136848,24.3021077 78.0325048,24.6065574 C78.0087408,24.793911 77.9849768,24.9812646 77.9849768,25.1451991 C78.7216607,24.4660422 79.7435127,23.9742389 80.9079486,23.9742389 Z M80.4564327,35.1217799 C81.8585086,35.1217799 82.2149686,33.2716628 82.2149686,31.0936768 C82.2149686,27.3466042 81.3357006,25.1686183 79.7435127,25.1686183 C79.0781207,25.1686183 78.4602568,25.5433255 77.9374488,26.058548 C77.9136848,26.6674473 77.9136848,27.323185 77.9136848,28.1428571 L77.9136848,32.264637 C78.0087408,34.0210773 79.4108167,35.1217799 80.4564327,35.1217799 Z M95,35.1451991 L95,34.1147541 C94.64354,34.4192037 94.096968,34.7470726 93.5503961,34.7470726 C92.6236001,34.7470726 92.4334881,33.8337237 92.4334881,32.7330211 L92.4334881,25.2622951 L95,25.2622951 L95,24.1850117 L92.4334881,24.1850117 L92.4334881,21 L91.2452882,21 C90.6749522,23.295082 89.7481562,24.1850117 87.4192843,24.1850117 L87.4192843,25.2622951 L88.7025403,25.2622951 L88.7025403,32.2880562 C88.7025403,34.8875878 90.0570882,36.0819672 92.2196121,36.0819672 C93.5503961,36.0819672 94.453428,35.6604215 95,35.1451991 Z" id="concept" fill="#262626"></path>
                <polygon id="Line" fill="#EA736E" fill-rule="nonzero" points="12 47 78 47 78 45 12 45"></polygon>
            </g>
        </g>
    </g>
</svg>