<?xml version="1.0" encoding="UTF-8" standalone="no"?>
<svg width="151px" height="96px" viewBox="0 0 151 96" version="1.1" xmlns="http://www.w3.org/2000/svg" xmlns:xlink="http://www.w3.org/1999/xlink">
    <!-- Generator: Sketch 46.2 (44496) - http://www.bohemiancoding.com/sketch -->
    <title>Group 15</title>
    <desc>Created with Sketch.</desc>
    <defs></defs>
    <g id="Page-1" stroke="none" stroke-width="1" fill="none" fill-rule="evenodd">
        <g id="HomePage-Desktop-Mockup" transform="translate(-645.000000, -3538.000000)">
            <g id="Group-15" transform="translate(645.000000, 3539.000000)">
                <g id="Style-2" transform="translate(23.954373, 0.000000)">
                    <polygon id="Fill-3" fill="#FFFFFF" points="99.6826426 4.85324144 97.3984221 2.56902091 99.6826426 0.28480038 101.966863 2.56902091"></polygon>
                    <polygon id="Stroke-4" stroke="#E1E4E5" stroke-width="2" stroke-linecap="round" stroke-linejoin="round" points="99.6826426 4.85324144 97.3984221 2.56902091 99.6826426 0.28480038 101.966863 2.56902091"></polygon>
                    <g id="Group-22" transform="translate(0.000000, 4.110456)">
                        <path d="M71.6463308,87.8658935 C71.6845437,88.5959316 71.1238973,89.2184601 70.3938593,89.256673 C69.6641065,89.2948859 69.0412928,88.7342395 69.0030798,88.0042015 C68.9648669,87.2744487 69.5255133,86.651635 70.2555513,86.6134221 C70.9855894,86.5754943 71.6081179,87.1358555 71.6463308,87.8658935" id="Fill-10" fill="#FFFFFF"></path>
                        <path d="M71.6463308,87.8658935 C71.6845437,88.5959316 71.1238973,89.2184601 70.3938593,89.256673 C69.6641065,89.2948859 69.0412928,88.7342395 69.0030798,88.0042015 C68.9648669,87.2744487 69.5255133,86.651635 70.2555513,86.6134221 C70.9855894,86.5754943 71.6081179,87.1358555 71.6463308,87.8658935 Z" id="Stroke-12" stroke="#E1E4E5" stroke-width="2" stroke-linecap="round" stroke-linejoin="round"></path>
                        <path d="M77.6970342,9.18789924 C77.7226996,9.67668251 77.3471293,10.0938878 76.8586312,10.1195532 C76.3698479,10.1449335 75.9526426,9.76936312 75.9269772,9.28057985 C75.901597,8.79179658 76.2771673,8.37487643 76.7656654,8.3494962 C77.2544487,8.3238308 77.6713688,8.69911597 77.6970342,9.18789924" id="Fill-14" fill="#FFFFFF"></path>
                        <path d="M77.6970342,9.18789924 C77.7226996,9.67668251 77.3471293,10.0938878 76.8586312,10.1195532 C76.3698479,10.1449335 75.9526426,9.76936312 75.9269772,9.28057985 C75.901597,8.79179658 76.2771673,8.37487643 76.7656654,8.3494962 C77.2544487,8.3238308 77.6713688,8.69911597 77.6970342,9.18789924 Z" id="Stroke-16" stroke="#E1E4E5" stroke-width="2" stroke-linecap="round" stroke-linejoin="round"></path>
                        <path d="M26.0676901,6.45094106 L26.0676901,6.57755703 C26.0676901,10.0409601 28.8751996,12.8487548 32.3386027,12.8487548 L44.8935456,12.8487548 C46.7559981,12.8487548 48.2662643,14.3584506 48.2662643,16.2214734 L48.2662643,16.2896293 C48.2662643,18.1520817 46.7559981,19.6623479 44.8935456,19.6623479 L40.3111312,19.6623479 C36.9683555,19.6623479 34.2583745,22.3720437 34.2583745,25.7151046 L34.2583745,25.8371578 C34.2583745,29.1802186 36.9683555,31.8901996 40.3111312,31.8901996 L68.8972529,31.8901996 C71.9594202,31.8901996 74.4418346,34.3723289 74.4418346,37.4344962 L74.4418346,39.5344962 C74.4418346,42.6716635 76.9849905,45.2151046 80.122443,45.2151046 L120.780143,45.2151046 C123.653812,45.2151046 125.98366,42.8855418 125.98366,40.0115875 L125.98366,39.9063593 C125.98366,37.0324049 123.653812,34.7028422 120.780143,34.7028422 L102.879667,34.7028422 C101.646587,34.7028422 100.647348,33.7033175 100.647348,32.4705228 L100.647348,27.1172909 C100.647348,24.200846 98.2832795,21.8367776 95.3668346,21.8367776 L85.747443,21.8367776 C84.5146483,21.8367776 83.5154087,20.8372529 83.5154087,19.6047433 L83.5154087,19.5596863 C83.5154087,18.3268916 84.5146483,17.3273669 85.747443,17.3273669 L105.733945,17.3273669 C107.855048,17.3273669 109.574629,15.6077852 109.574629,13.4866825 L109.574629,12.3585456 C109.574629,10.2371578 107.855048,8.51786122 105.733945,8.51786122 L90.4618916,8.51786122 C89.2288118,8.51786122 88.2295722,7.5183365 88.2295722,6.28554183 L88.2295722,4.80436312 C88.2295722,2.25065589 86.15923,0.180313688 83.6055228,0.180313688 L32.3386027,0.180313688 C28.8751996,0.180313688 26.0676901,2.98753802 26.0676901,6.45094106 Z" id="Stroke-18" stroke="#E1E4E5" stroke-width="2" stroke-linecap="round" stroke-linejoin="round"></path>
                        <path d="M16.5341065,64.4623574 L16.5341065,68.3891635 C16.5341065,71.2077947 14.2490304,73.4925856 11.4306844,73.4925856 L5.10359316,73.4925856 C2.28496198,73.4925856 -0.000114068441,75.7776616 -0.000114068441,78.5962928 L-0.000114068441,78.6995247 C-0.000114068441,81.5181559 2.28496198,83.8029468 5.10359316,83.8029468 L59.8011217,83.8029468 C63.8479848,83.8029468 67.128308,80.5223384 67.128308,76.4757605 L67.128308,76.3480038 C67.128308,73.3970532 69.5206084,71.0047529 72.4712738,71.0047529 L93.2759316,71.0047529 C97.0943726,71.0047529 100.18962,67.9095057 100.18962,64.0910646 L100.18962,63.8096008 C100.18962,59.9911597 97.0943726,56.8959125 93.2759316,56.8959125 L24.1008365,56.8959125 C19.921654,56.8959125 16.5341065,60.2837452 16.5341065,64.4623574 Z" id="Stroke-20" stroke="#E1E4E5" stroke-width="2" stroke-linecap="round" stroke-linejoin="round"></path>
                    </g>
                </g>
                <g id="Group-5" transform="translate(0.000000, 23.384030)">
                    <g id="Group-2" transform="translate(14.828897, 3.992395)" fill="#9E0059">
                        <path d="M5.98893536,18.8212928 C5.51669202,18.8212928 5.13342205,19.2062738 5.13342205,19.6768061 C5.13342205,20.1473384 5.51669202,20.5323194 5.98893536,20.5323194 C6.46117871,20.5323194 6.84444867,20.1473384 6.84444867,19.6768061 C6.84444867,19.2062738 6.46117871,18.8212928 5.98893536,18.8212928 M5.98893536,22.243346 C4.57391635,22.243346 3.42239544,21.0918251 3.42239544,19.6768061 C3.42239544,18.2617871 4.57391635,17.1102662 5.98893536,17.1102662 C7.40395437,17.1102662 8.55547529,18.2617871 8.55547529,19.6768061 C8.55547529,21.0918251 7.40395437,22.243346 5.98893536,22.243346" id="Fill-6010"></path>
                        <path d="M4.27756654,1.71102662 C2.86254753,1.71102662 1.71102662,2.86254753 1.71102662,4.27756654 L1.71102662,7.69961977 C1.71102662,9.11463878 2.86254753,10.2661597 4.27756654,10.2661597 L36.7870722,10.2661597 C38.2020913,10.2661597 39.3536122,9.11463878 39.3536122,7.69961977 L39.3536122,4.27756654 C39.3536122,2.86254753 38.2020913,1.71102662 36.7870722,1.71102662 L4.27756654,1.71102662 Z M36.7870722,11.9771863 L4.27756654,11.9771863 C1.91977186,11.9771863 0,10.0591255 0,7.69961977 L0,4.27756654 C0,1.91806084 1.91977186,0 4.27756654,0 L36.7870722,0 C39.1448669,0 41.0646388,1.91806084 41.0646388,4.27756654 L41.0646388,7.69961977 C41.0646388,10.0591255 39.1448669,11.9771863 36.7870722,11.9771863 L36.7870722,11.9771863 Z" id="Fill-6015"></path>
                        <path d="M4.27756654,15.3992395 C2.86254753,15.3992395 1.71102662,16.5507605 1.71102662,17.9657795 L1.71102662,21.3878327 C1.71102662,22.8028517 2.86254753,23.9543726 4.27756654,23.9543726 L36.7870722,23.9543726 C38.2020913,23.9543726 39.3536122,22.8028517 39.3536122,21.3878327 L39.3536122,17.9657795 C39.3536122,16.5507605 38.2020913,15.3992395 36.7870722,15.3992395 L4.27756654,15.3992395 Z M36.7870722,25.6653992 L4.27756654,25.6653992 C1.91977186,25.6653992 0,23.7473384 0,21.3878327 L0,17.9657795 C0,15.6062738 1.91977186,13.6882129 4.27756654,13.6882129 L36.7870722,13.6882129 C39.1448669,13.6882129 41.0646388,15.6062738 41.0646388,17.9657795 L41.0646388,21.3878327 C41.0646388,23.7473384 39.1448669,25.6653992 36.7870722,25.6653992 L36.7870722,25.6653992 Z" id="Fill-6015-Copy"></path>
                        <path d="M4.27756654,29.0874525 C2.86254753,29.0874525 1.71102662,30.2389734 1.71102662,31.6539924 L1.71102662,35.0760456 C1.71102662,36.4910646 2.86254753,37.6425856 4.27756654,37.6425856 L36.7870722,37.6425856 C38.2020913,37.6425856 39.3536122,36.4910646 39.3536122,35.0760456 L39.3536122,31.6539924 C39.3536122,30.2389734 38.2020913,29.0874525 36.7870722,29.0874525 L4.27756654,29.0874525 Z M36.7870722,39.3536122 L4.27756654,39.3536122 C1.91977186,39.3536122 0,37.4355513 0,35.0760456 L0,31.6539924 C0,29.2944867 1.91977186,27.3764259 4.27756654,27.3764259 L36.7870722,27.3764259 C39.1448669,27.3764259 41.0646388,29.2944867 41.0646388,31.6539924 L41.0646388,35.0760456 C41.0646388,37.4355513 39.1448669,39.3536122 36.7870722,39.3536122 L36.7870722,39.3536122 Z" id="Fill-6015-Copy-2"></path>
                        <path d="M5.98859316,5.13307985 C5.51634981,5.13307985 5.13307985,5.51806084 5.13307985,5.98859316 C5.13307985,6.45912548 5.51634981,6.84410646 5.98859316,6.84410646 C6.4608365,6.84410646 6.84410646,6.45912548 6.84410646,5.98859316 C6.84410646,5.51806084 6.4608365,5.13307985 5.98859316,5.13307985 M5.98859316,8.55513308 C4.57357414,8.55513308 3.42205323,7.40361217 3.42205323,5.98859316 C3.42205323,4.57357414 4.57357414,3.42205323 5.98859316,3.42205323 C7.40361217,3.42205323 8.55513308,4.57357414 8.55513308,5.98859316 C8.55513308,7.40361217 7.40361217,8.55513308 5.98859316,8.55513308" id="Fill-6016"></path>
                        <path d="M5.98859316,32.5095057 C5.51634981,32.5095057 5.13307985,32.8944867 5.13307985,33.365019 C5.13307985,33.8355513 5.51634981,34.2205323 5.98859316,34.2205323 C6.4608365,34.2205323 6.84410646,33.8355513 6.84410646,33.365019 C6.84410646,32.8944867 6.4608365,32.5095057 5.98859316,32.5095057 M5.98859316,35.9315589 C4.57357414,35.9315589 3.42205323,34.780038 3.42205323,33.365019 C3.42205323,31.95 4.57357414,30.7984791 5.98859316,30.7984791 C7.40361217,30.7984791 8.55513308,31.95 8.55513308,33.365019 C8.55513308,34.780038 7.40361217,35.9315589 5.98859316,35.9315589" id="Fill-6016-Copy-2"></path>
                        <path d="M35.0760456,8.55513308 C34.6038023,8.55513308 34.2205323,8.17186312 34.2205323,7.69961977 L34.2205323,4.27756654 C34.2205323,3.80532319 34.6038023,3.42205323 35.0760456,3.42205323 C35.548289,3.42205323 35.9315589,3.80532319 35.9315589,4.27756654 L35.9315589,7.69961977 C35.9315589,8.17186312 35.548289,8.55513308 35.0760456,8.55513308" id="Fill-6017"></path>
                        <path d="M35.0760456,22.243346 C34.6038023,22.243346 34.2205323,21.860076 34.2205323,21.3878327 L34.2205323,17.9657795 C34.2205323,17.4935361 34.6038023,17.1102662 35.0760456,17.1102662 C35.548289,17.1102662 35.9315589,17.4935361 35.9315589,17.9657795 L35.9315589,21.3878327 C35.9315589,21.860076 35.548289,22.243346 35.0760456,22.243346" id="Fill-6017-Copy"></path>
                        <path d="M35.0760456,35.9315589 C34.6038023,35.9315589 34.2205323,35.548289 34.2205323,35.0760456 L34.2205323,31.6539924 C34.2205323,31.181749 34.6038023,30.7984791 35.0760456,30.7984791 C35.548289,30.7984791 35.9315589,31.181749 35.9315589,31.6539924 L35.9315589,35.0760456 C35.9315589,35.548289 35.548289,35.9315589 35.0760456,35.9315589" id="Fill-6017-Copy-2"></path>
                        <path d="M31.6539924,8.55513308 C31.181749,8.55513308 30.7984791,8.17186312 30.7984791,7.69961977 L30.7984791,4.27756654 C30.7984791,3.80532319 31.181749,3.42205323 31.6539924,3.42205323 C32.1262357,3.42205323 32.5095057,3.80532319 32.5095057,4.27756654 L32.5095057,7.69961977 C32.5095057,8.17186312 32.1262357,8.55513308 31.6539924,8.55513308" id="Fill-6018"></path>
                        <path d="M31.6539924,22.243346 C31.181749,22.243346 30.7984791,21.860076 30.7984791,21.3878327 L30.7984791,17.9657795 C30.7984791,17.4935361 31.181749,17.1102662 31.6539924,17.1102662 C32.1262357,17.1102662 32.5095057,17.4935361 32.5095057,17.9657795 L32.5095057,21.3878327 C32.5095057,21.860076 32.1262357,22.243346 31.6539924,22.243346" id="Fill-6018-Copy"></path>
                        <path d="M31.6539924,35.9315589 C31.181749,35.9315589 30.7984791,35.548289 30.7984791,35.0760456 L30.7984791,31.6539924 C30.7984791,31.181749 31.181749,30.7984791 31.6539924,30.7984791 C32.1262357,30.7984791 32.5095057,31.181749 32.5095057,31.6539924 L32.5095057,35.0760456 C32.5095057,35.548289 32.1262357,35.9315589 31.6539924,35.9315589" id="Fill-6018-Copy-2"></path>
                        <path d="M28.2319392,8.55513308 C27.7596958,8.55513308 27.3764259,8.17186312 27.3764259,7.69961977 L27.3764259,4.27756654 C27.3764259,3.80532319 27.7596958,3.42205323 28.2319392,3.42205323 C28.7041825,3.42205323 29.0874525,3.80532319 29.0874525,4.27756654 L29.0874525,7.69961977 C29.0874525,8.17186312 28.7041825,8.55513308 28.2319392,8.55513308" id="Fill-6019"></path>
                        <path d="M28.2319392,22.243346 C27.7596958,22.243346 27.3764259,21.860076 27.3764259,21.3878327 L27.3764259,17.9657795 C27.3764259,17.4935361 27.7596958,17.1102662 28.2319392,17.1102662 C28.7041825,17.1102662 29.0874525,17.4935361 29.0874525,17.9657795 L29.0874525,21.3878327 C29.0874525,21.860076 28.7041825,22.243346 28.2319392,22.243346" id="Fill-6019-Copy"></path>
                        <path d="M28.2319392,35.9315589 C27.7596958,35.9315589 27.3764259,35.548289 27.3764259,35.0760456 L27.3764259,31.6539924 C27.3764259,31.181749 27.7596958,30.7984791 28.2319392,30.7984791 C28.7041825,30.7984791 29.0874525,31.181749 29.0874525,31.6539924 L29.0874525,35.0760456 C29.0874525,35.548289 28.7041825,35.9315589 28.2319392,35.9315589" id="Fill-6019-Copy-2"></path>
                        <path d="M24.8098859,8.55513308 C24.3376426,8.55513308 23.9543726,8.17186312 23.9543726,7.69961977 L23.9543726,4.27756654 C23.9543726,3.80532319 24.3376426,3.42205323 24.8098859,3.42205323 C25.2821293,3.42205323 25.6653992,3.80532319 25.6653992,4.27756654 L25.6653992,7.69961977 C25.6653992,8.17186312 25.2821293,8.55513308 24.8098859,8.55513308" id="Fill-6020"></path>
                        <path d="M24.8098859,22.243346 C24.3376426,22.243346 23.9543726,21.860076 23.9543726,21.3878327 L23.9543726,17.9657795 C23.9543726,17.4935361 24.3376426,17.1102662 24.8098859,17.1102662 C25.2821293,17.1102662 25.6653992,17.4935361 25.6653992,17.9657795 L25.6653992,21.3878327 C25.6653992,21.860076 25.2821293,22.243346 24.8098859,22.243346" id="Fill-6020-Copy"></path>
                        <path d="M24.8098859,35.9315589 C24.3376426,35.9315589 23.9543726,35.548289 23.9543726,35.0760456 L23.9543726,31.6539924 C23.9543726,31.181749 24.3376426,30.7984791 24.8098859,30.7984791 C25.2821293,30.7984791 25.6653992,31.181749 25.6653992,31.6539924 L25.6653992,35.0760456 C25.6653992,35.548289 25.2821293,35.9315589 24.8098859,35.9315589" id="Fill-6020-Copy-2"></path>
                        <path d="M16.2547529,15.3992395 C15.7825095,15.3992395 15.3992395,15.0159696 15.3992395,14.5437262 L15.3992395,11.121673 C15.3992395,10.6494297 15.7825095,10.2661597 16.2547529,10.2661597 C16.7269962,10.2661597 17.1102662,10.6494297 17.1102662,11.121673 L17.1102662,14.5437262 C17.1102662,15.0159696 16.7269962,15.3992395 16.2547529,15.3992395" id="Fill-6021"></path>
                        <path d="M16.2547529,29.0874525 C15.7825095,29.0874525 15.3992395,28.7041825 15.3992395,28.2319392 L15.3992395,24.8098859 C15.3992395,24.3376426 15.7825095,23.9543726 16.2547529,23.9543726 C16.7269962,23.9543726 17.1102662,24.3376426 17.1102662,24.8098859 L17.1102662,28.2319392 C17.1102662,28.7041825 16.7269962,29.0874525 16.2547529,29.0874525" id="Fill-6021-Copy"></path>
                    </g>
                    <rect id="Rectangle-15" fill="#FFFFFF" x="82.6996198" y="39.9239544" width="18.2509506" height="13.6882129"></rect>
                    <path d="M99.2395437,37.6425856 C99.2395437,33.5476986 95.919982,30.2281369 91.8250951,30.2281369 C87.7302081,30.2281369 84.4106464,33.5476986 84.4106464,37.6425856 C84.4106464,41.7374725 99.2395437,41.7374725 99.2395437,37.6425856 Z" id="Oval-4" fill="#FFFFFF"></path>
                    <g id="Group-4">
                        <path d="M83.8430418,52.4714829 L99.8126236,52.4714829 L99.8126236,41.0646388 L83.8430418,41.0646388 L83.8430418,52.4714829 Z M100.953308,54.7528517 L82.7023574,54.7528517 C82.0726996,54.7528517 81.561673,54.2418251 81.561673,53.6121673 L81.561673,39.9239544 C81.561673,39.2942966 82.0726996,38.78327 82.7023574,38.78327 L100.953308,38.78327 C101.585247,38.78327 102.093992,39.2942966 102.093992,39.9239544 L102.093992,53.6121673 C102.093992,54.2418251 101.585247,54.7528517 100.953308,54.7528517 L100.953308,54.7528517 Z" id="Fill-6004" fill="#ED1062"></path>
                        <rect id="Rectangle-14" fill="#FFFFFF" x="47.338403" y="18.2509506" width="54.7528517" height="15.9695817" rx="7.98479087"></rect>
                        <path d="M91.8289734,50.1901141 C91.1993156,50.1901141 90.688289,49.6790875 90.688289,49.0494297 L90.688289,45.6273764 C90.688289,44.9977186 91.1993156,44.486692 91.8289734,44.486692 C92.4586312,44.486692 92.9696578,44.9977186 92.9696578,45.6273764 L92.9696578,49.0494297 C92.9696578,49.6790875 92.4586312,50.1901141 91.8289734,50.1901141" id="Fill-6006" fill="#ED1062"></path>
                        <path d="M89.5476046,45.6273764 C89.5476046,44.3680608 90.5719392,43.3460076 91.8289734,43.3460076 C93.0860076,43.3460076 94.1103422,44.3680608 94.1103422,45.6273764 C94.1103422,46.886692 93.0860076,47.9087452 91.8289734,47.9087452 C90.5719392,47.9087452 89.5476046,46.886692 89.5476046,45.6273764 Z" id="Fill-6007" fill="#ED1062"></path>
                        <path d="M98.6730798,41.0646388 C98.0434221,41.0646388 97.5323954,40.5536122 97.5323954,39.9239544 L97.5323954,37.6425856 C97.5323954,34.4965779 94.9726996,31.9391635 91.8289734,31.9391635 C88.6852471,31.9391635 86.1255513,34.4965779 86.1255513,37.6425856 L86.1255513,39.9239544 C86.1255513,40.5536122 85.6145247,41.0646388 84.9848669,41.0646388 C84.3552091,41.0646388 83.8441825,40.5536122 83.8441825,39.9239544 L83.8441825,37.6425856 C83.8441825,33.2395437 87.4259316,29.6577947 91.8289734,29.6577947 C96.2320152,29.6577947 99.8137643,33.2395437 99.8137643,37.6425856 L99.8137643,39.9239544 C99.8137643,40.5536122 99.3027376,41.0646388 98.6730798,41.0646388" id="Fill-6008" fill="#ED1062"></path>
                        <path d="M81.3878327,34.2205323 L53.0418251,34.2205323 C49.8980989,34.2205323 47.338403,31.6631179 47.338403,28.5171103 L47.338403,23.9543726 C47.338403,20.808365 49.8980989,18.2509506 53.0418251,18.2509506 L96.3878327,18.2509506 C99.5338403,18.2509506 102.091255,20.808365 102.091255,23.9543726 L102.091255,28.5171103 C102.091255,29.3155894 101.922433,30.0958175 101.589354,30.8441065 C101.33384,31.41673 100.663118,31.6813688 100.081369,31.41673 C99.5064639,31.1612167 99.2486692,30.4859316 99.5064639,29.9110266 C99.7072243,29.461597 99.8098859,28.991635 99.8098859,28.5171103 L99.8098859,23.9543726 C99.8098859,22.0676806 98.2745247,20.5323194 96.3878327,20.5323194 L53.0418251,20.5323194 C51.1551331,20.5323194 49.6197719,22.0676806 49.6197719,23.9543726 L49.6197719,28.5171103 C49.6197719,30.4038023 51.1551331,31.9391635 53.0418251,31.9391635 L81.3878327,31.9391635 C82.0174905,31.9391635 82.5285171,32.4501901 82.5285171,33.0798479 C82.5285171,33.7095057 82.0174905,34.2205323 81.3878327,34.2205323" id="Fill-6009" fill="#ED1062"></path>
                        <path d="M55.3236502,25.095057 C54.6939924,25.095057 54.1829658,25.608365 54.1829658,26.2357414 C54.1829658,26.8631179 54.6939924,27.3764259 55.3236502,27.3764259 C55.953308,27.3764259 56.4643346,26.8631179 56.4643346,26.2357414 C56.4643346,25.608365 55.953308,25.095057 55.3236502,25.095057 M55.3236502,29.6577947 C53.4369582,29.6577947 51.901597,28.1224335 51.901597,26.2357414 C51.901597,24.3490494 53.4369582,22.8136882 55.3236502,22.8136882 C57.2103422,22.8136882 58.7457034,24.3490494 58.7457034,26.2357414 C58.7457034,28.1224335 57.2103422,29.6577947 55.3236502,29.6577947" id="Fill-6010" fill="#ED1062"></path>
                        <path d="M84.9814449,29.6577947 C84.3517871,29.6577947 83.8407605,29.1467681 83.8407605,28.5171103 L83.8407605,23.9543726 C83.8407605,23.3247148 84.3517871,22.8136882 84.9814449,22.8136882 C85.6111027,22.8136882 86.1221293,23.3247148 86.1221293,23.9543726 L86.1221293,28.5171103 C86.1221293,29.1467681 85.6111027,29.6577947 84.9814449,29.6577947" id="Fill-6011" fill="#ED1062"></path>
                        <path d="M80.4187072,29.6577947 C79.7890494,29.6577947 79.2780228,29.1467681 79.2780228,28.5171103 L79.2780228,23.9543726 C79.2780228,23.3247148 79.7890494,22.8136882 80.4187072,22.8136882 C81.048365,22.8136882 81.5593916,23.3247148 81.5593916,23.9543726 L81.5593916,28.5171103 C81.5593916,29.1467681 81.048365,29.6577947 80.4187072,29.6577947" id="Fill-6012" fill="#ED1062"></path>
                        <path d="M89.5441825,27.6082129 C88.9145247,27.6082129 88.4034981,27.0971863 88.4034981,26.4675285 L88.4034981,23.9534601 C88.4034981,23.3238023 88.9145247,22.8127757 89.5441825,22.8127757 C90.1738403,22.8127757 90.6848669,23.3238023 90.6848669,23.9534601 L90.6848669,26.4675285 C90.6848669,27.0971863 90.1738403,27.6082129 89.5441825,27.6082129" id="Fill-6013" fill="#ED1062"></path>
                        <path d="M94.1069202,27.6059316 C93.4772624,27.6059316 92.9662357,27.0949049 92.9662357,26.4652471 L92.9662357,23.9534601 C92.9662357,23.3238023 93.4772624,22.8127757 94.1069202,22.8127757 C94.7365779,22.8127757 95.2476046,23.3238023 95.2476046,23.9534601 L95.2476046,26.4652471 C95.2476046,27.0949049 94.7365779,27.6059316 94.1069202,27.6059316" id="Fill-6014" fill="#ED1062"></path>
                        <rect id="Rectangle-14" fill="#FFFFFF" x="47.338403" y="0" width="54.7528517" height="15.9695817" rx="7.98479087"></rect>
                        <path d="M53.0422814,2.28136882 C51.1555894,2.28136882 49.6202281,3.81673004 49.6202281,5.70342205 L49.6202281,10.2661597 C49.6202281,12.1528517 51.1555894,13.6882129 53.0422814,13.6882129 L96.388289,13.6882129 C98.274981,13.6882129 99.8103422,12.1528517 99.8103422,10.2661597 L99.8103422,5.70342205 C99.8103422,3.81673004 98.274981,2.28136882 96.388289,2.28136882 L53.0422814,2.28136882 Z M96.388289,15.9695817 L53.0422814,15.9695817 C49.8985551,15.9695817 47.3388593,13.4121673 47.3388593,10.2661597 L47.3388593,5.70342205 C47.3388593,2.55741445 49.8985551,0 53.0422814,0 L96.388289,0 C99.5320152,0 102.091711,2.55741445 102.091711,5.70342205 L102.091711,10.2661597 C102.091711,13.4121673 99.5320152,15.9695817 96.388289,15.9695817 L96.388289,15.9695817 Z" id="Fill-6015" fill="#ED1062"></path>
                        <path d="M55.3236502,6.84410646 C54.6939924,6.84410646 54.1829658,7.35741445 54.1829658,7.98479087 C54.1829658,8.6121673 54.6939924,9.12547529 55.3236502,9.12547529 C55.953308,9.12547529 56.4643346,8.6121673 56.4643346,7.98479087 C56.4643346,7.35741445 55.953308,6.84410646 55.3236502,6.84410646 M55.3236502,11.4068441 C53.4369582,11.4068441 51.901597,9.87148289 51.901597,7.98479087 C51.901597,6.09809886 53.4369582,4.56273764 55.3236502,4.56273764 C57.2103422,4.56273764 58.7457034,6.09809886 58.7457034,7.98479087 C58.7457034,9.87148289 57.2103422,11.4068441 55.3236502,11.4068441" id="Fill-6016" fill="#ED1062"></path>
                        <path d="M94.1069202,11.4068441 C93.4772624,11.4068441 92.9662357,10.8958175 92.9662357,10.2661597 L92.9662357,5.70342205 C92.9662357,5.07376426 93.4772624,4.56273764 94.1069202,4.56273764 C94.7365779,4.56273764 95.2476046,5.07376426 95.2476046,5.70342205 L95.2476046,10.2661597 C95.2476046,10.8958175 94.7365779,11.4068441 94.1069202,11.4068441" id="Fill-6017" fill="#ED1062"></path>
                        <path d="M89.5441825,11.4068441 C88.9145247,11.4068441 88.4034981,10.8958175 88.4034981,10.2661597 L88.4034981,5.70342205 C88.4034981,5.07376426 88.9145247,4.56273764 89.5441825,4.56273764 C90.1738403,4.56273764 90.6848669,5.07376426 90.6848669,5.70342205 L90.6848669,10.2661597 C90.6848669,10.8958175 90.1738403,11.4068441 89.5441825,11.4068441" id="Fill-6018" fill="#ED1062"></path>
                        <path d="M84.9814449,11.4068441 C84.3517871,11.4068441 83.8407605,10.8958175 83.8407605,10.2661597 L83.8407605,5.70342205 C83.8407605,5.07376426 84.3517871,4.56273764 84.9814449,4.56273764 C85.6111027,4.56273764 86.1221293,5.07376426 86.1221293,5.70342205 L86.1221293,10.2661597 C86.1221293,10.8958175 85.6111027,11.4068441 84.9814449,11.4068441" id="Fill-6019" fill="#ED1062"></path>
                        <path d="M80.4187072,11.4068441 C79.7890494,11.4068441 79.2780228,10.8958175 79.2780228,10.2661597 L79.2780228,5.70342205 C79.2780228,5.07376426 79.7890494,4.56273764 80.4187072,4.56273764 C81.048365,4.56273764 81.5593916,5.07376426 81.5593916,5.70342205 L81.5593916,10.2661597 C81.5593916,10.8958175 81.048365,11.4068441 80.4187072,11.4068441" id="Fill-6020" fill="#ED1062"></path>
                        <path d="M69.0118631,20.5323194 C68.3822053,20.5323194 67.8711787,20.0212928 67.8711787,19.391635 L67.8711787,14.8288973 C67.8711787,14.1992395 68.3822053,13.6882129 69.0118631,13.6882129 C69.6415209,13.6882129 70.1525475,14.1992395 70.1525475,14.8288973 L70.1525475,19.391635 C70.1525475,20.0212928 69.6415209,20.5323194 69.0118631,20.5323194" id="Fill-6021" fill="#ED1062"></path>
                        <path d="M65.5898099,43.3460076 L72.4339163,43.3460076 L72.4339163,41.0646388 L71.2932319,41.0646388 C70.6635741,41.0646388 70.1525475,40.5536122 70.1525475,39.9239544 L70.1525475,38.78327 L67.8711787,38.78327 L67.8711787,39.9239544 C67.8711787,40.5536122 67.3601521,41.0646388 66.7304943,41.0646388 L65.5898099,41.0646388 L65.5898099,43.3460076 Z M73.5746008,45.6273764 L64.4491255,45.6273764 C63.8194677,45.6273764 63.3084411,45.1163498 63.3084411,44.486692 L63.3084411,39.9239544 C63.3084411,39.2942966 63.8194677,38.78327 64.4491255,38.78327 L65.5898099,38.78327 L65.5898099,37.6425856 C65.5898099,37.0129278 66.1008365,36.5019011 66.7304943,36.5019011 L71.2932319,36.5019011 C71.9228897,36.5019011 72.4339163,37.0129278 72.4339163,37.6425856 L72.4339163,38.78327 L73.5746008,38.78327 C74.2042586,38.78327 74.7152852,39.2942966 74.7152852,39.9239544 L74.7152852,44.486692 C74.7152852,45.1163498 74.2042586,45.6273764 73.5746008,45.6273764 L73.5746008,45.6273764 Z" id="Fill-6022" fill="#ED1062"></path>
                        <path d="M69.0118631,38.78327 C68.3822053,38.78327 67.8711787,38.2722433 67.8711787,37.6425856 L67.8711787,33.0798479 C67.8711787,32.4501901 68.3822053,31.9391635 69.0118631,31.9391635 C69.6415209,31.9391635 70.1525475,32.4501901 70.1525475,33.0798479 L70.1525475,37.6425856 C70.1525475,38.2722433 69.6415209,38.78327 69.0118631,38.78327" id="Fill-6023" fill="#ED1062"></path>
                        <path d="M78.1373384,43.3460076 L73.5746008,43.3460076 C72.944943,43.3460076 72.4339163,42.834981 72.4339163,42.2053232 C72.4339163,41.5756654 72.944943,41.0646388 73.5746008,41.0646388 L78.1373384,41.0646388 C78.7669962,41.0646388 79.2780228,41.5756654 79.2780228,42.2053232 C79.2780228,42.834981 78.7669962,43.3460076 78.1373384,43.3460076" id="Fill-6024" fill="#ED1062"></path>
                        <path d="M1.14114068,43.3460076 C0.51148289,43.3460076 0.000456273764,42.834981 0.000456273764,42.2053232 C0.000456273764,41.5756654 0.51148289,41.0646388 1.14114068,41.0646388 L64.4491255,41.0646388 C65.0787833,41.0646388 65.5898099,41.5756654 65.5898099,42.2053232 C65.5898099,42.834981 65.0787833,43.3460076 64.4491255,43.3460076 L1.14114068,43.3460076 Z" id="Fill-6025" fill="#ED1062"></path>
                    </g>
                </g>
            </g>
        </g>
    </g>
</svg>