<?xml version="1.0" encoding="UTF-8" standalone="no"?>
<svg width="152px" height="78px" viewBox="0 0 152 78" version="1.1" xmlns="http://www.w3.org/2000/svg" xmlns:xlink="http://www.w3.org/1999/xlink">
    <!-- Generator: Sketch 46.2 (44496) - http://www.bohemiancoding.com/sketch -->
    <title>Group 14</title>
    <desc>Created with Sketch.</desc>
    <defs></defs>
    <g id="Page-1" stroke="none" stroke-width="1" fill="none" fill-rule="evenodd">
        <g id="HomePage-Desktop-Mockup" transform="translate(-219.000000, -3546.000000)">
            <g id="Group-14" transform="translate(220.000000, 3547.000000)">
                <g id="Style-8">
                    <polygon id="Fill-7" fill="#FFFFFF" points="55.3725765 76.6392602 53.3292092 74.5958929 55.3725765 72.5525255 57.4159439 74.5958929"></polygon>
                    <polygon id="Stroke-8" stroke="#E1E4E5" stroke-width="2" stroke-linecap="round" stroke-linejoin="round" points="24.7603316 71.5372194 22.7169643 69.493852 24.7603316 67.4504847 26.803699 69.493852"></polygon>
                    <g id="Group-17" transform="translate(0.000000, 0.233673)">
                        <path d="M69.9767857,5.72961735 C69.9997449,6.16686224 69.6637755,6.53982143 69.2265306,6.56278061 C68.7892857,6.58548469 68.4163265,6.24977041 68.3933673,5.81252551 C68.3706633,5.37528061 68.7063776,5.00206633 69.1436224,4.97961735 C69.5808673,4.95665816 69.9538265,5.29237245 69.9767857,5.72961735" id="Fill-9" fill="#FFFFFF"></path>
                        <path d="M69.9767857,3.68880102 C69.9997449,4.12604592 69.6637755,4.4990051 69.2265306,4.52196429 C68.7892857,4.54466837 68.4163265,4.20895408 68.3933673,3.77170918 C68.3706633,3.33446429 68.7063776,2.96125 69.1436224,2.93880102 C69.5808673,2.91584184 69.9538265,3.25155612 69.9767857,3.68880102 Z" id="Stroke-11" stroke="#E1E4E5" stroke-width="2" stroke-linecap="round" stroke-linejoin="round"></path>
                        <path d="M149.745612,6.31954082 L149.745612,6.44683673 C149.745612,9.92540816 146.925969,12.7447959 143.447653,12.7447959 L130.837959,12.7447959 C128.967296,12.7447959 127.450714,14.2616327 127.450714,16.132551 L127.450714,16.2009184 C127.450714,18.0715816 128.967296,19.5884184 130.837959,19.5884184 L135.440255,19.5884184 C138.797398,19.5884184 141.519337,22.310102 141.519337,25.6675 L141.519337,25.7902041 C141.519337,29.147602 138.797398,31.8692857 135.440255,31.8692857 L119.937704,31.8692857 C116.862449,31.8692857 114.369082,34.3626531 114.369082,37.4379082 L114.369082,39.5468367 C114.369082,42.6981122 111.814745,45.2521939 108.663724,45.2521939 L54.6213776,45.2521939 C51.734898,45.2521939 49.395102,42.912398 49.395102,40.0261735 L49.395102,39.9205612 C49.395102,37.0340816 51.734898,34.6945408 54.6213776,34.6945408 L72.5996939,34.6945408 C73.8379592,34.6945408 74.8415306,33.6907143 74.8415306,32.452449 L74.8415306,27.0756633 C74.8415306,24.1468367 77.2160204,21.7723469 80.145102,21.7723469 L83.6838776,21.7723469 C84.9218878,21.7723469 85.9257143,20.7687755 85.9257143,19.5305102 L85.9257143,19.485102 C85.9257143,18.2470918 84.9218878,17.2432653 83.6838776,17.2432653 L69.7328571,17.2432653 C67.6025,17.2432653 65.8754592,15.5162245 65.8754592,13.3858673 L65.8754592,12.2527041 C65.8754592,10.1223469 67.6025,8.39556122 69.7328571,8.39556122 L85.0716327,8.39556122 C86.3096429,8.39556122 87.3134694,7.39173469 87.3134694,6.15372449 L87.3134694,4.66596939 C87.3134694,2.10091837 89.3928061,0.0215816327 91.957602,0.0215816327 L143.447653,0.0215816327 C146.925969,0.0215816327 149.745612,2.84122449 149.745612,6.31954082 Z" id="Stroke-13" stroke="#E1E4E5" stroke-width="2" stroke-linecap="round" stroke-linejoin="round"></path>
                        <path d="M84.0194898,55.5754082 L84.0194898,59.5190306 C84.0194898,62.3501531 86.3143878,64.645051 89.1452551,64.645051 L95.4995918,64.645051 C98.3307143,64.645051 100.625612,66.9396939 100.625612,69.7708163 L100.625612,69.8743878 C100.625612,72.705 98.3307143,75.0001531 95.4995918,75.0001531 L40.5641327,75.0001531 C36.500102,75.0001531 33.2052041,71.7052551 33.2052041,67.6409694 L33.2052041,67.512398 C33.2052041,64.5486224 30.8026531,62.1460714 27.8388776,62.1460714 L6.94372449,62.1460714 C3.10877551,62.1460714 0.000102040817,59.0371429 0.000102040817,55.202449 L0.000102040817,54.9195408 C0.000102040817,51.0845918 3.10877551,47.9759184 6.94372449,47.9759184 L76.42,47.9759184 C80.6171939,47.9759184 84.0194898,51.3782143 84.0194898,55.5754082 Z" id="Stroke-15" stroke="#E1E4E5" stroke-width="2" stroke-linecap="round" stroke-linejoin="round"></path>
                    </g>
                </g>
                <g id="Group-12" transform="translate(7.653061, 13.775510)">
                    <g id="Group-10" transform="translate(0.000000, 5.454325)">
                        <path d="M10.0233844,29.2833584 L8.67346939,26.9406897 L8.67346939,19.9126837 L15.4230442,15.8130135 L16.7729592,2.63550225 L21.7226474,0 L41.2964144,17.570015 C36.3335367,21.5019576 33.2823509,24.6255159 32.1428571,26.9406897 C31.0033633,29.2558635 31.4285334,31.4677295 33.4183673,33.5762877 L22.6225907,36.8970315 L10.0233844,29.2833584 Z" id="Path-4" fill="#FFFFFF"></path>
                        <path d="M5.25566893,22.796848 C6.56778628,22.796848 7.82230726,23.5741433 8.39827098,24.8570405 C8.76904762,25.6865154 9.22441893,26.4800044 9.75538549,27.215916 C10.8371173,28.7201264 10.604932,30.7155444 9.21361961,31.8580966 C8.84104308,32.165776 8.63225624,32.6191983 8.64125567,33.1032086 C8.65205499,33.6016132 8.88784014,34.064032 9.29101474,34.3699121 C10.5437358,35.3199398 11.9152494,36.1098302 13.3641582,36.7197911 C13.8357285,36.9195129 14.3540958,36.8943227 14.795068,36.6496186 C15.223441,36.413911 15.5024235,36.0198655 15.5834184,35.5376544 C15.8803997,33.752754 17.4822988,32.5454272 19.3559807,32.7505468 C20.2379252,32.8423108 21.1576672,32.8423108 22.0432115,32.7505468 C23.907894,32.5598215 25.5151927,33.7545533 25.8139739,35.5376544 C25.8949688,36.0198655 26.1739512,36.413911 26.6023243,36.6496186 C27.0450964,36.8943227 27.5652636,36.9195129 28.0332341,36.7197911 C29.4821429,36.1098302 30.8536565,35.3199398 32.1081774,34.3699121 C32.511352,34.064032 32.7453373,33.6016132 32.7561366,33.1032086 C32.7651361,32.6191983 32.5581491,32.1675753 32.1855726,31.8598959 C30.7960601,30.7155444 30.5620748,28.7201264 31.6420068,27.215916 C32.1729734,26.4800044 32.6283447,25.6865154 32.9973214,24.8588398 C33.7460743,23.1944921 35.6287557,22.3812109 37.2882511,23.0001683 L37.3044501,23.0055662 C37.7652211,23.1782985 38.2601899,23.1333161 38.6723639,22.8832141 C39.0989371,22.6259149 39.3815193,22.1904856 39.4445153,21.6920809 C39.5471088,20.911187 39.5975057,20.1158987 39.5975057,19.3260083 C39.5975057,18.5379172 39.5471088,17.7408296 39.4445153,16.9635342 C39.3815193,16.461531 39.0989371,16.0261016 38.6723639,15.7706018 C38.2565901,15.5204998 37.7616213,15.4755174 37.3134495,15.6428518 C35.6305556,16.2708057 33.7460743,15.461123 32.9991213,13.7967754 C32.6283447,12.9655012 32.1729734,12.1738114 31.6420068,11.4378999 C30.5620748,9.93368941 30.7924603,7.93647218 32.1837727,6.79391999 C32.5563492,6.48803987 32.7651361,6.03461758 32.7561366,5.55060728 C32.7453373,5.05220262 32.511352,4.58978385 32.1063776,4.28390374 C30.8536565,3.33387608 29.4821429,2.54218637 28.0332341,1.93222543 C27.5670635,1.7361023 27.0468963,1.76129243 26.6023243,2.00239793 C26.1739512,2.23810555 25.8949688,2.6339504 25.8139739,3.11616141 C25.5151927,4.90106185 23.891695,6.09219501 22.0414116,5.90146976 C21.1594671,5.81150502 20.2397251,5.81150502 19.3541808,5.90146976 C17.5056973,6.10479008 15.8821995,4.89926256 15.5834184,3.11616141 C15.5024235,2.6339504 15.223441,2.23810555 14.795068,2.00239793 C14.3558957,1.76129243 13.8357285,1.7361023 13.3641582,1.93222543 C11.9152494,2.54218637 10.5437358,3.33387608 9.28921485,4.28390374 C8.88784014,4.58978385 8.65205499,5.05220262 8.64125567,5.55060728 C8.63225624,6.03461758 8.8392432,6.48624057 9.21181973,6.79212069 C10.6031321,7.93647218 10.8371173,9.93368941 9.75538549,11.4378999 C9.22441893,12.1738114 8.76904762,12.9655012 8.40007086,13.7931768 C7.65131803,15.461123 5.76863662,16.2798022 4.1037415,15.650049 C3.63397109,15.4755174 3.13540249,15.5222991 2.72502834,15.7706018 C2.29845522,16.0261016 2.01587302,16.461531 1.95287698,16.9617349 C1.85028345,17.7408296 1.79988662,18.5379172 1.79988662,19.3260083 C1.79988662,20.1158987 1.85028345,20.911187 1.95287698,21.6902817 C2.01587302,22.1904856 2.29845522,22.6259149 2.72502834,22.8832141 C3.13720238,23.1315168 3.63397109,23.1746999 4.08574263,23.0091647 C4.46911848,22.8652212 4.86509354,22.796848 5.25566893,22.796848 M14.0121173,38.654033 C13.556746,38.654033 13.0995748,38.562269 12.6640023,38.3787409 C11.0765023,37.7094033 9.57539683,36.8439425 8.20388322,35.8039501 C7.35793651,35.1616018 6.86296769,34.1899826 6.84136905,33.1355959 C6.82157029,32.1010014 7.26794218,31.1293822 8.06889172,30.4726396 C8.71685091,29.938249 8.81404478,28.9900207 8.29207766,28.2667042 C7.69271542,27.4318314 7.17434807,26.5303847 6.75497449,25.5911528 C6.39859694,24.7940652 5.50765306,24.4018189 4.73730159,24.6861075 C3.74736395,25.0603608 2.68363095,24.957801 1.79628685,24.4234105 C0.894543651,23.8818227 0.302380952,22.9695803 0.167389456,21.9205914 C0.0557964853,21.0659264 0,20.1932684 0,19.3260083 C0,18.4605475 0.0557964853,17.5860902 0.167389456,16.7314252 C0.302380952,15.6842356 0.894543651,14.7719931 1.79628685,14.2286061 C2.68183107,13.6942156 3.74736395,13.5970536 4.71750283,13.9605112 C5.51485261,14.2537962 6.40039683,13.8579514 6.75677438,13.0590645 C7.17434807,12.1216319 7.69271542,11.2201852 8.29207766,10.3871117 C8.81404478,9.6619959 8.71865079,8.71556683 8.0724915,8.18297557 C7.26974206,7.52443368 6.82157029,6.55281448 6.84136905,5.51642068 C6.86296769,4.46383322 7.35793651,3.49221402 8.20208333,2.84986578 C9.57539683,1.80987338 11.0765023,0.94261329 12.6640023,0.273275624 C13.6449405,-0.136963591 14.7374717,-0.0847840417 15.6626134,0.426215682 C16.5697562,0.926419637 17.1889172,1.79727832 17.3599065,2.81927777 C17.4966978,3.64875267 18.2616497,4.20473477 19.1669926,4.11297073 C20.1749291,4.00861163 21.224263,4.00861163 22.2303997,4.11297073 C23.1177438,4.20653406 23.8988946,3.64875267 24.0392857,2.81927777 C24.2084751,1.79727832 24.8276361,0.926419637 25.7347789,0.426215682 C26.6617205,-0.0847840417 27.7524518,-0.136963591 28.73339,0.273275624 C30.32089,0.94261329 31.8219955,1.80987338 33.195309,2.84986578 C34.0394558,3.49221402 34.5362245,4.46383322 34.5560232,5.51642068 C34.575822,6.55281448 34.1294501,7.52443368 33.3285006,8.18117628 C32.6805414,8.71556683 32.5851474,9.6619959 33.1053146,10.3871117 C33.7064768,11.2201852 34.2230442,12.1216319 34.6424178,13.0626631 C34.9987954,13.8597507 35.8915391,14.2537962 36.6600907,13.9677084 C37.6536281,13.5952543 38.7155612,13.6960148 39.6011054,14.2286061 C40.5028486,14.7719931 41.0950113,15.6842356 41.2300028,16.7332245 C41.3415958,17.5860902 41.3973923,18.4605475 41.3973923,19.3260083 C41.3973923,20.1932684 41.3415958,21.0659264 41.2300028,21.9223907 C41.0950113,22.9695803 40.5028486,23.8818227 39.6011054,24.4234105 C38.7173611,24.9596003 37.6536281,25.0621601 36.6798895,24.6933047 L36.6600907,24.6861075 C35.8915391,24.4036182 35.0005952,24.7922659 34.6406179,25.5947514 C34.2230442,26.5303847 33.7064768,27.4318314 33.1053146,28.2667042 C32.5851474,28.9900207 32.6787415,29.938249 33.3267007,30.4708403 C34.1276502,31.1293822 34.575822,32.1010014 34.5560232,33.1373952 C34.5362245,34.1899826 34.0394558,35.1616018 33.195309,35.8039501 C31.8219955,36.8439425 30.32089,37.7094033 28.73339,38.3787409 C27.7524518,38.7907794 26.6617205,38.7368006 25.7347789,38.2258009 C24.8276361,37.7273962 24.2084751,36.8547382 24.0392857,35.8327388 C23.8988946,35.0014646 23.1285431,34.4436832 22.2321995,34.5390458 C21.2224632,34.6452042 20.1731293,34.6452042 19.1669926,34.5390458 C18.2742489,34.4454825 17.4984977,35.0014646 17.3599065,35.8327388 C17.1889172,36.8547382 16.5697562,37.7273962 15.6626134,38.2258009 C15.1478458,38.5100895 14.5826814,38.654033 14.0121173,38.654033" id="Fill-2628" fill="#9E0059"></path>
                        <path d="M20.6986961,12.585034 C17.224915,12.585034 14.399093,15.4076774 14.399093,18.877551 C14.399093,22.3474247 17.224915,25.170068 20.6986961,25.170068 C24.1724773,25.170068 26.9982993,22.3474247 26.9982993,18.877551 C26.9982993,15.4076774 24.1724773,12.585034 20.6986961,12.585034 M20.6986961,26.96793 C16.2331774,26.96793 12.5992063,23.3380466 12.5992063,18.877551 C12.5992063,14.4170554 16.2331774,10.787172 20.6986961,10.787172 C25.1642149,10.787172 28.7981859,14.4170554 28.7981859,18.877551 C28.7981859,23.3380466 25.1642149,26.96793 20.6986961,26.96793" id="Fill-2629" fill="#9E0059"></path>
                    </g>
                    <g id="Group-10-Copy-2" transform="translate(44.435688, 10.998563) rotate(90.000000) translate(-44.435688, -10.998563) translate(33.935688, 0.998563)">
                        <polygon id="Path-5" fill="#FFFFFF" points="1.57490079 11.686103 0.674957483 11.0119048 0.674957483 8.09037901 6.97456066 2.02259475 9.22441893 2.47206025 15.9739938 5.39358601 17.3239087 7.41618076 19.3487812 7.41618076 20.0237387 8.09037901 20.0237387 9.88824101 11.0243056 16.8549563 8.54946145 16.8549563 7.64951814 18.6528183 4.0497449 17.3044218 4.90965562 13.1528618"></polygon>
                        <path d="M2.62783447,11.398424 C3.28389314,11.398424 3.91115363,11.7870717 4.19913549,12.4285203 C4.38452381,12.8432577 4.61220947,13.2400022 4.87769274,13.607958 C5.41855867,14.3600632 5.30246599,15.3577722 4.60680981,15.9290483 C4.42052154,16.082888 4.31612812,16.3095991 4.32062783,16.5516043 C4.32602749,16.8008066 4.44392007,17.032016 4.64550737,17.1849561 C5.27186791,17.6599699 5.95762472,18.0549151 6.68207908,18.3598956 C6.91786423,18.4597564 7.1770479,18.4471614 7.39753401,18.3248093 C7.61172052,18.2069555 7.75121173,18.0099327 7.79170918,17.7688272 C7.94019983,16.876377 8.74114938,16.2727136 9.67799036,16.3752734 C10.1189626,16.4211554 10.5788336,16.4211554 11.0216057,16.3752734 C11.953947,16.2799108 12.7575964,16.8772766 12.906987,17.7688272 C12.9474844,18.0099327 13.0869756,18.2069555 13.3011621,18.3248093 C13.5225482,18.4471614 13.7826318,18.4597564 14.0166171,18.3598956 C14.7410714,18.0549151 15.4268282,17.6599699 16.0540887,17.1849561 C16.255676,17.032016 16.3726687,16.8008066 16.3780683,16.5516043 C16.382568,16.3095991 16.2790745,16.0837876 16.0927863,15.9299479 C15.39803,15.3577722 15.2810374,14.3600632 15.8210034,13.607958 C16.0864867,13.2400022 16.3141723,12.8432577 16.4986607,12.4294199 C16.8730371,11.5972461 17.8143778,11.1906054 18.6441256,11.5000841 L18.6522251,11.5027831 C18.8826105,11.5891492 19.130095,11.566658 19.336182,11.4416071 C19.5494685,11.3129575 19.6907596,11.0952428 19.7222577,10.8460405 C19.7735544,10.4555935 19.7987528,10.0579493 19.7987528,9.66300414 C19.7987528,9.26895858 19.7735544,8.87041478 19.7222577,8.4817671 C19.6907596,8.23076548 19.5494685,8.01305081 19.336182,7.88530088 C19.1282951,7.76024989 18.8808107,7.7377587 18.6567248,7.82142591 C17.8152778,8.13540285 16.8730371,7.73056152 16.4995607,6.89838768 C16.3141723,6.48275058 16.0864867,6.08690572 15.8210034,5.71894993 C15.2810374,4.96684471 15.3962302,3.96823609 16.0918863,3.39695999 C16.2781746,3.24401993 16.382568,3.01730879 16.3780683,2.77530364 C16.3726687,2.52610131 16.255676,2.29489193 16.0531888,2.14195187 C15.4268282,1.66693804 14.7410714,1.27109318 14.0166171,0.966112716 C13.7835317,0.868051149 13.5234481,0.880646213 13.3011621,1.00119896 C13.0869756,1.11905277 12.9474844,1.3169752 12.906987,1.55808071 C12.7575964,2.45053093 11.9458475,3.04609751 11.0207058,2.95073488 C10.5797336,2.90575251 10.1198625,2.90575251 9.67709042,2.95073488 C8.75284864,3.05239504 7.94109977,2.44963128 7.79170918,1.55808071 C7.75121173,1.3169752 7.61172052,1.11905277 7.39753401,1.00119896 C7.17794785,0.880646213 6.91786423,0.868051149 6.68207908,0.966112716 C5.95762472,1.27109318 5.27186791,1.66693804 4.64460743,2.14195187 C4.44392007,2.29489193 4.32602749,2.52610131 4.32062783,2.77530364 C4.31612812,3.01730879 4.4196216,3.24312029 4.60590986,3.39606035 C5.30156604,3.96823609 5.41855867,4.96684471 4.87769274,5.71894993 C4.61220947,6.08690572 4.38452381,6.48275058 4.20003543,6.89658838 C3.82565901,7.73056152 2.88431831,8.13990109 2.05187075,7.8250245 C1.81698554,7.7377587 1.56770125,7.76114953 1.36251417,7.88530088 C1.14922761,8.01305081 1.00793651,8.23076548 0.976438492,8.48086746 C0.925141723,8.87041478 0.899943311,9.26895858 0.899943311,9.66300414 C0.899943311,10.0579493 0.925141723,10.4555935 0.976438492,10.8451408 C1.00793651,11.0952428 1.14922761,11.3129575 1.36251417,11.4416071 C1.56860119,11.5657584 1.81698554,11.5873499 2.04287132,11.5045824 C2.23455924,11.4326106 2.43254677,11.398424 2.62783447,11.398424 M7.00605867,19.3270165 C6.77837302,19.3270165 6.54978741,19.2811345 6.33200113,19.1893705 C5.53825113,18.8547016 4.78769841,18.4219712 4.10194161,17.901975 C3.67896825,17.5808009 3.43148384,17.0949913 3.42068452,16.5677979 C3.41078515,16.0505007 3.63397109,15.5646911 4.03444586,15.2363198 C4.35842545,14.9691245 4.40702239,14.4950103 4.14603883,14.1333521 C3.84635771,13.7159157 3.58717404,13.2651923 3.37748724,12.7955764 C3.19929847,12.3970326 2.75382653,12.2009095 2.36865079,12.3430537 C1.87368197,12.5301804 1.34181548,12.4789005 0.898143424,12.2117052 C0.447271825,11.9409114 0.151190476,11.4847901 0.0836947279,10.9602957 C0.0278982426,10.5329632 0,10.0966342 0,9.66300414 C0,9.23027374 0.0278982426,8.7930451 0.0836947279,8.36571259 C0.151190476,7.8421178 0.447271825,7.38599657 0.898143424,7.11430305 C1.34091553,6.84710778 1.87368197,6.79852682 2.35875142,6.98025559 C2.7574263,7.12689812 3.20019841,6.92897569 3.37838719,6.52953224 C3.58717404,6.06081595 3.84635771,5.6100926 4.14603883,5.19355585 C4.40702239,4.83099795 4.3593254,4.35778342 4.03624575,4.09148779 C3.63487103,3.76221684 3.41078515,3.27640724 3.42068452,2.75821034 C3.43148384,2.23191661 3.67896825,1.74610701 4.10104167,1.42493289 C4.78769841,0.904936692 5.53825113,0.471306645 6.33200113,0.136637812 C6.82247024,-0.0684817955 7.36873583,-0.0423920208 7.83130669,0.213107841 C8.28487812,0.463209818 8.59445862,0.898639161 8.67995323,1.40963888 C8.74834892,1.82437634 9.13082483,2.10236738 9.58349632,2.05648537 C10.0874646,2.00430582 10.6121315,2.00430582 11.1151998,2.05648537 C11.5588719,2.10326703 11.9494473,1.82437634 12.0196429,1.40963888 C12.1042375,0.898639161 12.413818,0.463209818 12.8673895,0.213107841 C13.3308603,-0.0423920208 13.8762259,-0.0684817955 14.366695,0.136637812 C15.160445,0.471306645 15.9109977,0.904936692 16.5976545,1.42493289 C17.0197279,1.74610701 17.2681122,2.23191661 17.2780116,2.75821034 C17.287911,3.27640724 17.0647251,3.76221684 16.6642503,4.09058814 C16.3402707,4.35778342 16.2925737,4.83099795 16.5526573,5.19355585 C16.8532384,5.6100926 17.1115221,6.06081595 17.3212089,6.53133154 C17.4993977,6.92987534 17.9457696,7.12689812 18.3300454,6.98385418 C18.8268141,6.79762717 19.3577806,6.84800742 19.8005527,7.11430305 C20.2514243,7.38599657 20.5475057,7.8421178 20.6150014,8.36661224 C20.6707979,8.7930451 20.6986961,9.23027374 20.6986961,9.66300414 C20.6986961,10.0966342 20.6707979,10.5329632 20.6150014,10.9611953 C20.5475057,11.4847901 20.2514243,11.9409114 19.8005527,12.2117052 C19.3586806,12.4798002 18.8268141,12.5310801 18.3399447,12.3466523 L18.3300454,12.3430537 C17.9457696,12.2018091 17.5002976,12.3961329 17.320309,12.7973757 C17.1115221,13.2651923 16.8532384,13.7159157 16.5526573,14.1333521 C16.2925737,14.4950103 16.3393707,14.9691245 16.6633503,15.2354201 C17.0638251,15.5646911 17.287911,16.0505007 17.2780116,16.5686976 C17.2681122,17.0949913 17.0197279,17.5808009 16.5976545,17.901975 C15.9109977,18.4219712 15.160445,18.8547016 14.366695,19.1893705 C13.8762259,19.3953897 13.3308603,19.3684003 12.8673895,19.1129004 C12.413818,18.8636981 12.1042375,18.4273691 12.0196429,17.9163694 C11.9494473,17.5007323 11.5642715,17.2218416 11.1160998,17.2695229 C10.6112316,17.3226021 10.0865646,17.3226021 9.58349632,17.2695229 C9.13712443,17.2227413 8.74924887,17.5007323 8.67995323,17.9163694 C8.59445862,18.4273691 8.28487812,18.8636981 7.83130669,19.1129004 C7.5739229,19.2550447 7.2913407,19.3270165 7.00605867,19.3270165" id="Fill-2628" fill="#9E0059"></path>
                        <path d="M10.3493481,6.29251701 C8.61245748,6.29251701 7.19954649,7.70383868 7.19954649,9.43877551 C7.19954649,11.1737123 8.61245748,12.585034 10.3493481,12.585034 C12.0862387,12.585034 13.4991497,11.1737123 13.4991497,9.43877551 C13.4991497,7.70383868 12.0862387,6.29251701 10.3493481,6.29251701 M10.3493481,13.483965 C8.11658872,13.483965 6.29960317,11.6690233 6.29960317,9.43877551 C6.29960317,7.2085277 8.11658872,5.39358601 10.3493481,5.39358601 C12.5821074,5.39358601 14.399093,7.2085277 14.399093,9.43877551 C14.399093,11.6690233 12.5821074,13.483965 10.3493481,13.483965" id="Fill-2629" fill="#9E0059"></path>
                    </g>
                    <g id="Group-10-Copy" transform="translate(49.779468, 42.112275) rotate(90.000000) translate(-49.779468, -42.112275) translate(33.779468, 27.112275)">
                        <polygon id="Path-6" fill="#FFFFFF" points="5.84963152 3.82045675 9.44940476 0.898931001 13.9491213 6.29251701 29.6981293 11.9108358 29.6981293 17.8406928 23.8484977 17.079689 19.7987528 22.473275 9.85711249 28.5549785 6.28568392 25.493754 7.42453231 21.9223255 3.98976555 17.079689 7.42453231 6.29251701"></polygon>
                        <path d="M3.9417517,17.2301758 C4.92583971,17.2301758 5.86673044,17.8176665 6.29870323,18.7872981 C6.57678571,19.4142268 6.9183142,20.0139568 7.31653912,20.5701691 C8.12783801,21.7070723 7.95369898,23.215237 6.91021471,24.0787939 C6.63078231,24.3113423 6.47419218,24.6540452 6.48094175,25.0198669 C6.48904124,25.3965681 6.6658801,25.7460707 6.96826105,25.9772592 C7.90780187,26.6953033 8.93643707,27.2923135 10.0231186,27.7533305 C10.3767963,27.904283 10.7655719,27.8852439 11.096301,27.7002932 C11.4175808,27.522142 11.6268176,27.2243169 11.6875638,26.8598551 C11.9102997,25.5108024 13.1117241,24.598288 14.5169855,24.7533203 C15.1784439,24.8226768 15.8682504,24.8226768 16.5324086,24.7533203 C17.9309205,24.6091674 19.1363946,25.5121624 19.3604804,26.8598551 C19.4212266,27.2243169 19.6304634,27.522142 19.9517432,27.7002932 C20.2838223,27.8852439 20.6739477,27.904283 21.0249256,27.7533305 C22.1116071,27.2923135 23.1402423,26.6953033 24.0811331,25.9772592 C24.383514,25.7460707 24.559003,25.3965681 24.5671025,25.0198669 C24.573852,24.6540452 24.4186118,24.3127022 24.1391794,24.0801539 C23.0970451,23.215237 22.9215561,21.7070723 23.7315051,20.5701691 C24.12973,20.0139568 24.4712585,19.4142268 24.7479911,18.788658 C25.3095557,17.5307208 26.7215668,16.9160315 27.9661884,17.3838481 L27.9783376,17.3879279 C28.3239158,17.5184814 28.6951424,17.4844831 29.004273,17.2954525 C29.3242028,17.1009822 29.5361395,16.7718787 29.5833865,16.3951775 C29.6603316,15.8049669 29.6981293,15.2038769 29.6981293,14.6068667 C29.6981293,14.0112165 29.6603316,13.4087665 29.5833865,12.8212759 C29.5361395,12.4418548 29.3242028,12.1127512 29.004273,11.9196409 C28.6924426,11.7306103 28.321216,11.696612 27.9850872,11.8230857 C26.7229167,12.297702 25.3095557,11.6857325 24.749341,10.4277953 C24.4712585,9.79950669 24.12973,9.20113656 23.7315051,8.64492432 C22.9215561,7.50802107 23.0943452,5.99849642 24.1378295,5.13493952 C24.4172619,4.90375106 24.573852,4.56104817 24.5671025,4.19522643 C24.559003,3.81852523 24.383514,3.46902268 24.0797832,3.23783422 C23.1402423,2.51979006 22.1116071,1.92141993 21.0249256,1.46040294 C20.6752976,1.31217034 20.2851722,1.33120939 19.9517432,1.51344029 C19.6304634,1.6915914 19.4212266,1.99077647 19.3604804,2.35523828 C19.1363946,3.70429094 17.9187713,4.604566 16.5310587,4.46041319 C15.8696003,4.39241659 15.1797938,4.39241659 14.5156356,4.46041319 C13.129273,4.61408552 11.9116497,3.702931 11.6875638,2.35523828 C11.6268176,1.99077647 11.4175808,1.6915914 11.096301,1.51344029 C10.7669218,1.33120939 10.3767963,1.31217034 10.0231186,1.46040294 C8.93643707,1.92141993 7.90780187,2.51979006 6.96691114,3.23783422 C6.6658801,3.46902268 6.48904124,3.81852523 6.48094175,4.19522643 C6.47419218,4.56104817 6.6294324,4.90239113 6.9088648,5.13357959 C7.95234906,5.99849642 8.12783801,7.50802107 7.31653912,8.64492432 C6.9183142,9.20113656 6.57678571,9.79950669 6.30005315,10.4250755 C5.73848852,11.6857325 4.32647747,12.3045016 3.07780612,11.8285254 C2.72547832,11.696612 2.35155187,11.7319702 2.04377126,11.9196409 C1.72384141,12.1127512 1.51190476,12.4418548 1.46465774,12.8199159 C1.38771259,13.4087665 1.34991497,14.0112165 1.34991497,14.6068667 C1.34991497,15.2038769 1.38771259,15.8049669 1.46465774,16.3938175 C1.51190476,16.7718787 1.72384141,17.1009822 2.04377126,17.2954525 C2.35290179,17.4831232 2.72547832,17.5157615 3.06430697,17.3906478 C3.35183886,17.2818532 3.64882015,17.2301758 3.9417517,17.2301758 M10.509088,29.2152575 C10.1675595,29.2152575 9.82468112,29.145901 9.4980017,29.0071879 C8.3073767,28.5012932 7.18154762,27.8471658 6.15291241,27.0611251 C5.51845238,26.5756293 5.14722577,25.8412659 5.13102679,25.0443457 C5.11617772,24.2623848 5.45095663,23.5280214 6.05166879,23.0316462 C6.53763818,22.6277464 6.61053359,21.9110621 6.21905825,21.3643694 C5.76953656,20.7333609 5.38076105,20.0520349 5.06623087,19.3421504 C4.7989477,18.7397004 4.1307398,18.4432352 3.55297619,18.6581045 C2.81052296,18.9409704 2.01272321,18.8634543 1.34721514,18.4595544 C0.670907738,18.0502148 0.226785714,17.3607293 0.125542092,16.5678888 C0.0418473639,15.9219211 -1.42108547e-14,15.262354 -1.42108547e-14,14.6068667 C-1.42108547e-14,13.9527394 0.0418473639,13.2918124 0.125542092,12.6458446 C0.226785714,11.8543641 0.670907738,11.1648785 1.34721514,10.754179 C2.0113733,10.3502792 2.81052296,10.2768429 3.53812713,10.5515491 C4.13613946,10.7732181 4.80029762,10.474033 5.06758078,9.87022316 C5.38076105,9.16169852 5.76953656,8.48037253 6.21905825,7.85072396 C6.61053359,7.30267132 6.5389881,6.58734703 6.05436862,6.18480712 C5.45230655,5.68707196 5.11617772,4.95270862 5.13102679,4.16938772 C5.14722577,3.37382743 5.51845238,2.63946409 6.1515625,2.15396832 C7.18154762,1.36792756 8.3073767,0.712440277 9.4980017,0.20654553 C10.2337054,-0.103518993 11.0531037,-0.0640809617 11.74696,0.32213976 C12.4273172,0.700200888 12.8916879,1.35840803 13.0199298,2.13084948 C13.1225234,2.75777818 13.6962372,3.17799721 14.3752445,3.10864067 C15.1311969,3.02976461 15.9181973,3.02976461 16.6727997,3.10864067 C17.3383078,3.17935714 17.9241709,2.75777818 18.0294643,2.13084948 C18.1563563,1.35840803 18.620727,0.700200888 19.3010842,0.32213976 C19.9962904,-0.0640809617 20.8143389,-0.103518993 21.5500425,0.20654553 C22.7406675,0.712440277 23.8664966,1.36792756 24.8964817,2.15396832 C25.5295918,2.63946409 25.9021684,3.37382743 25.9170174,4.16938772 C25.9318665,4.95270862 25.5970876,5.68707196 24.9963754,6.18344719 C24.510406,6.58734703 24.4388605,7.30267132 24.828986,7.85072396 C25.2798576,8.48037253 25.6672832,9.16169852 25.9818134,9.87294302 C26.2490965,10.475393 26.9186543,10.7732181 27.495068,10.5569889 C28.2402211,10.2754829 29.0366709,10.3516391 29.7008291,10.754179 C30.3771365,11.1648785 30.8212585,11.8543641 30.9225021,12.6472045 C31.0061969,13.2918124 31.0480442,13.9527394 31.0480442,14.6068667 C31.0480442,15.262354 31.0061969,15.9219211 30.9225021,16.5692488 C30.8212585,17.3607293 30.3771365,18.0502148 29.7008291,18.4595544 C29.0380208,18.8648142 28.2402211,18.9423303 27.5099171,18.6635442 L27.495068,18.6581045 C26.9186543,18.4445952 26.2504464,18.7383405 25.9804634,19.3448702 C25.6672832,20.0520349 25.2798576,20.7333609 24.828986,21.3643694 C24.4388605,21.9110621 24.5090561,22.6277464 24.9950255,23.0302863 C25.5957377,23.5280214 25.9318665,24.2623848 25.9170174,25.0457057 C25.9021684,25.8412659 25.5295918,26.5756293 24.8964817,27.0611251 C23.8664966,27.8471658 22.7406675,28.5012932 21.5500425,29.0071879 C20.8143389,29.3186124 19.9962904,29.2778144 19.3010842,28.8915937 C18.620727,28.5148925 18.1563563,27.8553254 18.0294643,27.082884 C17.9241709,26.4545953 17.3464073,26.0330164 16.6741497,26.1050928 C15.9168474,26.1853288 15.1298469,26.1853288 14.3752445,26.1050928 C13.7056866,26.0343763 13.1238733,26.4545953 13.0199298,27.082884 C12.8916879,27.8553254 12.4273172,28.5148925 11.74696,28.8915937 C11.3608844,29.106463 10.9370111,29.2152575 10.509088,29.2152575" id="Fill-2628" fill="#9E0059"></path>
                        <path d="M15.5240221,9.51194431 C12.9186862,9.51194431 10.7993197,11.6453375 10.7993197,14.2679165 C10.7993197,16.8904954 12.9186862,19.0238886 15.5240221,19.0238886 C18.129358,19.0238886 20.2487245,16.8904954 20.2487245,14.2679165 C20.2487245,11.6453375 18.129358,9.51194431 15.5240221,9.51194431 M15.5240221,20.3827378 C12.1748831,20.3827378 9.44940476,17.6392213 9.44940476,14.2679165 C9.44940476,10.8966116 12.1748831,8.15309513 15.5240221,8.15309513 C18.8731611,8.15309513 21.5986395,10.8966116 21.5986395,14.2679165 C21.5986395,17.6392213 18.8731611,20.3827378 15.5240221,20.3827378" id="Fill-2629" fill="#9E0059"></path>
                    </g>
                </g>
                <g id="Group-13" transform="translate(57.142857, 8.163265)">
                    <rect id="Rectangle-19" fill="#FFFFFF" x="0" y="0" width="48.9795918" height="48.9795918" rx="10"></rect>
                    <path d="M5.10204082,2.04081633 C3.41428571,2.04081633 2.04081633,3.41428571 2.04081633,5.10204082 L2.04081633,43.877551 C2.04081633,45.5653061 3.41428571,46.9387755 5.10204082,46.9387755 L43.877551,46.9387755 C45.5653061,46.9387755 46.9387755,45.5653061 46.9387755,43.877551 L46.9387755,5.10204082 C46.9387755,3.41428571 45.5653061,2.04081633 43.877551,2.04081633 L5.10204082,2.04081633 Z M43.877551,48.9795918 L5.10204082,48.9795918 C2.2877551,48.9795918 0,46.6918367 0,43.877551 L0,5.10204082 C0,2.2877551 2.2877551,0 5.10204082,0 L43.877551,0 C46.6918367,0 48.9795918,2.2877551 48.9795918,5.10204082 L48.9795918,43.877551 C48.9795918,46.6918367 46.6918367,48.9795918 43.877551,48.9795918 L43.877551,48.9795918 Z" id="Fill-3283" fill="#ED1062"></path>
                    <path d="M47.9591837,10.2040816 L1.02040816,10.2040816 C0.457142857,10.2040816 0,9.74693878 0,9.18367347 C0,8.62040816 0.457142857,8.16326531 1.02040816,8.16326531 L47.9591837,8.16326531 C48.522449,8.16326531 48.9795918,8.62040816 48.9795918,9.18367347 C48.9795918,9.74693878 48.522449,10.2040816 47.9591837,10.2040816" id="Fill-3284" fill="#ED1062"></path>
                    <path d="M6.12244898,5.10204082 C6.12244898,5.66530612 5.66530612,6.12244898 5.10204082,6.12244898 C4.53877551,6.12244898 4.08163265,5.66530612 4.08163265,5.10204082 C4.08163265,4.53877551 4.53877551,4.08163265 5.10204082,4.08163265 C5.66530612,4.08163265 6.12244898,4.53877551 6.12244898,5.10204082" id="Fill-3285" fill="#ED1062"></path>
                    <path d="M10.2040816,5.10204082 C10.2040816,5.66530612 9.74693878,6.12244898 9.18367347,6.12244898 C8.62040816,6.12244898 8.16326531,5.66530612 8.16326531,5.10204082 C8.16326531,4.53877551 8.62040816,4.08163265 9.18367347,4.08163265 C9.74693878,4.08163265 10.2040816,4.53877551 10.2040816,5.10204082" id="Fill-3286" fill="#ED1062"></path>
                    <path d="M14.2857143,5.10204082 C14.2857143,5.66530612 13.8285714,6.12244898 13.2653061,6.12244898 C12.7020408,6.12244898 12.244898,5.66530612 12.244898,5.10204082 C12.244898,4.53877551 12.7020408,4.08163265 13.2653061,4.08163265 C13.8285714,4.08163265 14.2857143,4.53877551 14.2857143,5.10204082" id="Fill-3287" fill="#ED1062"></path>
                    <path d="M39.7959184,20.4081633 L9.18367347,20.4081633 C8.62040816,20.4081633 8.16326531,19.9510204 8.16326531,19.3877551 C8.16326531,18.8244898 8.62040816,18.3673469 9.18367347,18.3673469 L39.7959184,18.3673469 C40.3591837,18.3673469 40.8163265,18.8244898 40.8163265,19.3877551 C40.8163265,19.9510204 40.3591837,20.4081633 39.7959184,20.4081633" id="Fill-3288" fill="#ED1062"></path>
                    <path d="M39.7959184,28.5714286 L9.18367347,28.5714286 C8.62040816,28.5714286 8.16326531,28.1142857 8.16326531,27.5510204 C8.16326531,26.9877551 8.62040816,26.5306122 9.18367347,26.5306122 L39.7959184,26.5306122 C40.3591837,26.5306122 40.8163265,26.9877551 40.8163265,27.5510204 C40.8163265,28.1142857 40.3591837,28.5714286 39.7959184,28.5714286" id="Fill-3289" fill="#ED1062"></path>
                    <path d="M39.7959184,36.7346939 L9.18367347,36.7346939 C8.62040816,36.7346939 8.16326531,36.277551 8.16326531,35.7142857 C8.16326531,35.1510204 8.62040816,34.6938776 9.18367347,34.6938776 L39.7959184,34.6938776 C40.3591837,34.6938776 40.8163265,35.1510204 40.8163265,35.7142857 C40.8163265,36.277551 40.3591837,36.7346939 39.7959184,36.7346939" id="Fill-3290" fill="#ED1062"></path>
                </g>
            </g>
        </g>
    </g>
</svg>