<?xml version="1.0" encoding="UTF-8" standalone="no"?>
<svg width="152px" height="79px" viewBox="0 0 152 79" version="1.1" xmlns="http://www.w3.org/2000/svg" xmlns:xlink="http://www.w3.org/1999/xlink">
    <!-- Generator: Sketch 46.2 (44496) - http://www.bohemiancoding.com/sketch -->
    <title>Group 16</title>
    <desc>Created with Sketch.</desc>
    <defs>
        <rect id="path-1" x="0" y="0" width="71.4285714" height="46.2" rx="5.10204082"></rect>
    </defs>
    <g id="Page-1" stroke="none" stroke-width="1" fill="none" fill-rule="evenodd">
        <g id="HomePage-Desktop-Mockup" transform="translate(-1070.000000, -3546.000000)">
            <g id="Group-16" transform="translate(1071.000000, 3547.000000)">
                <g id="Style-10" transform="translate(22.448980, 0.000000)" stroke="#E1E4E5" stroke-width="1.02040816" stroke-linecap="round" stroke-linejoin="round">
                    <path d="M3.69593779,31.2401833 L53.4014713,31.2401833 C55.4427989,31.2401833 57.0976392,32.9018433 57.0976392,34.9513267 L57.0976392,35.0262733 C57.0976392,37.0757567 58.7522238,38.7374167 60.7935514,38.7374167 L76.9355292,38.7374167 C77.8703069,38.7374167 78.6279447,39.4984333 78.6279447,40.4368067 C78.6279447,41.37518 79.3855824,42.13594 80.3203601,42.13594 L123.840308,42.13594 C125.876268,42.13594 127.526763,40.4786433 127.526763,38.4342933 L127.526763,34.7005633 C127.526763,32.65647 125.876268,30.9991733 123.840308,30.9991733 L107.49614,30.9991733 C105.459925,30.9991733 103.80943,29.34162 103.80943,27.29727 L103.80943,27.22258 C103.80943,25.17823 102.158935,23.5209333 100.122976,23.5209333 L89.9843309,23.5209333 L89.9843309,16.6810233 C89.9843309,13.6980433 87.5759427,11.2799867 84.6052053,11.2799867 L80.4297626,11.2799867 C79.9691475,11.2799867 89.0472527,11.2155633 81.3325886,11.1932333 C79.8858176,11.18887 78.7184318,10.01 78.7184318,8.55726667 L78.7184318,8.50439333 C78.7184318,7.05268667 79.8873512,5.87433 81.3330999,5.86842667 L101.894887,5.79065667 C105.311414,5.77705333 105.565493,0.612406667 102.15689,0.38115 C102.035218,0.372936667 101.912524,0.368573333 101.788552,0.368573333 L37.5153624,0.368573333 C35.4740348,0.368573333 33.8191945,2.02997667 33.8191945,4.07997333 L33.8191945,20.03155 C33.8191945,22.0810333 32.1646098,23.7426933 30.1232823,23.7426933 L3.69593779,23.7426933 C1.65486585,23.7426933 2.55613267e-05,25.4043533 2.55613267e-05,27.4538367 L2.55613267e-05,27.5287833 C2.55613267e-05,29.5785233 1.65486585,31.2401833 3.69593779,31.2401833 Z" id="Stroke-1"></path>
                    <path d="M114.165678,0.256461333 L117.29873,0.256461333 C118.756237,0.256461333 119.937681,1.44303133 119.937681,2.90654467 L119.937681,2.95993133 C119.937681,4.42344467 118.756237,5.61001467 117.29873,5.61001467 L114.165678,5.61001467 C112.708427,5.61001467 111.526727,4.42344467 111.526727,2.95993133 L111.526727,2.90654467 C111.526727,1.44303133 112.708427,0.256461333 114.165678,0.256461333 Z" id="Stroke-3"></path>
                    <path d="M20.4281267,18.3218933 C20.4281267,17.85245 20.8072011,17.4715567 21.2749734,17.4715567 C21.7424901,17.4715567 22.1215646,17.85245 22.1215646,18.3218933 C22.1215646,18.7913367 21.7424901,19.17223 21.2749734,19.17223 C20.8072011,19.17223 20.4281267,18.7913367 20.4281267,18.3218933 Z" id="Stroke-5"></path>
                    <path d="M12.0465676,35.8012783 L48.410111,35.8012783 C50.7916599,35.8012783 52.7223069,37.7398817 52.7223069,40.131245 L52.7223069,46.3017683 C52.7223069,48.6933883 54.6529539,50.631735 57.0345027,50.631735 L99.3684052,50.631735 C101.749954,50.631735 103.680601,52.570595 103.680601,54.9617017 C103.680601,57.3533217 101.749954,59.2916683 99.3684052,59.2916683 L23.5491647,59.2916683 C21.1676158,59.2916683 19.2369688,57.3533217 19.2369688,54.9617017 L19.2369688,50.6445683 C19.2369688,48.253205 17.3063218,46.3146017 14.924773,46.3146017 L12.0465676,46.3146017 C9.66501881,46.3146017 7.7343718,44.3757417 7.7343718,41.984635 L7.7343718,40.131245 C7.7343718,37.7398817 9.66501881,35.8012783 12.0465676,35.8012783 Z" id="Stroke-11"></path>
                </g>
                <g id="Group-9" transform="translate(0.000000, 47.226667)" stroke="#E1E4E5" stroke-width="1.02040816" stroke-linecap="round" stroke-linejoin="round">
                    <path d="M64.0917857,28.3572618 C64.1259694,29.0200421 63.6244388,29.5852176 62.9713776,29.6199101 C62.3185714,29.6546025 61.7614286,29.1456079 61.7272449,28.4828276 C61.6930612,27.8203062 62.1945918,27.2548718 62.8476531,27.2201794 C63.5007143,27.1857459 64.057602,27.6944815 64.0917857,28.3572618 Z" id="Stroke-12"></path>
                    <path d="M14.7907143,7.109872 L14.7907143,10.674905 C14.7907143,13.2338583 12.7465816,15.3081535 10.2254082,15.3081535 L4.56545918,15.3081535 C2.04403061,15.3081535 -0.000102040817,17.3827076 -0.000102040817,19.9416609 L-0.000102040817,20.0353821 C-0.000102040817,22.5943354 2.04403061,24.6686306 4.56545918,24.6686306 L53.4955612,24.6686306 C57.1157143,24.6686306 60.0501531,21.6902617 60.0501531,18.0164912 L60.0501531,17.9005047 C60.0501531,15.2214225 62.1902041,13.0495226 64.8297449,13.0495226 L83.4407143,13.0495226 C86.8565306,13.0495226 89.6254082,10.2394377 89.6254082,6.77278609 L89.6254082,6.51725322 C89.6254082,3.05060162 86.8565306,0.240516754 83.4407143,0.240516754 L21.5595918,0.240516754 C17.8210714,0.240516754 14.7907143,3.31623154 14.7907143,7.109872 Z" id="Stroke-20"></path>
                </g>
                <g id="Group-8" transform="translate(11.734694, 10.780000)">
                    <g id="Group-6">
                        <g id="Rectangle-18">
                            <use fill="#FFFFFF" fill-rule="evenodd" xlink:href="#path-1"></use>
                            <rect stroke="#9E0059" stroke-width="2.04081633" x="1.02040816" y="1.02040816" width="69.3877551" height="44.1591837" rx="5.10204082"></rect>
                        </g>
                        <g id="Group-7" transform="translate(14.285714, 44.146667)" fill="#9E0059">
                            <path d="M1.019885,9.24 C0.530117159,9.24 0.0974888992,8.88492013 0.0138202262,8.38206136 C-0.0780112442,7.82378549 0.297477435,7.29424442 0.852547655,7.2018826 L18.1984921,4.12315542 C18.7494809,4.02053118 19.2800627,4.4084508 19.3739349,4.96672667 C19.4657663,5.52500253 19.0902777,6.05454361 18.5352074,6.14690542 L1.18926305,9.22563261" id="Fill-3634"></path>
                            <path d="M41.6678798,9.22563428 L24.3219354,6.14726663 C23.7668652,6.0549156 23.3913765,5.52543637 23.483208,4.9672257 C23.5770802,4.40696279 24.1035806,4.01908847 24.6586508,4.12375297 L42.0045952,7.20212062 C42.5596654,7.29447165 42.9351541,7.82395088 42.8433226,8.38216155 C42.759654,8.8849616 42.3270257,9.24 41.8372579,9.24" id="Fill-3636"></path>
                            <path d="M19.3877551,4.10666667 L23.4693878,4.10666667 L23.4693878,2.05333333 L19.3877551,2.05333333 L19.3877551,4.10666667 Z M24.4897959,6.16 L18.3673469,6.16 C17.8020408,6.16 17.3469388,5.70005333 17.3469388,5.13333333 L17.3469388,1.02666667 C17.3469388,0.459946667 17.8020408,0 18.3673469,0 L24.4897959,0 C25.0530612,0 25.5102041,0.459946667 25.5102041,1.02666667 L25.5102041,5.13333333 C25.5102041,5.70005333 25.0530612,6.16 24.4897959,6.16 L24.4897959,6.16 Z" id="Fill-3638"></path>
                        </g>
                    </g>
                    <g id="Group-3" transform="translate(35.714286, 5.133333)">
                        <rect id="Rectangle-16" fill="#FFFFFF" x="12.244898" y="0" width="36.7346939" height="49.28" rx="5.10204082"></rect>
                        <rect id="Rectangle-17" fill="#FFFFFF" x="0" y="10.2666667" width="24.4897959" height="39.0133333" rx="5.10204082"></rect>
                        <path d="M43.877551,49.28 L26.5306122,49.28 C25.9673469,49.28 25.5102041,48.8200533 25.5102041,48.2533333 C25.5102041,47.6866133 25.9673469,47.2266667 26.5306122,47.2266667 L43.877551,47.2266667 C45.5653061,47.2266667 46.9387755,45.8447733 46.9387755,44.1466667 L46.9387755,5.13333333 C46.9387755,3.43522667 45.5653061,2.05333333 43.877551,2.05333333 L17.3469388,2.05333333 C15.6591837,2.05333333 14.2857143,3.43522667 14.2857143,5.13333333 L14.2857143,7.18666667 C14.2857143,7.75338667 13.8285714,8.21333333 13.2653061,8.21333333 C12.7020408,8.21333333 12.244898,7.75338667 12.244898,7.18666667 L12.244898,5.13333333 C12.244898,2.30384 14.5346939,0 17.3469388,0 L43.877551,0 C46.6897959,0 48.9795918,2.30384 48.9795918,5.13333333 L48.9795918,44.1466667 C48.9795918,46.97616 46.6897959,49.28 43.877551,49.28" id="Fill-2762" fill="#ED1062"></path>
                        <path d="M43.877551,41.0666667 L27.5510204,41.0666667 C26.9877551,41.0666667 26.5306122,40.60672 26.5306122,40.04 C26.5306122,39.47328 26.9877551,39.0133333 27.5510204,39.0133333 L42.8571429,39.0133333 L42.8571429,6.16 L18.3673469,6.16 L18.3673469,7.18666667 C18.3673469,7.75338667 17.9102041,8.21333333 17.3469388,8.21333333 C16.7836735,8.21333333 16.3265306,7.75338667 16.3265306,7.18666667 L16.3265306,5.13333333 C16.3265306,4.56661333 16.7836735,4.10666667 17.3469388,4.10666667 L43.877551,4.10666667 C44.4408163,4.10666667 44.8979592,4.56661333 44.8979592,5.13333333 L44.8979592,40.04 C44.8979592,40.60672 44.4408163,41.0666667 43.877551,41.0666667" id="Fill-2764" fill="#ED1062"></path>
                        <path d="M30.6122449,46.2 C29.4877551,46.2 28.5714286,45.2780533 28.5714286,44.1466667 C28.5714286,43.01528 29.4877551,42.0933333 30.6122449,42.0933333 C31.7367347,42.0933333 32.6530612,43.01528 32.6530612,44.1466667 C32.6530612,45.2780533 31.7367347,46.2 30.6122449,46.2" id="Fill-2766" fill="#ED1062"></path>
                        <path d="M12.244898,46.2 C11.1204082,46.2 10.2040816,45.2780533 10.2040816,44.1466667 C10.2040816,43.01528 11.1204082,42.0933333 12.244898,42.0933333 C13.3693878,42.0933333 14.2857143,43.01528 14.2857143,44.1466667 C14.2857143,45.2780533 13.3693878,46.2 12.244898,46.2" id="Fill-2768" fill="#ED1062"></path>
                        <path d="M14.2857143,16.4266667 L10.2040816,16.4266667 C9.64081633,16.4266667 9.18367347,15.96672 9.18367347,15.4 C9.18367347,14.83328 9.64081633,14.3733333 10.2040816,14.3733333 L14.2857143,14.3733333 C14.8489796,14.3733333 15.3061224,14.83328 15.3061224,15.4 C15.3061224,15.96672 14.8489796,16.4266667 14.2857143,16.4266667" id="Fill-2770" fill="#ED1062"></path>
                        <path d="M19.3928318,16.4266667 C18.8323688,16.4266667 18.3673469,15.96672 18.3673469,15.4 C18.3673469,14.83328 18.8120621,14.3733333 19.3725251,14.3733333 L19.3928318,14.3733333 C19.9532948,14.3733333 20.4081633,14.83328 20.4081633,15.4 C20.4081633,15.96672 19.9532948,16.4266667 19.3928318,16.4266667" id="Fill-2772" fill="#ED1062"></path>
                        <path d="M5.10204082,12.32 C3.41428571,12.32 2.04081633,13.7018933 2.04081633,15.4 L2.04081633,44.1466667 C2.04081633,45.8447733 3.41428571,47.2266667 5.10204082,47.2266667 L19.3877551,47.2266667 C21.0755102,47.2266667 22.4489796,45.8447733 22.4489796,44.1466667 L22.4489796,15.4 C22.4489796,13.7018933 21.0755102,12.32 19.3877551,12.32 L5.10204082,12.32 Z M19.3877551,49.28 L5.10204082,49.28 C2.28979592,49.28 0,46.97616 0,44.1466667 L0,15.4 C0,12.5705067 2.28979592,10.2666667 5.10204082,10.2666667 L19.3877551,10.2666667 C22.2,10.2666667 24.4897959,12.5705067 24.4897959,15.4 L24.4897959,44.1466667 C24.4897959,46.97616 22.2,49.28 19.3877551,49.28 L19.3877551,49.28 Z" id="Fill-2774" fill="#ED1062"></path>
                        <path d="M23.4693878,41.0666667 L1.02040816,41.0666667 C0.457142857,41.0666667 0,40.60672 0,40.04 C0,39.47328 0.457142857,39.0133333 1.02040816,39.0133333 L23.4693878,39.0133333 C24.0326531,39.0133333 24.4897959,39.47328 24.4897959,40.04 C24.4897959,40.60672 24.0326531,41.0666667 23.4693878,41.0666667" id="Fill-2776" fill="#ED1062"></path>
                    </g>
                </g>
            </g>
        </g>
    </g>
</svg>