<?xml version="1.0" encoding="UTF-8" standalone="no"?>
<svg width="22px" height="14px" viewBox="0 0 22 14" version="1.1" xmlns="http://www.w3.org/2000/svg" xmlns:xlink="http://www.w3.org/1999/xlink">
    <!-- Generator: Sketch 46.2 (44496) - http://www.bohemiancoding.com/sketch -->
    <title>Google +</title>
    <desc>Created with Sketch.</desc>
    <defs></defs>
    <g id="Symbols" stroke="none" stroke-width="1" fill="none" fill-rule="evenodd">
        <g id="Footer" transform="translate(-1048.000000, -197.000000)" fill="#AEB1B9">
            <path d="M1055,203 L1055,205.4 L1058.97,205.4 C1058.81,206.43 1057.77,208.42 1055,208.42 C1052.61,208.42 1050.66,206.44 1050.66,204 C1050.66,201.56 1052.61,199.58 1055,199.58 C1056.36,199.58 1057.27,200.16 1057.79,200.66 L1059.69,198.83 C1058.47,197.69 1056.89,197 1055,197 C1051.13,197 1048,200.13 1048,204 C1048,207.87 1051.13,211 1055,211 C1059.04,211 1061.72,208.16 1061.72,204.16 C1061.72,203.7 1061.67,203.35 1061.61,203 L1055,203 L1055,203 Z M1070,203 L1068,203 L1068,201 L1066,201 L1066,203 L1064,203 L1064,205 L1066,205 L1066,207 L1068,207 L1068,205 L1070,205 L1070,203 L1070,203 Z" id="Google-+"></path>
        </g>
    </g>
</svg>