<?xml version="1.0" encoding="UTF-8" standalone="no"?>
<svg width="16px" height="13px" viewBox="0 0 16 13" version="1.1" xmlns="http://www.w3.org/2000/svg" xmlns:xlink="http://www.w3.org/1999/xlink">
    <!-- Generator: Sketch 46.2 (44496) - http://www.bohemiancoding.com/sketch -->
    <title>Twitter</title>
    <desc>Created with Sketch.</desc>
    <defs></defs>
    <g id="Symbols" stroke="none" stroke-width="1" fill="none" fill-rule="evenodd">
        <g id="Footer" transform="translate(-1051.000000, -136.000000)" fill="#AEB1B9">
            <path d="M1067,137.539333 C1066.41133,137.800667 1065.77867,137.976667 1065.11467,138.056 C1065.792,137.65 1066.31333,137.006667 1066.558,136.24 C1065.924,136.616 1065.22133,136.889333 1064.474,137.036667 C1063.87533,136.398667 1063.02133,136 1062.07733,136 C1060.26467,136 1058.79467,137.47 1058.79467,139.282667 C1058.79467,139.539333 1058.824,139.79 1058.88,140.030667 C1056.152,139.893333 1053.73333,138.586667 1052.114,136.600667 C1051.83133,137.085333 1051.66933,137.649333 1051.66933,138.250667 C1051.66933,139.39 1052.24933,140.394667 1053.13,140.983333 C1052.592,140.966667 1052.08533,140.818667 1051.64333,140.572667 C1051.64267,140.586667 1051.64267,140.6 1051.64267,140.614 C1051.64267,142.204667 1052.77467,143.531333 1054.276,143.832667 C1054.00067,143.907333 1053.71067,143.948 1053.41133,143.948 C1053.19933,143.948 1052.994,143.927333 1052.79333,143.889333 C1053.21133,145.192667 1054.42333,146.142 1055.86,146.168667 C1054.73667,147.049333 1053.32133,147.574 1051.78333,147.574 C1051.518,147.574 1051.25667,147.558667 1051,147.528 C1052.45267,148.459333 1054.17867,149.002667 1056.032,149.002667 C1062.06933,149.002667 1065.372,144.001333 1065.372,139.663333 C1065.372,139.520667 1065.36867,139.379333 1065.362,139.238667 C1066.00333,138.775333 1066.56,138.197333 1067,137.539333" id="Twitter"></path>
        </g>
    </g>
</svg>