<?xml version="1.0" encoding="UTF-8" standalone="no"?>
<svg width="16px" height="16px" viewBox="0 0 16 16" version="1.1" xmlns="http://www.w3.org/2000/svg" xmlns:xlink="http://www.w3.org/1999/xlink">
    <!-- Generator: Sketch 46.2 (44496) - http://www.bohemiancoding.com/sketch -->
    <title>Instagram</title>
    <desc>Created with Sketch.</desc>
    <defs></defs>
    <g id="Symbols" stroke="none" stroke-width="1" fill="none" fill-rule="evenodd">
        <g id="Footer" transform="translate(-1051.000000, -228.000000)" fill="#AEB1B9">
            <path d="M1065.154,244 L1052.84533,244 C1051.82667,244 1051,243.173333 1051,242.153333 L1051,229.846667 C1051,228.826667 1051.82667,228 1052.84533,228 L1065.154,228 C1066.17333,228 1067,228.826667 1067,229.846667 L1067,242.153333 C1067,243.173333 1066.17333,244 1065.154,244 L1065.154,244 Z M1059,232.923333 C1057.30067,232.923333 1055.92267,234.3 1055.92267,236 C1055.92267,237.699333 1057.30067,239.076667 1059,239.076667 C1060.69867,239.076667 1062.07733,237.699333 1062.07733,236 C1062.07733,234.3 1060.69867,232.923333 1059,232.923333 L1059,232.923333 Z M1065.154,230.461333 C1065.154,230.122 1064.87867,229.846667 1064.538,229.846667 L1062.69267,229.846667 C1062.35267,229.846667 1062.07733,230.122 1062.07733,230.461333 L1062.07733,232.308 C1062.07733,232.648 1062.35267,232.923333 1062.69267,232.923333 L1064.538,232.923333 C1064.87867,232.923333 1065.154,232.648 1065.154,232.308 L1065.154,230.461333 Z M1065.154,234.768667 L1063.76133,234.768667 C1063.86267,235.162667 1063.92267,235.574 1063.92267,236 C1063.92267,238.719333 1061.71867,240.923333 1059,240.923333 C1056.28067,240.923333 1054.07733,238.719333 1054.07733,236 C1054.07733,235.574 1054.13733,235.162667 1054.23867,234.768667 L1052.84533,234.768667 L1052.84533,241.538667 C1052.84533,241.877333 1053.12133,242.153333 1053.46133,242.153333 L1064.538,242.153333 C1064.87867,242.153333 1065.154,241.877333 1065.154,241.538667 L1065.154,234.768667 Z" id="Instagram"></path>
        </g>
    </g>
</svg>