<?xml version="1.0" encoding="UTF-8" standalone="no"?>
<svg width="204px" height="150px" viewBox="0 0 204 150" version="1.1" xmlns="http://www.w3.org/2000/svg" xmlns:xlink="http://www.w3.org/1999/xlink">
    <!-- Generator: Sketch 49.1 (51147) - http://www.bohemiancoding.com/sketch -->
    <title>Group 28</title>
    <desc>Created with Sketch.</desc>
    <defs>
        <polygon id="path-1" points="0 150 176 150 176 0 0 0"></polygon>
    </defs>
    <g id="Page-1" stroke="none" stroke-width="1" fill="none" fill-rule="evenodd">
        <g id="HomePage-Desktop-Mockup" transform="translate(-727.000000, -369.000000)">
            <g id="Group-28" transform="translate(728.000000, 369.000000)">
                <g id="Group-20" transform="translate(27.000000, 0.000000)">
                    <g id="iMac">
                        <path d="M118,148 L56,148 C68.0296909,136.822812 68.3321844,119.231646 69.2918649,102 L104.629612,102 C104.914259,121.067517 106.434311,139.029773 118,148 Z" id="Fill-1" fill="#FFFFFF"></path>
                        <path d="M118,148 L56,148 C68.0296909,136.822812 68.3321844,119.231646 69.2918649,102 L104.629612,102 C104.914259,121.067517 106.434311,139.029773 118,148" id="Fill-3" fill="#FFFFFF"></path>
                        <path d="M108,132 C105.632226,123.23895 105.097393,112.793136 104.940617,102 L69.462075,102 C68.9017107,112.333405 68.5594898,122.789313 66,132 L108,132 Z" id="Fill-5" fill="#F5F6F7"></path>
                        <path d="M118,148 L56,148 C68.0296909,136.822812 68.3321844,119.231646 69.2918649,102 L104.629612,102 C104.914259,121.067517 106.434311,139.029773 118,148 Z" id="Stroke-7" stroke="#AEB1B9" stroke-linecap="round" stroke-linejoin="round"></path>
                        <path d="M175,111 L175,7.20371549 C175,3.06429231 172.898929,1 170.307624,1 L5.69237582,1 C3.10107052,1 1,3.06429231 1,7.20371549 L1,111 L175,111 Z" id="Fill-9" fill="#F5F6F7"></path>
                        <path d="M175,111 L175,7.20371549 C175,3.06429231 172.898929,1 170.307624,1 L5.69237582,1 C3.10107052,1 1,3.06429231 1,7.20371549 L1,111 L175,111 Z" id="Stroke-11" stroke="#AEB1B9" stroke-linecap="round" stroke-linejoin="round"></path>
                        <path d="M1,105 L1,120.396478 C1,122.938809 3.10107052,125 5.69237582,125 L170.307624,125 C172.898929,125 175,122.938809 175,120.396478 L175,105 L1,105 Z" id="Fill-13" fill="#FFFFFF"></path>
                        <path d="M1,105 L1,120.396478 C1,122.938809 3.10107052,125 5.69237582,125 L170.307624,125 C172.898929,125 175,122.938809 175,120.396478 L175,105 L1,105 Z" id="Stroke-15" stroke="#AEB1B9" stroke-linecap="round" stroke-linejoin="round"></path>
                        <path d="M93,114.999773 C93,117.209098 90.9853588,119 88.5002505,119 C86.0146412,119 84,117.209098 84,114.999773 C84,112.790902 86.0146412,111 88.5002505,111 C90.9853588,111 93,112.790902 93,114.999773" id="Fill-17" fill="#C7CFD3"></path>
                        <mask id="mask-2" fill="white">
                            <use xlink:href="#path-1"></use>
                        </mask>
                        <g id="Clip-20"></g>
                        <polygon id="Fill-19" fill="#FFFFFF" mask="url(#mask-2)" points="7 99 168 99 168 9 7 9"></polygon>
                        <polygon id="Stroke-21" stroke="#AEB1B9" stroke-linecap="round" stroke-linejoin="round" mask="url(#mask-2)" points="7 99 168 99 168 9 7 9"></polygon>
                        <path d="M88,2.99983512 C88,3.55218467 87.5522871,4 86.9998384,4 C86.4473897,4 86,3.55218467 86,2.99983512 C86,2.44748557 86.4473897,2 86.9998384,2 C87.5522871,2 88,2.44748557 88,2.99983512" id="Fill-22" fill="#AEB1B9" mask="url(#mask-2)"></path>
                        <path d="M97,149 L216,149" id="Stroke-23" stroke="#AEB1B9" stroke-linecap="round" stroke-linejoin="round" mask="url(#mask-2)"></path>
                        <path d="M119.171838,145 L56.8281616,145 C55.8182986,145 55,145.886568 55,146.980083 L55,147.019917 C55,148.113432 55.8182986,149 56.8281616,149 L119.171838,149 C120.181701,149 121,148.113432 121,147.019917 L121,146.980083 C121,145.886568 120.181701,145 119.171838,145" id="Fill-24" fill="#FFFFFF" mask="url(#mask-2)"></path>
                        <path d="M119.171838,145 L56.8281616,145 C55.8182986,145 55,145.886568 55,146.980083 L55,147.019917 C55,148.113432 55.8182986,149 56.8281616,149 L119.171838,149 C120.181701,149 121,148.113432 121,147.019917 L121,146.980083 C121,145.886568 120.181701,145 119.171838,145 Z" id="Stroke-25" stroke="#AEB1B9" stroke-linecap="round" stroke-linejoin="round" mask="url(#mask-2)"></path>
                        <path d="M123.845601,83 L50.1543986,83 C48.4124776,83 47,81.5820474 47,79.8334047 L47,27.1665953 C47,25.4179526 48.4124776,24 50.1543986,24 L123.845601,24 C125.587971,24 127,25.4179526 127,27.1665953 L127,79.8334047 C127,81.5820474 125.587971,83 123.845601,83" id="Fill-26" fill="#F5F6F7" mask="url(#mask-2)"></path>
                        <path d="M123.845601,83 L50.1543986,83 C48.4124776,83 47,81.5820474 47,79.8334047 L47,27.1665953 C47,25.4179526 48.4124776,24 50.1543986,24 L123.845601,24 C125.587971,24 127,25.4179526 127,27.1665953 L127,79.8334047 C127,81.5820474 125.587971,83 123.845601,83 Z" id="Stroke-27" stroke="#AEB1B9" stroke-linecap="round" stroke-linejoin="round" mask="url(#mask-2)"></path>
                        <path d="M108.264867,72 L67.7346772,72 C66.7766395,72 66,71.2070533 66,70.2291478 L66,40.771318 C66,39.7929467 66.7766395,39 67.7346772,39 L108.264867,39 C109.223361,39 110,39.7929467 110,40.771318 L110,70.2291478 C110,71.2070533 109.223361,72 108.264867,72" id="Fill-28" fill="#FFFFFF" mask="url(#mask-2)"></path>
                        <path d="M108.264867,72 L67.7346772,72 C66.7766395,72 66,71.2070533 66,70.2291478 L66,40.771318 C66,39.7929467 66.7766395,39 67.7346772,39 L108.264867,39 C109.223361,39 110,39.7929467 110,40.771318 L110,70.2291478 C110,71.2070533 109.223361,72 108.264867,72 Z" id="Stroke-29" stroke="#AEB1B9" stroke-linecap="round" stroke-linejoin="round" mask="url(#mask-2)"></path>
                        <path d="M127,30 L127,26.753989 C127,25.2331938 125.587971,24 123.845601,24 L50.1543986,24 C48.4120287,24 47,25.2331938 47,26.753989 L47,30 L127,30 Z" id="Fill-30" fill="#FFFFFF" mask="url(#mask-2)"></path>
                        <path d="M127,30 L127,26.753989 C127,25.2331938 125.587971,24 123.845601,24 L50.1543986,24 C48.4120287,24 47,25.2331938 47,26.753989 L47,30 L127,30 Z" id="Stroke-31" stroke="#AEB1B9" stroke-linecap="round" stroke-linejoin="round" mask="url(#mask-2)"></path>
                        <path d="M75,55.5 C74.7238576,55.5 74.5,55.2761424 74.5,55 C74.5,54.7238576 74.7238576,54.5 75,54.5 L100,54.5 C100.276142,54.5 100.5,54.7238576 100.5,55 C100.5,55.2761424 100.276142,55.5 100,55.5 L75,55.5 Z" id="Stroke-32" fill="#AEB1B9" fill-rule="nonzero" mask="url(#mask-2)"></path>
                        <path d="M75,49.5 C74.7238576,49.5 74.5,49.2761424 74.5,49 C74.5,48.7238576 74.7238576,48.5 75,48.5 L100,48.5 C100.276142,48.5 100.5,48.7238576 100.5,49 C100.5,49.2761424 100.276142,49.5 100,49.5 L75,49.5 Z" id="Stroke-33" fill="#AEB1B9" fill-rule="nonzero" mask="url(#mask-2)"></path>
                        <path d="M79,63.5 C78.7238576,63.5 78.5,63.2761424 78.5,63 C78.5,62.7238576 78.7238576,62.5 79,62.5 L96,62.5 C96.2761424,62.5 96.5,62.7238576 96.5,63 C96.5,63.2761424 96.2761424,63.5 96,63.5 L79,63.5 Z" id="Stroke-34" fill="#AEB1B9" fill-rule="nonzero" mask="url(#mask-2)"></path>
                        <path d="M9,14.5 C8.72385763,14.5 8.5,14.2761424 8.5,14 C8.5,13.7238576 8.72385763,13.5 9,13.5 L168,13.5 C168.276142,13.5 168.5,13.7238576 168.5,14 C168.5,14.2761424 168.276142,14.5 168,14.5 L9,14.5 Z" id="Stroke-35" fill="#AEB1B9" fill-rule="nonzero" mask="url(#mask-2)"></path>
                        <path d="M16,11.5 C15.7238576,11.5 15.5,11.2761424 15.5,11 C15.5,10.7238576 15.7238576,10.5 16,10.5 L26,10.5 C26.2761424,10.5 26.5,10.7238576 26.5,11 C26.5,11.2761424 26.2761424,11.5 26,11.5 L16,11.5 Z" id="Stroke-36" fill="#AEB1B9" fill-rule="nonzero" mask="url(#mask-2)"></path>
                        <path d="M156,11 L163,11" id="Stroke-37" stroke="#AEB1B9" stroke-linecap="round" stroke-linejoin="round" mask="url(#mask-2)"></path>
                        <path d="M145,11 L151,11" id="Stroke-38" stroke="#AEB1B9" stroke-linecap="round" stroke-linejoin="round" mask="url(#mask-2)"></path>
                        <path d="M136,11 L141,11" id="Stroke-39" stroke="#AEB1B9" stroke-linecap="round" stroke-linejoin="round" mask="url(#mask-2)"></path>
                    </g>
                    <g id="Plant" transform="translate(73.000000, 69.000000)">
                        <path d="M74.7146093,40.1447413 C69.4767483,41.1801393 49.0527322,55.6462276 47,57 C49.8281427,48.7985775 60.4653879,40.6382835 69.485419,38.1356381 C78.5052024,35.6327449 88.8134555,37.2384914 96,43.2365651 C89.1005804,41.0007595 81.8295583,38.7384434 74.7146093,40.1447413" id="Fill-1" fill="#F5F6F7"></path>
                        <path d="M74.7146093,40.1447413 C69.4767483,41.1801393 49.0527322,55.6462276 47,57 C49.8281427,48.7985775 60.4653879,40.6382835 69.485419,38.1356381 C78.5052024,35.6327449 88.8134555,37.2384914 96,43.2365651 C89.1005804,41.0007595 81.8295583,38.7384434 74.7146093,40.1447413 Z" id="Stroke-3" stroke="#AEB1B9" stroke-linecap="round" stroke-linejoin="round"></path>
                        <path d="M46,57 C43.1949802,46.2659498 37.0246758,29.9976406 32.4750494,20.4549472 C31.7075802,18.845259 30.8526467,17.2217579 29.5076662,16.0523538 C26.6760375,13.5909565 22.4494134,13.7364845 18.7722136,14.4730044 C14.6875036,15.2911681 10.7151422,16.6687514 7,18.5551895 C10.4483142,18.4289008 13.8044828,18.2357678 17.2525506,18.1092324 C18.8971275,18.0490479 20.5766901,17.9928099 22.15302,18.4651595 C25.7368424,19.5386138 27.9739597,23.0278338 29.7244793,26.3372402 C34.0417706,34.4996371 39.4039534,48.8474694 46,57" id="Fill-5" fill="#F5F6F7"></path>
                        <path d="M46,57 C43.1949802,46.2659498 37.0246758,29.9976406 32.4750494,20.4549472 C31.7075802,18.845259 30.8526467,17.2217579 29.5076662,16.0523538 C26.6760375,13.5909565 22.4494134,13.7364845 18.7722136,14.4730044 C14.6875036,15.2911681 10.7151422,16.6687514 7,18.5551895 C10.4483142,18.4289008 13.8044828,18.2357678 17.2525506,18.1092324 C18.8971275,18.0490479 20.5766901,17.9928099 22.15302,18.4651595 C25.7368424,19.5386138 27.9739597,23.0278338 29.7244793,26.3372402 C34.0417706,34.4996371 39.4039534,48.8474694 46,57 Z" id="Stroke-7" stroke="#AEB1B9" stroke-linecap="round" stroke-linejoin="round"></path>
                        <path d="M48.5271637,43.0180652 C50.8961743,37.1915757 53.5565872,31.4831118 56.4947273,25.9214966 C57.8448247,23.3661801 59.2677726,20.821051 61.1618871,18.6377015 C67.7699052,11.0221922 78.9896371,9.11191668 89,10.3458434 C82.5287321,11.4560295 75.5713795,12.6665995 70.8686646,17.2457447 C57.3512808,30.4096999 52.719676,47.069201 47.2469332,57 C46.60371,52.2831997 47.2824882,46.0795252 48.5271637,43.0180652" id="Fill-9" fill="#F5F6F7"></path>
                        <path d="M48.5271637,43.0180652 C50.8961743,37.1915757 53.5565872,31.4831118 56.4947273,25.9214966 C57.8448247,23.3661801 59.2677726,20.821051 61.1618871,18.6377015 C67.7699052,11.0221922 78.9896371,9.11191668 89,10.3458434 C82.5287321,11.4560295 75.5713795,12.6665995 70.8686646,17.2457447 C57.3512808,30.4096999 52.719676,47.069201 47.2469332,57 C46.60371,52.2831997 47.2824882,46.0795252 48.5271637,43.0180652 Z" id="Stroke-11" stroke="#AEB1B9" stroke-linecap="round" stroke-linejoin="round"></path>
                        <path d="M43.5869404,20.6880971 C43.89859,17.856649 43.5750222,14.9412695 42.7120901,12.2201664 C40.991044,6.79524017 36.0619599,2.94081723 31,0.12047766 C37.2068727,-0.799064126 43.3031846,3.67274781 46.0238423,9.18111168 C48.7450071,14.6892287 48.9136377,21.0230819 48.9364598,27.1350108 C48.9648608,34.7848579 49.2686494,47.5851264 48.2403833,57 C45.1908326,51.0028596 42.4405062,31.106197 43.5869404,20.6880971" id="Fill-13" fill="#F5F6F7"></path>
                        <path d="M43.5869404,20.6880971 C43.89859,17.856649 43.5750222,14.9412695 42.7120901,12.2201664 C40.991044,6.79524017 36.0619599,2.94081723 31,0.12047766 C37.2068727,-0.799064126 43.3031846,3.67274781 46.0238423,9.18111168 C48.7450071,14.6892287 48.9136377,21.0230819 48.9364598,27.1350108 C48.9648608,34.7848579 49.2686494,47.5851264 48.2403833,57 C45.1908326,51.0028596 42.4405062,31.106197 43.5869404,20.6880971 Z" id="Stroke-15" stroke="#AEB1B9" stroke-linecap="round" stroke-linejoin="round"></path>
                        <path d="M47,58 C45.6644304,54.5337333 45.8545471,45.9662019 46.100448,42.2554802 C46.3783685,38.0656871 46.0033884,33.764136 44.3951516,29.8909488 C42.7869147,26.0180138 39.8481113,22.6029591 36,21 C38.2468788,24.2407323 39.1066564,38.4148365 39.8518636,43.3463198 C40.5850636,48.1988409 44.0436859,55.796625 47,58" id="Fill-17" fill="#F5F6F7"></path>
                        <path d="M47,58 C45.6644304,54.5337333 45.8545471,45.9662019 46.100448,42.2554802 C46.3783685,38.0656871 46.0033884,33.764136 44.3951516,29.8909488 C42.7869147,26.0180138 39.8481113,22.6029591 36,21 C38.2468788,24.2407323 39.1066564,38.4148365 39.8518636,43.3463198 C40.5850636,48.1988409 44.0436859,55.796625 47,58 Z" id="Stroke-19" stroke="#AEB1B9" stroke-linecap="round" stroke-linejoin="round"></path>
                        <path d="M82,21 C72.2399787,25.5670958 62.1089668,30.4227011 55.4480002,38.9209584 C52.0637811,43.2389905 49.3707018,50.3313652 48,58 C57.9495436,44.3298138 68.429649,31.0462454 82,21" id="Fill-21" fill="#F5F6F7"></path>
                        <path d="M82,21 C72.2399787,25.5670958 62.1089668,30.4227011 55.4480002,38.9209584 C52.0637811,43.2389905 49.3707018,50.3313652 48,58 C57.9495436,44.3298138 68.429649,31.0462454 82,21 Z" id="Stroke-23" stroke="#AEB1B9" stroke-linecap="round" stroke-linejoin="round"></path>
                        <path d="M47,57 C45.3640673,54.5816018 30.7951899,38.3170082 27.6468382,35.7210629 C19.9567292,29.3810514 7.63510286,29.4332275 0,35.837779 C7.56534507,35.0205187 14.5718777,34.8902022 21.4693982,38.0707173 C28.3671687,41.2512324 40.9200709,52.4727981 47,57" id="Fill-25" fill="#F5F6F7"></path>
                        <path d="M47,57 C45.3640673,54.5816018 30.7951899,38.3170082 27.6468382,35.7210629 C19.9567292,29.3810514 7.63510286,29.4332275 0,35.837779 C7.56534507,35.0205187 14.5718777,34.8902022 21.4693982,38.0707173 C28.3671687,41.2512324 40.9200709,52.4727981 47,57 Z" id="Stroke-27" stroke="#AEB1B9" stroke-linecap="round" stroke-linejoin="round"></path>
                        <path d="M48.2815817,57 C47.9237721,42.6620325 54.6562306,29.4798576 61,10 C55.0015414,17.7122161 49.0386188,23.3589607 45.8239685,38.3778257 C43.8645929,47.5335444 45.6872166,52.8962929 48.2815817,57" id="Fill-29" fill="#F5F6F7"></path>
                        <path d="M48.2815817,57 C47.9237721,42.6620325 54.6562306,29.4798576 61,10 C55.0015414,17.7122161 49.0386188,23.3589607 45.8239685,38.3778257 C43.8645929,47.5335444 45.6872166,52.8962929 48.2815817,57 Z" id="Stroke-31" stroke="#AEB1B9" stroke-linecap="round" stroke-linejoin="round"></path>
                        <path d="M84,57.9433494 C81.7487382,56.2222506 79.8390298,54.0813956 78.4056716,51.6721034 C77.3810117,49.9497744 76.594527,48.0889209 75.4061852,46.4687014 C74.2178433,44.8484819 72.4601615,43.7001806 70.4779869,43.1982447 C63.1231895,41.3364071 49.7534566,53.0932709 47,57.3584957 C52.6880782,54.5117319 62.8956563,44.9660924 69.7383771,48.2756706 C72.4173406,49.5716002 73.2897204,53.5324648 75.6795798,55.2828432 C78.0691858,57.0329755 81.0278784,58.2860928 84,57.9433494" id="Fill-33" fill="#F5F6F7"></path>
                        <path d="M84,57.9433494 C81.7487382,56.2222506 79.8390298,54.0813956 78.4056716,51.6721034 C77.3810117,49.9497744 76.594527,48.0889209 75.4061852,46.4687014 C74.2178433,44.8484819 72.4601615,43.7001806 70.4779869,43.1982447 C63.1231895,41.3364071 49.7534566,53.0932709 47,57.3584957 C52.6880782,54.5117319 62.8956563,44.9660924 69.7383771,48.2756706 C72.4173406,49.5716002 73.2897204,53.5324648 75.6795798,55.2828432 C78.0691858,57.0329755 81.0278784,58.2860928 84,57.9433494 Z" id="Stroke-35" stroke="#AEB1B9" stroke-linecap="round" stroke-linejoin="round"></path>
                        <path d="M48,57 C44.9954028,54.8163991 39.1961355,50.476242 30.0086198,47.2812232 C28.7390008,46.8397452 27.4165859,46.5352431 26.0768236,46.4190515 C20.2315483,45.9127165 14.3400136,50.1622242 13,55.8518567 C13.1626621,53.297895 13.5075962,50.7304111 14.5197716,48.3780319 C15.3700391,46.403025 16.5634809,44.4901206 18.3648314,43.3076706 C20.2760478,42.0533522 22.683547,41.8873284 24.9660956,42.0541035 C34.0935244,42.7214539 44.0151564,51.2304858 48,57" id="Fill-37" fill="#F5F6F7"></path>
                        <path d="M48,57 C44.9954028,54.8163991 39.1961355,50.476242 30.0086198,47.2812232 C28.7390008,46.8397452 27.4165859,46.5352431 26.0768236,46.4190515 C20.2315483,45.9127165 14.3400136,50.1622242 13,55.8518567 C13.1626621,53.297895 13.5075962,50.7304111 14.5197716,48.3780319 C15.3700391,46.403025 16.5634809,44.4901206 18.3648314,43.3076706 C20.2760478,42.0533522 22.683547,41.8873284 24.9660956,42.0541035 C34.0935244,42.7214539 44.0151564,51.2304858 48,57 Z" id="Stroke-39" stroke="#AEB1B9" stroke-linecap="round" stroke-linejoin="round"></path>
                        <path d="M47,58 C46.6930959,55.3702858 42.1117558,48.9944956 39.9784883,46.301263 C35.3791241,40.4941141 35.6726953,31.8097308 30.8340792,26.2087648 C28.757847,23.8051461 25.8374433,22.3711919 23,21 C25.4604179,24.2338956 28.0079936,27.9116641 29.0240116,31.8727451 C29.6676954,34.3812197 31.3792476,45.1113003 37.907688,50.6900853 C40.8211784,53.1799076 44.272183,55.2999619 47,58" id="Fill-41" fill="#F5F6F7"></path>
                        <path d="M47,58 C46.6930959,55.3702858 42.1117558,48.9944956 39.9784883,46.301263 C35.3791241,40.4941141 35.6726953,31.8097308 30.8340792,26.2087648 C28.757847,23.8051461 25.8374433,22.3711919 23,21 C25.4604179,24.2338956 28.0079936,27.9116641 29.0240116,31.8727451 C29.6676954,34.3812197 31.3792476,45.1113003 37.907688,50.6900853 C40.8211784,53.1799076 44.272183,55.2999619 47,58 Z" id="Stroke-43" stroke="#AEB1B9" stroke-linecap="round" stroke-linejoin="round"></path>
                        <path d="M39.2320381,80 L53.7682113,80 C60.9366873,77.0971306 66,70.0345699 66,61.7767101 C66,57.358121 64.5505965,53.2812971 62.1053358,50 L30.8946642,50 C28.4494035,53.2812971 27,57.358121 27,61.7767101 C27,70.0345699 32.0635621,77.0971306 39.2320381,80" id="Fill-45" fill="#FFFFFF"></path>
                        <path d="M39.2320381,80 L53.7682113,80 C60.9366873,77.0971306 66,70.0345699 66,61.7767101 C66,57.358121 64.5505965,53.2812971 62.1053358,50 L30.8946642,50 C28.4494035,53.2812971 27,57.358121 27,61.7767101 C27,70.0345699 32.0635621,77.0971306 39.2320381,80 Z" id="Stroke-47" stroke="#AEB1B9" stroke-linecap="round" stroke-linejoin="round"></path>
                        <path d="M38.8085201,80 L53.2633501,80 C59.1857016,77.6084435 63.6602405,72.3692513 65,65.9702151 C62.5360916,66.7383879 60.7931156,67.4712481 58.2665067,67.2073986 C56.4685128,67.0196451 54.122075,65.8123032 52.3510944,65.4131717 C49.8606684,64.851652 47.3796598,64.819821 44.9229385,65.5832689 C42.7576631,66.2564459 38.9770433,67.7656854 36.6938017,67.7656854 C30.8643858,67.7656854 31.0306785,66.59291 27,65.6133592 C28.2458326,72.1747835 32.7761328,77.5644272 38.8085201,80" id="Fill-49" fill="#F5F6F7"></path>
                        <path d="M38.8085201,80 L53.2633501,80 C59.1857016,77.6084435 63.6602405,72.3692513 65,65.9702151 C62.5360916,66.7383879 60.7931156,67.4712481 58.2665067,67.2073986 C56.4685128,67.0196451 54.122075,65.8123032 52.3510944,65.4131717 C49.8606684,64.851652 47.3796598,64.819821 44.9229385,65.5832689 C42.7576631,66.2564459 38.9770433,67.7656854 36.6938017,67.7656854 C30.8643858,67.7656854 31.0306785,66.59291 27,65.6133592 C28.2458326,72.1747835 32.7761328,77.5644272 38.8085201,80 Z" id="Stroke-51" stroke="#AEB1B9" stroke-linecap="round" stroke-linejoin="round"></path>
                    </g>
                </g>
                <polygon id="Line-5" fill="#AEB1B9" fill-rule="nonzero" points="161.019524 148.5 161.019524 149.5 -0.0495851875 149.5 -0.0495851875 148.5"></polygon>
            </g>
        </g>
    </g>
</svg>