<?xml version="1.0" encoding="UTF-8" standalone="no"?>
<svg width="150px" height="123px" viewBox="0 0 150 123" version="1.1" xmlns="http://www.w3.org/2000/svg" xmlns:xlink="http://www.w3.org/1999/xlink">
    <!-- Generator: Sketch 49.1 (51147) - http://www.bohemiancoding.com/sketch -->
    <title>Box</title>
    <desc>Created with Sketch.</desc>
    <defs>
        <polygon id="path-1" points="0 123.132867 149.925 123.132867 149.925 0.270752384 0 0.270752384"></polygon>
    </defs>
    <g id="Page-1" stroke="none" stroke-width="1" fill="none" fill-rule="evenodd">
        <g id="HomePage-Desktop-Mockup" transform="translate(-1290.000000, -352.000000)">
            <g id="Box" transform="translate(1290.000000, 352.000000)">
                <polygon id="Fill-1" fill="#FFFFFF" points="77 73.5846666 113.862862 86 126 49.4146405 89.1371384 37"></polygon>
                <polygon id="Stroke-2" stroke="#CECECE" stroke-linecap="round" stroke-linejoin="round" points="77 73.5846666 113.862862 86 126 49.4146405 89.1371384 37"></polygon>
                <polygon id="Fill-3" fill="#FFFFFF" points="49 92 87 92 87 55 49 55"></polygon>
                <polygon id="Stroke-4" stroke="#CECECE" stroke-linecap="round" stroke-linejoin="round" points="49 92 87 92 87 55 49 55"></polygon>
                <polygon id="Fill-5" fill="#FFFFFF" points="117 52.9850099 105.382066 91 77 82.0146387 88.6179337 44"></polygon>
                <polygon id="Stroke-6" stroke="#CECECE" stroke-linecap="round" stroke-linejoin="round" points="117 52.9850099 105.382066 91 77 82.0146387 88.6179337 44"></polygon>
                <g id="Group-110">
                    <path d="M126.470547,22.9450052 C129.014965,25.1701421 131.665081,28.2813458 128.999616,34.4376394 C126.5745,40.0387856 119.220314,39.1880494 119.220314,39.1880494 C119.220314,39.1880494 120.464616,41.3302815 118.377523,43.8912352 C116.267058,46.4808733 106.884733,43.2262478 106.884733,43.2262478 L108.079151,37.8395346 L97.7741512,35.7207398 C93.7942674,34.8934409 90.4119419,32.2177497 88.791593,28.4796877 C87.8751977,26.3654404 87.4095,23.7068898 87.9941512,20.4452681 C89.993686,9.28880068 101.171826,10.883931 101.171826,10.883931 C102.196709,11.0689801 103.07543,11.3796108 103.837291,11.7731462 C103.979267,11.3376336 104.198686,10.9566913 104.513686,10.6429124 C106.538337,8.62451286 108.774384,11.2827136 108.774384,11.2827136 C108.774384,11.2827136 108.014616,3.47112252 115.549151,1.30300459 C115.549151,1.30300459 126.896477,-1.53359887 130.014384,9.36191082 C131.928105,16.0481654 128.829384,20.6026823 126.470547,22.9450052 Z" id="Fill-7" fill="#EFEFEF"></path>
                    <path d="M126.470547,22.9450052 C128.829384,20.6026823 131.928105,16.0481654 130.014384,9.36191082 C126.896477,-1.53359887 115.549151,1.30300459 115.549151,1.30300459 C108.014616,3.47112252 108.774384,11.2827136 108.774384,11.2827136 C108.774384,11.2827136 106.538337,8.62451286 104.513686,10.6429124 C104.198686,10.9566913 103.979267,11.3376336 103.837291,11.7731462 C103.07543,11.3796108 102.196709,11.0689801 101.171826,10.883931 C101.171826,10.883931 89.993686,9.28880068 87.9941512,20.4452681 C87.4095,23.7068898 87.8751977,26.3654404 88.791593,28.4796877 C90.4119419,32.2177497 93.7942674,34.8934409 97.7741512,35.7207398 L108.079151,37.8395346 L106.884733,43.2262478 C106.884733,43.2262478 116.267058,46.4808733 118.377523,43.8912352 C120.464616,41.3302815 119.220314,39.1880494 119.220314,39.1880494 C119.220314,39.1880494 126.5745,40.0387856 128.999616,34.4376394 C131.665081,28.2813458 129.014965,25.1701421 126.470547,22.9450052 Z" id="Stroke-9" stroke="#CECECE" stroke-linecap="round" stroke-linejoin="round"></path>
                    <path d="M102.783,66.7719455 L112.51207,12.4850431" id="Fill-11" fill="#FFFFFF"></path>
                    <path d="M102.783,66.7719455 L112.51207,12.4850431" id="Stroke-13" stroke="#CECECE" stroke-linecap="round" stroke-linejoin="round"></path>
                    <path d="M109.13257,31.3424919 L121.061058,23.0250766" id="Fill-15" fill="#FFFFFF"></path>
                    <path d="M109.13257,31.3424919 L121.061058,23.0250766" id="Stroke-17" stroke="#CECECE" stroke-linecap="round" stroke-linejoin="round"></path>
                    <path d="M115.209314,27.1054969 L119.153267,27.8159596" id="Fill-19" fill="#FFFFFF"></path>
                    <path d="M115.209314,27.1054969 L119.153267,27.8159596" id="Stroke-21" stroke="#CECECE" stroke-linecap="round" stroke-linejoin="round"></path>
                    <path d="M93.7030116,28.5617879 L106.306849,46.7389276" id="Fill-23" fill="#FFFFFF"></path>
                    <path d="M93.7030116,28.5617879 L106.306849,46.7389276" id="Stroke-25" stroke="#CECECE" stroke-linecap="round" stroke-linejoin="round"></path>
                    <path d="M98.7536512,29.4718168 L97.8686512,34.4086752" id="Fill-27" fill="#FFFFFF"></path>
                    <path d="M98.7536512,29.4718168 L97.8686512,34.4086752" id="Stroke-29" stroke="#CECECE" stroke-linecap="round" stroke-linejoin="round"></path>
                    <path d="M102.705488,41.5450294 L96.781186,40.4770616" id="Fill-31" fill="#FFFFFF"></path>
                    <path d="M102.705488,41.5450294 L96.781186,40.4770616" id="Stroke-33" stroke="#CECECE" stroke-linecap="round" stroke-linejoin="round"></path>
                    <path d="M107.077709,17.1489103 L110.745384,22.4380266" id="Fill-35" fill="#FFFFFF"></path>
                    <path d="M107.077709,17.1489103 L110.745384,22.4380266" id="Stroke-37" stroke="#CECECE" stroke-linecap="round" stroke-linejoin="round"></path>
                    <path d="M107.915581,38.227648 L112.913372,34.7431978" id="Fill-39" fill="#FFFFFF"></path>
                    <path d="M107.915581,38.227648 L112.913372,34.7431978" id="Stroke-41" stroke="#CECECE" stroke-linecap="round" stroke-linejoin="round"></path>
                    <path d="M105.699244,50.5946305 L113.273547,45.3132099" id="Fill-43" fill="#FFFFFF"></path>
                    <path d="M105.699244,50.5946305 L113.273547,45.3132099" id="Stroke-45" stroke="#CECECE" stroke-linecap="round" stroke-linejoin="round"></path>
                    <polygon id="Fill-47" fill="#FFFFFF" points="109.691791 77.8015371 91.9565581 74.6053297 93.5374884 48.9573131 117.115047 53.2060967"></polygon>
                    <polygon id="Stroke-49" stroke="#CECECE" stroke-linecap="round" stroke-linejoin="round" points="109.691791 77.8015371 91.9565581 74.6053297 93.5374884 48.9573131 117.115047 53.2060967"></polygon>
                    <polygon id="Fill-51" fill="#EFEFEF" points="109.691791 77.8015371 91.9565581 74.6053297 93.5374884 48.9573131 117.115047 53.2060967"></polygon>
                    <polygon id="Stroke-53" stroke="#CECECE" stroke-linecap="round" stroke-linejoin="round" points="109.691791 77.8015371 91.9565581 74.6053297 93.5374884 48.9573131 117.115047 53.2060967"></polygon>
                    <polygon id="Fill-55" fill="#FFFFFF" points="119.058767 59.1868209 89.6392326 53.8851115 90.6166744 48.4308852 120.036209 53.7325946"></polygon>
                    <polygon id="Stroke-57" stroke="#CECECE" stroke-linecap="round" stroke-linejoin="round" points="119.058767 59.1868209 89.6392326 53.8851115 90.6166744 48.4308852 120.036209 53.7325946"></polygon>
                    <polygon id="Fill-59" fill="#EFEFEF" points="119.058767 59.1868209 89.6392326 53.8851115 90.6166744 48.4308852 120.036209 53.7325946"></polygon>
                    <polygon id="Stroke-61" stroke="#CECECE" stroke-linecap="round" stroke-linejoin="round" points="119.058767 59.1868209 89.6392326 53.8851115 90.6166744 48.4308852 120.036209 53.7325946"></polygon>
                    <path d="M43.5978488,68.0666596 C43.5978488,77.5744759 51.2837791,85.2818238 60.7648256,85.2818238 C70.2462209,85.2818238 77.9321512,77.5744759 77.9321512,68.0666596 C77.9321512,58.5588433 70.2462209,50.8514954 60.7648256,50.8514954 C51.2837791,50.8514954 43.5978488,58.5588433 43.5978488,68.0666596" id="Fill-63" fill="#EFEFEF"></path>
                    <path d="M43.5978488,68.0666596 C43.5978488,77.5744759 51.2837791,85.2818238 60.7648256,85.2818238 C70.2462209,85.2818238 77.9321512,77.5744759 77.9321512,68.0666596 C77.9321512,58.5588433 70.2462209,50.8514954 60.7648256,50.8514954 C51.2837791,50.8514954 43.5978488,58.5588433 43.5978488,68.0666596 Z" id="Stroke-65" stroke="#CECECE" stroke-linecap="round" stroke-linejoin="round"></path>
                    <polygon id="Fill-67" fill="#FFFFFF" points="38.1433605 92.7613409 73.3821977 80.3221228 58.9277791 39.1460723 23.6889419 51.5852904"></polygon>
                    <polygon id="Stroke-69" stroke="#CECECE" stroke-linecap="round" stroke-linejoin="round" points="38.1433605 92.7613409 73.3821977 80.3221228 58.9277791 39.1460723 23.6889419 51.5852904"></polygon>
                    <path d="M60.7649651,71.7748479 L56.5621744,56.5679388 C56.4432209,56.1380232 56.2346163,55.7374915 55.9499651,55.3943286 L34.3046163,30.6243334 C34.0454302,30.3119537 33.5957791,30.2391934 33.2514767,30.4539763 L28.0283372,33.7169973 C27.6840349,33.9317802 27.5511279,34.368692 27.7164767,34.7398396 L40.3450814,65.1421141 C40.5271744,65.5499917 40.7933372,65.9141432 41.1261279,66.2111312 L52.8847326,76.6977139 L60.7649651,71.7748479 Z" id="Fill-71" fill="#FFFFFF"></path>
                    <path d="M60.7649651,71.7748479 L56.5621744,56.5679388 C56.4432209,56.1380232 56.2346163,55.7374915 55.9499651,55.3943286 L34.3046163,30.6243334 C34.0454302,30.3119537 33.5957791,30.2391934 33.2514767,30.4539763 L28.0283372,33.7169973 C27.6840349,33.9317802 27.5511279,34.368692 27.7164767,34.7398396 L40.3450814,65.1421141 C40.5271744,65.5499917 40.7933372,65.9141432 41.1261279,66.2111312 L52.8847326,76.6977139 L60.7649651,71.7748479 Z" id="Stroke-73" stroke="#CECECE" stroke-linecap="round" stroke-linejoin="round"></path>
                    <path d="M44.9806047,59.2633592 C45.5959535,59.751693 45.8307209,60.6419576 45.1379302,61.2863063 C44.2389767,62.1227003 43.2507209,61.0823675 42.6803721,60.2403765 C41.6945581,58.7848201 42.9821163,58.3605015 44.9806047,59.2633592" id="Fill-75" fill="#EFEFEF"></path>
                    <path d="M44.9806047,59.2633592 C45.5959535,59.751693 45.8307209,60.6419576 45.1379302,61.2863063 C44.2389767,62.1227003 43.2507209,61.0823675 42.6803721,60.2403765 C41.6945581,58.7848201 42.9821163,58.3605015 44.9806047,59.2633592 Z" id="Stroke-77" stroke="#CECECE" stroke-linecap="round" stroke-linejoin="round"></path>
                    <path d="M45.1657674,67.9833 C45.2854186,66.5819641 45.5756512,65.1141643 46.2091395,63.8496038 C46.7271628,62.8152177 47.4673953,61.7311588 47.6575116,60.5718908 C47.9561163,58.748335 46.6954186,57.0458132 45.7800698,55.6021503 C44.7572791,53.9888299 43.4763488,51.4988875 45.5815814,50.0625705 C47.3187907,48.8774167 49.5297209,50.2168364 50.7834419,51.5289711 C52.2998372,53.1167554 52.5872791,54.9116268 52.5265814,57.0479121 C52.4704186,59.0036958 52.4058837,60.9818673 53.6344884,62.6235222 C54.218093,63.4025475 55.0347209,63.9748355 55.9720465,64.2312457 C56.9254186,64.4922034 58.0608837,64.5345303 58.9137907,65.0767347 L60.7650698,71.7748829 L52.8844884,76.6977489 L45.1549535,69.8040574 C45.1134419,69.2002865 45.1137907,68.5926678 45.1657674,67.9833" id="Fill-79" fill="#EFEFEF"></path>
                    <path d="M45.1657674,67.9833 C45.2854186,66.5819641 45.5756512,65.1141643 46.2091395,63.8496038 C46.7271628,62.8152177 47.4673953,61.7311588 47.6575116,60.5718908 C47.9561163,58.748335 46.6954186,57.0458132 45.7800698,55.6021503 C44.7572791,53.9888299 43.4763488,51.4988875 45.5815814,50.0625705 C47.3187907,48.8774167 49.5297209,50.2168364 50.7834419,51.5289711 C52.2998372,53.1167554 52.5872791,54.9116268 52.5265814,57.0479121 C52.4704186,59.0036958 52.4058837,60.9818673 53.6344884,62.6235222 C54.218093,63.4025475 55.0347209,63.9748355 55.9720465,64.2312457 C56.9254186,64.4922034 58.0608837,64.5345303 58.9137907,65.0767347 L60.7650698,71.7748829 L52.8844884,76.6977489 L45.1549535,69.8040574 C45.1134419,69.2002865 45.1137907,68.5926678 45.1657674,67.9833 Z" id="Stroke-81" stroke="#CECECE" stroke-linecap="round" stroke-linejoin="round"></path>
                    <path d="M38.4085814,47.0548754 C38.3402093,48.7042261 39.7924186,49.4699586 40.2204419,50.9153706 C40.6034651,52.2075661 40.4499767,53.7180426 39.1742791,54.4452961 C38.1902093,55.0063901 37.2424186,54.9930974 36.0734651,54.8153943 L27.7167209,34.7398396 C27.5510233,34.368692 27.6839302,33.9317802 28.0282326,33.7169973 L33.2517209,30.4539763 C33.5956744,30.2391934 34.0453256,30.3119537 34.3045116,30.6243334 L43.8242791,41.5250902 C42.4135814,43.5116572 38.518814,44.3956252 38.4085814,47.0548754" id="Fill-83" fill="#EFEFEF"></path>
                    <path d="M38.4085814,47.0548754 C38.3402093,48.7042261 39.7924186,49.4699586 40.2204419,50.9153706 C40.6034651,52.2075661 40.4499767,53.7180426 39.1742791,54.4452961 C38.1902093,55.0063901 37.2424186,54.9930974 36.0734651,54.8153943 L27.7167209,34.7398396 C27.5510233,34.368692 27.6839302,33.9317802 28.0282326,33.7169973 L33.2517209,30.4539763 C33.5956744,30.2391934 34.0453256,30.3119537 34.3045116,30.6243334 L43.8242791,41.5250902 C42.4135814,43.5116572 38.518814,44.3956252 38.4085814,47.0548754 Z" id="Stroke-85" stroke="#CECECE" stroke-linecap="round" stroke-linejoin="round"></path>
                    <path d="M31.3347209,43.4314109 L27.7165814,34.7396997 C27.5508837,34.3689018 27.6841395,33.9319901 28.028093,33.7168573 L33.2515814,30.4538364 C33.5955349,30.2390535 34.0455349,30.3118138 34.3047209,30.6245433 L40.4927442,37.7106299 L31.3347209,43.4314109 Z" id="Fill-87" fill="#FFFFFF"></path>
                    <path d="M31.3347209,43.4314109 L27.7165814,34.7396997 C27.5508837,34.3689018 27.6841395,33.9319901 28.028093,33.7168573 L33.2515814,30.4538364 C33.5955349,30.2390535 34.0455349,30.3118138 34.3047209,30.6245433 L40.4927442,37.7106299 L31.3347209,43.4314109 Z" id="Stroke-89" stroke="#CECECE" stroke-linecap="round" stroke-linejoin="round"></path>
                    <polygon id="Fill-91" fill="#FFFFFF" points="58.1492093 62.3101631 60.7651395 71.7749528 52.8845581 76.6978188 45.5659535 70.1707274"></polygon>
                    <polygon id="Stroke-93" stroke="#CECECE" stroke-linecap="round" stroke-linejoin="round" points="58.1492093 62.3101631 60.7651395 71.7749528 52.8845581 76.6978188 45.5659535 70.1707274"></polygon>
                    <path d="M70.7526628,81.7116003 L60.7651047,71.7749178 L52.8845233,76.6977839 L57.3754535,90.0681942 C57.5121977,90.6002541 58.1251047,90.8461701 58.5904535,90.5558284 L70.653593,83.019887 C71.1189419,82.7291955 71.1688256,82.0691054 70.7526628,81.7116003" id="Fill-95" fill="#FFFFFF"></path>
                    <path d="M70.7526628,81.7116003 L60.7651047,71.7749178 L52.8845233,76.6977839 L57.3754535,90.0681942 C57.5121977,90.6002541 58.1251047,90.8461701 58.5904535,90.5558284 L70.653593,83.019887 C71.1189419,82.7291955 71.1688256,82.0691054 70.7526628,81.7116003 Z" id="Stroke-97" stroke="#CECECE" stroke-linecap="round" stroke-linejoin="round"></path>
                    <mask id="mask-2" fill="white">
                        <use xlink:href="#path-1"></use>
                    </mask>
                    <g id="Clip-100"></g>
                    <polygon id="Fill-99" fill="#FFFFFF" mask="url(#mask-2)" points="27.9526744 122.433249 122.314535 122.433249 122.314535 63.4977306 27.9526744 63.4977306"></polygon>
                    <path d="M115.17593,97.9691965 L122.314535,82.0409807 L122.314535,63.4975907 L27.9523256,63.4975907 L27.9523256,122.433458 L122.314535,122.433458 L122.314535,118.842666 L32.8102326,118.842666 C31.7965116,118.842666 30.975,118.018516 30.975,117.00232 L30.975,97.9691965 L115.17593,97.9691965 Z" id="Fill-101" fill="#EFEFEF" mask="url(#mask-2)"></path>
                    <polygon id="Stroke-102" stroke="#CECECE" stroke-linecap="round" stroke-linejoin="round" mask="url(#mask-2)" points="27.9526744 122.433249 122.314535 122.433249 122.314535 63.4977306 27.9526744 63.4977306"></polygon>
                    <path d="M148.346442,85.725207 L124.590977,63.0211854 C124.072605,62.5255057 123.251442,62.545095 122.75714,63.0652614 L122.739,63.0841511 C122.244698,63.6046673 122.264233,64.4277685 122.782953,64.9234483 L146.538419,87.6274699 C147.05714,88.1227999 147.878302,88.1032105 148.372605,87.5833939 C148.378535,87.5770974 148.384465,87.570451 148.390395,87.5645042 C148.884698,87.0443378 148.865163,86.2208868 148.346442,85.725207" id="Fill-103" fill="#FFFFFF" mask="url(#mask-2)"></path>
                    <path d="M148.346442,85.725207 L124.590977,63.0211854 C124.072605,62.5255057 123.251442,62.545095 122.75714,63.0652614 L122.739,63.0841511 C122.244698,63.6046673 122.264233,64.4277685 122.782953,64.9234483 L146.538419,87.6274699 C147.05714,88.1227999 147.878302,88.1032105 148.372605,87.5833939 C148.378535,87.5770974 148.384465,87.570451 148.390395,87.5645042 C148.884698,87.0443378 148.865163,86.2208868 148.346442,85.725207 Z" id="Stroke-104" stroke="#CECECE" stroke-linecap="round" stroke-linejoin="round" mask="url(#mask-2)"></path>
                    <path d="M1.09984884,85.725207 L24.855314,63.0211854 C25.3740349,62.5255057 26.1951977,62.545095 26.6891512,63.0652614 L26.7076395,63.0841511 C27.2019419,63.6046673 27.1820581,64.4277685 26.6633372,64.9234483 L2.90787209,87.6274699 C2.38915116,88.1227999 1.56798837,88.1032105 1.07403488,87.5833939 C1.06775581,87.5770974 1.06182558,87.570451 1.05589535,87.5645042 C0.561593023,87.0443378 0.581476744,86.2208868 1.09984884,85.725207" id="Fill-105" fill="#FFFFFF" mask="url(#mask-2)"></path>
                    <path d="M1.09984884,85.725207 L24.855314,63.0211854 C25.3740349,62.5255057 26.1951977,62.545095 26.6891512,63.0652614 L26.7076395,63.0841511 C27.2019419,63.6046673 27.1820581,64.4277685 26.6633372,64.9234483 L2.90787209,87.6274699 C2.38915116,88.1227999 1.56798837,88.1032105 1.07403488,87.5833939 C1.06775581,87.5770974 1.06182558,87.570451 1.05589535,87.5645042 C0.561593023,87.0443378 0.581476744,86.2208868 1.09984884,85.725207 Z" id="Stroke-106" stroke="#CECECE" stroke-linecap="round" stroke-linejoin="round" mask="url(#mask-2)"></path>
                    <path d="M110.27686,89.7579134 L19.3465116,89.7579134 C18.2155814,89.7579134 17.4498837,88.6028431 17.8873256,87.557613 L27.9523256,63.4977306 L122.314535,63.4977306 L111.736047,88.7850938 C111.489419,89.3745224 110.914186,89.7579134 110.27686,89.7579134" id="Fill-107" fill="#FFFFFF" mask="url(#mask-2)"></path>
                    <path d="M110.27686,89.7579134 L19.3465116,89.7579134 C18.2155814,89.7579134 17.4498837,88.6028431 17.8873256,87.557613 L27.9523256,63.4977306 L122.314535,63.4977306 L111.736047,88.7850938 C111.489419,89.3745224 110.914186,89.7579134 110.27686,89.7579134 Z" id="Stroke-108" stroke="#CECECE" stroke-linecap="round" stroke-linejoin="round" mask="url(#mask-2)"></path>
                    <path d="M1.35073256,122.933319 C1.07459018,122.933319 0.850732558,122.709461 0.850732558,122.433319 C0.850732558,122.157176 1.07459018,121.933319 1.35073256,121.933319 L149.22736,121.933319 C149.503503,121.933319 149.72736,122.157176 149.72736,122.433319 C149.72736,122.709461 149.503503,122.933319 149.22736,122.933319 L1.35073256,122.933319 Z" id="Stroke-109" fill="#CECECE" fill-rule="nonzero" mask="url(#mask-2)"></path>
                </g>
            </g>
        </g>
    </g>
</svg>