<?xml version="1.0" encoding="UTF-8" standalone="no"?>
<svg width="151px" height="44px" viewBox="0 0 151 44" version="1.1" xmlns="http://www.w3.org/2000/svg" xmlns:xlink="http://www.w3.org/1999/xlink">
    <!-- Generator: Sketch 49.1 (51147) - http://www.bohemiancoding.com/sketch -->
    <title>Group 3</title>
    <desc>Created with Sketch.</desc>
    <defs></defs>
    <g id="Page-1" stroke="none" stroke-width="1" fill="none" fill-rule="evenodd">
        <g id="StyleGuide-Logo-Circles" transform="translate(-80.000000, -380.000000)">
            <g id="Group-3" transform="translate(80.000000, 380.000000)">
                <path d="M79.7197266,16.0703125 L79.7197266,20.0488281 L77.4228516,20.0488281 L77.2998047,18.3774414 L74.5517578,18.3774414 L74.5517578,28.8979492 L76.1513672,29.2055664 L76.1513672,31 L69.9580078,31 L69.9580078,29.2055664 L71.5576172,28.8979492 L71.5576172,18.3774414 L68.8198242,18.3774414 L68.6967773,20.0488281 L66.4101562,20.0488281 L66.4101562,16.0703125 L79.7197266,16.0703125 Z M86.0771484,31.215332 C84.4775311,31.215332 83.1992235,30.7026418 82.2421875,29.6772461 C81.2851515,28.6518503 80.8066406,27.3496173 80.8066406,25.7705078 L80.8066406,25.3603516 C80.8066406,23.7128824 81.259517,22.3559624 82.1652832,21.2895508 C83.0710495,20.2231392 84.2861252,19.6933593 85.8105469,19.7001953 C87.3076247,19.7001953 88.4697224,20.1513627 89.296875,21.0537109 C90.1240276,21.9560592 90.5375977,23.1762618 90.5375977,24.7143555 L90.5375977,26.3447266 L83.9135742,26.3447266 L83.8930664,26.40625 C83.9477542,27.137699 84.1921365,27.7392555 84.6262207,28.2109375 C85.0603049,28.6826195 85.6498986,28.918457 86.3950195,28.918457 C87.0581088,28.918457 87.6083962,28.8518073 88.0458984,28.7185059 C88.4834006,28.5852044 88.9619115,28.3750014 89.4814453,28.0878906 L90.2915039,29.9335938 C89.8334938,30.2959002 89.2404822,30.6000964 88.5124512,30.8461914 C87.7844202,31.0922864 86.9726607,31.215332 86.0771484,31.215332 Z M85.8105469,22.0073242 C85.2568332,22.0073242 84.8193375,22.2192362 84.4980469,22.6430664 C84.1767562,23.0668967 83.978516,23.62402 83.9033203,24.3144531 L83.934082,24.3657227 L87.6049805,24.3657227 L87.6049805,24.0991211 C87.6049805,23.4633757 87.4563003,22.9558124 87.1589355,22.576416 C86.8615708,22.1970196 86.4121124,22.0073242 85.8105469,22.0073242 Z M99.0175781,31 C98.9355465,30.8154288 98.8637698,30.6257334 98.8022461,30.4309082 C98.7407223,30.236083 98.6928713,30.0395518 98.6586914,29.8413086 C98.3032209,30.2514669 97.8708522,30.5830065 97.3615723,30.8359375 C96.8522924,31.0888685 96.2695345,31.215332 95.6132812,31.215332 C94.5263618,31.215332 93.6633333,30.9196807 93.0241699,30.3283691 C92.3850066,29.7370576 92.0654297,28.932134 92.0654297,27.9135742 C92.0654297,26.8745065 92.4824177,26.0712919 93.3164062,25.5039062 C94.1503948,24.9365206 95.3740154,24.652832 96.9873047,24.652832 L98.5151367,24.652832 L98.5151367,23.565918 C98.5151367,23.0327122 98.3613297,22.6191421 98.0537109,22.3251953 C97.7460922,22.0312485 97.2915069,21.8842773 96.6899414,21.8842773 C96.3481428,21.8842773 96.0439466,21.9235836 95.7773438,22.0021973 C95.5107409,22.0808109 95.295411,22.1748041 95.1313477,22.2841797 L94.9365234,23.4736328 L92.6806641,23.4736328 L92.690918,21.0126953 C93.2377957,20.6435528 93.8649867,20.3325208 94.5725098,20.0795898 C95.2800328,19.8266589 96.0507771,19.7001953 96.8847656,19.7001953 C98.2587959,19.7001953 99.3747516,20.0368619 100.232666,20.7102051 C101.09058,21.3835483 101.519531,22.3422789 101.519531,23.5864258 L101.519531,28.1699219 C101.519531,28.3408212 101.52124,28.5014641 101.524658,28.6518555 C101.528076,28.8022468 101.540039,28.9458001 101.560547,29.0825195 L102.473145,29.2055664 L102.473145,31 L99.0175781,31 Z M96.4233398,29.0004883 C96.874514,29.0004883 97.2846661,28.9030771 97.6538086,28.708252 C98.0229511,28.5134268 98.3100576,28.2690444 98.5151367,27.9750977 L98.5151367,26.2832031 L96.9873047,26.2832031 C96.3515593,26.2832031 95.8696305,26.4318833 95.5415039,26.729248 C95.2133773,27.0266128 95.0493164,27.383787 95.0493164,27.8007812 C95.0493164,28.1767597 95.1706531,28.4707021 95.4133301,28.6826172 C95.6560071,28.8945323 95.9926736,29.0004883 96.4233398,29.0004883 Z M103.139648,21.7099609 L103.139648,19.9052734 L107.518066,19.9052734 L107.641113,21.371582 C107.996584,20.8383762 108.442624,20.4265151 108.979248,20.1359863 C109.515872,19.8454575 110.136227,19.7001953 110.840332,19.7001953 C111.551273,19.7001953 112.159665,19.8574203 112.665527,20.171875 C113.171389,20.4863297 113.554198,20.9614226 113.813965,21.597168 C114.155763,21.0024384 114.600095,20.5375993 115.146973,20.2026367 C115.69385,19.8676741 116.336422,19.7001953 117.074707,19.7001953 C118.168463,19.7001953 119.031491,20.0778771 119.663818,20.833252 C120.296146,21.5886268 120.612305,22.7387618 120.612305,24.2836914 L120.612305,28.8979492 L122.058105,29.2055664 L122.058105,31 L116.326172,31 L116.326172,29.2055664 L117.618164,28.8979492 L117.618164,24.2734375 C117.618164,23.432613 117.481447,22.8481462 117.208008,22.5200195 C116.934569,22.1918929 116.527835,22.027832 115.987793,22.027832 C115.563963,22.027832 115.196535,22.1218252 114.885498,22.3098145 C114.574461,22.4978037 114.326661,22.7592757 114.14209,23.0942383 C114.14209,23.2241217 114.145508,23.3352046 114.152344,23.4274902 C114.15918,23.5197759 114.162598,23.6137691 114.162598,23.7094727 L114.162598,28.8979492 L115.372559,29.2055664 L115.372559,31 L109.96875,31 L109.96875,29.2055664 L111.178711,28.8979492 L111.178711,24.2734375 C111.178711,23.4531209 111.041994,22.873781 110.768555,22.5354004 C110.495116,22.1970198 110.084964,22.027832 109.538086,22.027832 C109.134764,22.027832 108.781007,22.1047356 108.476807,22.2585449 C108.172606,22.4123543 107.921388,22.6293931 107.723145,22.909668 L107.723145,28.8979492 L109.015137,29.2055664 L109.015137,31 L103.293457,31 L103.293457,29.2055664 L104.739258,28.8979492 L104.739258,22.0175781 L103.139648,21.7099609 Z M128.958984,16.0703125 L128.958984,17.875 L127.359375,18.1826172 L127.359375,25.9755859 C127.359375,26.9599659 127.624265,27.6965308 128.154053,28.1853027 C128.683841,28.6740747 129.410152,28.918457 130.333008,28.918457 C131.269536,28.918457 132.004392,28.6757837 132.537598,28.1904297 C133.070803,27.7050757 133.337402,26.9668018 133.337402,25.9755859 L133.337402,18.1826172 L131.748047,17.875 L131.748047,16.0703125 L137.931152,16.0703125 L137.931152,17.875 L136.331543,18.1826172 L136.331543,25.9755859 C136.331543,27.650399 135.779547,28.9423783 134.675537,29.8515625 C133.571528,30.7607467 132.124032,31.215332 130.333008,31.215332 C128.548819,31.215332 127.10816,30.7607467 126.010986,29.8515625 C124.913813,28.9423783 124.365234,27.650399 124.365234,25.9755859 L124.365234,18.1826172 L122.775879,17.875 L122.775879,16.0703125 L128.958984,16.0703125 Z M138.65918,21.7099609 L138.65918,19.9052734 L143.006836,19.9052734 L143.150391,21.1972656 C143.478517,20.7187476 143.87158,20.3496107 144.32959,20.0898438 C144.7876,19.8300768 145.320798,19.7001953 145.929199,19.7001953 C147.30323,19.7001953 148.369625,20.236811 149.128418,21.3100586 C149.887211,22.3833061 150.266602,23.7949131 150.266602,25.5449219 L150.266602,25.7602539 C150.266602,27.4008871 149.887211,28.7202099 149.128418,29.7182617 C148.369625,30.7163136 147.310065,31.215332 145.949707,31.215332 C145.368649,31.215332 144.852541,31.1076671 144.401367,30.892334 C143.950193,30.6770009 143.563966,30.3608419 143.242676,29.9438477 L143.242676,33.1533203 L144.688477,33.4609375 L144.688477,35.265625 L138.812988,35.265625 L138.812988,33.4609375 L140.258789,33.1533203 L140.258789,22.0175781 L138.65918,21.7099609 Z M147.272461,25.5449219 C147.272461,24.4990182 147.098146,23.6513704 146.749512,23.0019531 C146.400877,22.3525358 145.867679,22.027832 145.149902,22.027832 C144.698728,22.027832 144.314211,22.1201163 143.996338,22.3046875 C143.678465,22.4892587 143.427247,22.7524397 143.242676,23.0942383 L143.242676,27.9545898 C143.427247,28.2690445 143.678465,28.5083 143.996338,28.6723633 C144.314211,28.8364266 144.705564,28.918457 145.17041,28.918457 C145.895023,28.918457 146.426512,28.6347685 146.764893,28.0673828 C147.103273,27.4999972 147.272461,26.7309619 147.272461,25.7602539 L147.272461,25.5449219 Z" id="TeamUp" fill="#273043"></path>
                <g id="Group">
                    <path d="M43.8299204,19.2510286 C36.3143796,19.3419739 30.25,25.4523642 30.25,32.9767736 C30.25,36.018288 31.2408805,38.8287608 32.9179528,41.1040179 C29.7006559,42.9466713 25.973337,44 22,44 C9.8497355,44 0,34.1502645 0,22 C0,9.8497355 9.8497355,0 22,0 C33.219303,0 42.4771074,8.39817378 43.8299204,19.2510286 Z" id="Combined-Shape" fill="#ED1062"></path>
                    <ellipse id="Oval-3-Copy" fill="#9E0059" cx="44" cy="32.9814189" rx="11" ry="10.9814189"></ellipse>
                </g>
            </g>
        </g>
    </g>
</svg>