<?xml version="1.0" encoding="UTF-8" standalone="no"?>
<svg width="16px" height="16px" viewBox="0 0 16 16" version="1.1" xmlns="http://www.w3.org/2000/svg" xmlns:xlink="http://www.w3.org/1999/xlink">
    <!-- Generator: Sketch 49.1 (51147) - http://www.bohemiancoding.com/sketch -->
    <title>united_states</title>
    <desc>Created with Sketch.</desc>
    <defs></defs>
    <g id="Symbols" stroke="none" stroke-width="1" fill="none" fill-rule="evenodd">
        <g id="Footer" transform="translate(-1290.000000, -134.000000)">
            <g id="Group-3" transform="translate(1261.000000, 130.000000)">
                <g id="united_states" transform="translate(29.000000, 4.000000)">
                    <circle id="white" fill="#FFFFFF" cx="8" cy="8" r="8"></circle>
                    <path d="M8,3.73333315 L14.7684685,3.73333333 L14.7684683,3.73333295 C14.486344,3.2867207 14.1612368,2.86996888 13.798958,2.48888877 L13.7989586,2.48888889 L8,2.48888884 L8,3.73333315 L8,3.73333315 L8,3.73333315 L8,3.73333315 L8,3.73333315 Z M8,0 C9.57724987,0 11.0478917,0.456443204 12.2870403,1.24444444 L12.2870403,1.24444444 L8,1.24444444 L8,0 L8,0 L8,0 L8,0 L8,0 Z M8,6.22222222 L15.8017632,6.22222222 C15.7044346,5.79329554 15.5726412,5.37745893 15.4094486,4.97777778 L15.4094486,4.97777778 L8,4.97777778 L8,6.22222222 L8,6.22222222 L8,6.22222222 L8,6.22222222 L8,6.22222222 Z M0,8 C0,8.23964412 0.0105370551,8.47682716 0.0311731296,8.71111111 L15.9688268,8.71111111 C15.9894629,8.47682716 16,8.23964412 16,8 C16,7.82078477 15.994107,7.64294593 15.9825043,7.46666667 L15.9825043,7.46666667 L8,7.46666667 L8,8 L0,8 L0,8 L0,8 L0,8 L0,8 Z M15.7592676,9.95555556 C15.6513204,10.3852231 15.5086205,10.8010919 15.3343301,11.2 L15.3343301,11.2 L0.665669824,11.2 C0.491379498,10.8010919 0.34867964,10.3852231 0.240732455,9.95555556 L15.7592676,9.95555556 L15.7592676,9.95555556 L15.7592676,9.95555556 L15.7592676,9.95555556 L15.7592676,9.95555556 Z M14.6528454,12.4444444 C14.3522817,12.8934634 14.0074663,13.3103579 13.6246385,13.6888889 L13.6246385,13.6888889 L2.37536153,13.6888889 C1.99253367,13.3103579 1.64771831,12.8934634 1.34715458,12.4444444 L14.6528454,12.4444444 L14.6528454,12.4444444 L14.6528454,12.4444444 L14.6528454,12.4444444 L14.6528454,12.4444444 Z M11.9937859,14.9333335 C10.8184979,15.6117929 9.45458427,16 8,16 C6.54541573,16 5.18150216,15.6117929 4.00621412,14.9333335 L11.9937861,14.9333333 L11.9937859,14.9333335 L11.9937859,14.9333335 L11.9937859,14.9333335 L11.9937859,14.9333335 L11.9937859,14.9333335 Z" id="red" fill="#E94B35"></path>
                    <path d="M8,0 C3.58172179,0 2.38590599e-15,3.58172179 0,8 L8,8 L8,0 L8,0 L8,0 L8,0 L8,0 Z" id="blue" fill="#227FBB"></path>
                    <g id="stars" transform="translate(0.622222, 0.800000)" fill="#FFFFFF">
                        <polygon id="star" points="2.436831 2.26334367 2.1943228 2.39999999 2.24063773 2.11055728 2.04444444 1.90557281 2.31557693 1.86334364 2.43683101 1.6 2.55808516 1.86334372 2.82921764 1.90557302 2.63302427 2.11055733 2.67933921 2.4"></polygon>
                        <polygon id="star" points="2.436831 3.68556589 2.1943228 3.82222221 2.24063773 3.5327795 2.04444444 3.32779503 2.31557693 3.28556587 2.43683101 3.02222222 2.55808516 3.28556594 2.82921764 3.32779524 2.63302427 3.53277956 2.67933921 3.82222222"></polygon>
                        <polygon id="star" points="1.45905322 3.15223256 1.21654502 3.28888888 1.26285996 2.99944617 1.06666667 2.7944617 1.33779916 2.75223253 1.45905324 2.48888889 1.58030739 2.7522326 1.85143986 2.79446191 1.65524649 2.99944622 1.70156143 3.28888889"></polygon>
                        <polygon id="star" points="1.37016433 4.48556589 1.12765613 4.62222221 1.17397107 4.3327795 0.977777778 4.12779503 1.24891027 4.08556587 1.37016435 3.82222222 1.4914185 4.08556594 1.76255097 4.12779524 1.5663576 4.33277956 1.61267254 4.62222222"></polygon>
                        <polygon id="star" points="2.25905322 5.37445478 2.01654502 5.5111111 2.06285996 5.22166839 1.86666667 5.01668392 2.13779916 4.97445476 2.25905324 4.71111111 2.38030739 4.97445483 2.65143986 5.01668413 2.45524649 5.22166844 2.50156143 5.51111111"></polygon>
                        <polygon id="star" points="1.37016433 5.90778812 1.12765613 6.04444444 1.17397107 5.75500172 0.977777778 5.55001725 1.24891027 5.50778809 1.37016435 5.24444444 1.4914185 5.50778816 1.76255097 5.55001747 1.5663576 5.75500178 1.61267254 6.04444444"></polygon>
                        <polygon id="star" points="0.392386554 5.196677 0.149878351 5.33333332 0.196193285 5.04389061 0 4.83890614 0.271132486 4.79667698 0.392386567 4.53333333 0.513640723 4.79667705 0.784773188 4.83890636 0.588579823 5.04389067 0.634894765 5.33333333"></polygon>
                        <polygon id="star" points="0.392386554 6.61889923 0.149878351 6.75555555 0.196193285 6.46611284 0 6.26112836 0.271132486 6.2188992 0.392386567 5.95555556 0.513640723 6.21889927 0.784773188 6.26112858 0.588579823 6.46611289 0.634894765 6.75555556"></polygon>
                        <polygon id="star" points="2.436831 6.61889923 2.1943228 6.75555555 2.24063773 6.46611284 2.04444444 6.26112836 2.31557693 6.2188992 2.43683101 5.95555556 2.55808516 6.21889927 2.82921764 6.26112858 2.63302427 6.46611289 2.67933921 6.75555556"></polygon>
                        <polygon id="star" points="6.52571988 0.663343668 6.28321169 0.799999994 6.32952662 0.510557276 6.13333333 0.305572811 6.40446582 0.263343648 6.5257199 0 6.64697405 0.263343713 6.91810652 0.305573021 6.72191316 0.510557331 6.7682281 0.8"></polygon>
                        <polygon id="star" points="6.52571988 2.08556589 6.28321169 2.22222221 6.32952662 1.9327795 6.13333333 1.72779503 6.40446582 1.68556587 6.5257199 1.42222222 6.64697405 1.68556594 6.91810652 1.72779524 6.72191316 1.93277956 6.7682281 2.22222222"></polygon>
                        <polygon id="star" points="6.52571988 3.50778812 6.28321169 3.64444444 6.32952662 3.35500172 6.13333333 3.15001725 6.40446582 3.10778809 6.5257199 2.84444444 6.64697405 3.10778816 6.91810652 3.15001747 6.72191316 3.35500178 6.7682281 3.64444444"></polygon>
                        <polygon id="star" points="6.52571988 4.93001034 6.28321169 5.06666666 6.32952662 4.77722395 6.13333333 4.57223948 6.40446582 4.53001031 6.5257199 4.26666667 6.64697405 4.53001038 6.91810652 4.57223969 6.72191316 4.777224 6.7682281 5.06666667"></polygon>
                        <polygon id="star" points="5.45905322 1.46334367 5.21654502 1.59999999 5.26285996 1.31055728 5.06666667 1.10557281 5.33779916 1.06334364 5.45905324 0.8 5.58030739 1.06334372 5.85143986 1.10557302 5.65524649 1.31055733 5.70156143 1.6"></polygon>
                        <polygon id="star" points="5.45905322 2.88556589 5.21654502 3.02222221 5.26285996 2.7327795 5.06666667 2.52779503 5.33779916 2.48556587 5.45905324 2.22222222 5.58030739 2.48556594 5.85143986 2.52779524 5.65524649 2.73277956 5.70156143 3.02222222"></polygon>
                        <polygon id="star" points="5.45905322 4.30778812 5.21654502 4.44444444 5.26285996 4.15500172 5.06666667 3.95001725 5.33779916 3.90778809 5.45905324 3.64444444 5.58030739 3.90778816 5.85143986 3.95001747 5.65524649 4.15500178 5.70156143 4.44444444"></polygon>
                        <polygon id="star" points="5.45905322 5.73001034 5.21654502 5.86666666 5.26285996 5.57722395 5.06666667 5.37223948 5.33779916 5.33001031 5.45905324 5.06666667 5.58030739 5.33001038 5.85143986 5.37223969 5.65524649 5.577224 5.70156143 5.86666667"></polygon>
                        <polygon id="star" points="6.52571988 6.44112145 6.28321169 6.57777777 6.32952662 6.28833506 6.13333333 6.08335059 6.40446582 6.04112142 6.5257199 5.77777778 6.64697405 6.04112149 6.91810652 6.0833508 6.72191316 6.28833511 6.7682281 6.57777778"></polygon>
                        <polygon id="star" points="4.57016433 0.841121445 4.32765613 0.977777769 4.37397107 0.688335053 4.17777778 0.483350588 4.44891027 0.441121426 4.57016435 0.177777778 4.6914185 0.441121491 4.96255097 0.483350799 4.7663576 0.688335108 4.81267254 0.977777778"></polygon>
                        <polygon id="star" points="4.57016433 2.26334367 4.32765613 2.39999999 4.37397107 2.11055728 4.17777778 1.90557281 4.44891027 1.86334364 4.57016435 1.6 4.6914185 1.86334372 4.96255097 1.90557302 4.7663576 2.11055733 4.81267254 2.4"></polygon>
                        <polygon id="star" points="4.57016433 3.68556589 4.32765613 3.82222221 4.37397107 3.5327795 4.17777778 3.32779503 4.44891027 3.28556587 4.57016435 3.02222222 4.6914185 3.28556594 4.96255097 3.32779524 4.7663576 3.53277956 4.81267254 3.82222222"></polygon>
                        <polygon id="star" points="4.57016433 5.10778812 4.32765613 5.24444444 4.37397107 4.95500172 4.17777778 4.75001725 4.44891027 4.70778809 4.57016435 4.44444444 4.6914185 4.70778816 4.96255097 4.75001747 4.7663576 4.95500178 4.81267254 5.24444444"></polygon>
                        <polygon id="star" points="3.50349766 1.64112145 3.26098947 1.77777777 3.3073044 1.48833506 3.11111111 1.28335059 3.3822436 1.24112142 3.50349768 0.977777778 3.62475183 1.24112149 3.8958843 1.2833508 3.69969093 1.48833511 3.74600588 1.77777778"></polygon>
                        <polygon id="star" points="3.50349766 3.06334367 3.26098947 3.19999999 3.3073044 2.91055728 3.11111111 2.70557281 3.3822436 2.66334364 3.50349768 2.4 3.62475183 2.66334372 3.8958843 2.70557302 3.69969093 2.91055733 3.74600588 3.2"></polygon>
                        <polygon id="star" points="3.50349766 4.48556589 3.26098947 4.62222221 3.3073044 4.3327795 3.11111111 4.12779503 3.3822436 4.08556587 3.50349768 3.82222222 3.62475183 4.08556594 3.8958843 4.12779524 3.69969093 4.33277956 3.74600588 4.62222222"></polygon>
                        <polygon id="star" points="3.50349766 5.90778812 3.26098947 6.04444444 3.3073044 5.75500172 3.11111111 5.55001725 3.3822436 5.50778809 3.50349768 5.24444444 3.62475183 5.50778816 3.8958843 5.55001747 3.69969093 5.75500178 3.74600588 6.04444444"></polygon>
                        <polygon id="star" points="4.57016433 6.61889923 4.32765613 6.75555555 4.37397107 6.46611284 4.17777778 6.26112836 4.44891027 6.2188992 4.57016435 5.95555556 4.6914185 6.21889927 4.96255097 6.26112858 4.7663576 6.46611289 4.81267254 6.75555556"></polygon>
                    </g>
                </g>
            </g>
        </g>
    </g>
</svg>