<svg id="Blockchain_ISOMETRIC" data-name="Blockchain ISOMETRIC" xmlns="http://www.w3.org/2000/svg" xmlns:xlink="http://www.w3.org/1999/xlink" viewBox="0 0 1000 1000"><defs><style>.cls-1,.cls-5{fill:#171921;}.cls-2{fill:url(#linear-gradient);}.cls-3{fill:url(#linear-gradient-2);}.cls-4{fill:url(#linear-gradient-3);}.cls-20,.cls-5,.cls-6{stroke:#656a80;}.cls-12,.cls-19,.cls-20,.cls-22,.cls-24,.cls-26,.cls-28,.cls-30,.cls-32,.cls-34,.cls-36,.cls-38,.cls-40,.cls-42,.cls-44,.cls-46,.cls-48,.cls-5,.cls-50,.cls-52,.cls-54,.cls-6,.cls-61,.cls-64,.cls-8,.cls-9{stroke-miterlimit:10;}.cls-20,.cls-6,.cls-64,.cls-9{fill:none;}.cls-7{fill:url(#linear-gradient-4);}.cls-12,.cls-22,.cls-24,.cls-26,.cls-28,.cls-30,.cls-32,.cls-34,.cls-36,.cls-38,.cls-40,.cls-42,.cls-44,.cls-46,.cls-48,.cls-50,.cls-52,.cls-54,.cls-61,.cls-8{stroke-width:2px;}.cls-8{fill:url(#linear-gradient-5);stroke:url(#linear-gradient-6);}.cls-9{stroke:#000;stroke-width:0.5px;opacity:0.3;}.cls-10,.cls-62{fill:#f9603e;}.cls-11{fill:url(#linear-gradient-7);}.cls-12{fill:url(#linear-gradient-8);stroke:url(#linear-gradient-9);}.cls-13{opacity:0.2;}.cls-14{fill:url(#linear-gradient-10);}.cls-15{fill:url(#linear-gradient-11);}.cls-16{fill:url(#linear-gradient-12);}.cls-17{fill:url(#linear-gradient-13);}.cls-18{fill:url(#linear-gradient-14);}.cls-19{stroke-width:0.75px;fill:url(#linear-gradient-15);stroke:url(#linear-gradient-16);}.cls-20,.cls-63,.cls-64{opacity:0.5;}.cls-21{fill:url(#linear-gradient-17);}.cls-22{fill:url(#linear-gradient-18);stroke:url(#linear-gradient-19);}.cls-23{fill:url(#linear-gradient-20);}.cls-24{fill:url(#linear-gradient-21);stroke:url(#linear-gradient-22);}.cls-25{fill:url(#linear-gradient-23);}.cls-26{fill:url(#linear-gradient-24);stroke:url(#linear-gradient-25);}.cls-27{fill:url(#linear-gradient-26);}.cls-28{fill:url(#linear-gradient-27);stroke:url(#linear-gradient-28);}.cls-29{fill:url(#linear-gradient-29);}.cls-30{fill:url(#linear-gradient-30);stroke:url(#linear-gradient-31);}.cls-31{fill:url(#linear-gradient-32);}.cls-32{fill:url(#linear-gradient-33);stroke:url(#linear-gradient-34);}.cls-33{fill:url(#linear-gradient-35);}.cls-34{fill:url(#linear-gradient-36);stroke:url(#linear-gradient-37);}.cls-35{fill:url(#linear-gradient-38);}.cls-36{fill:url(#linear-gradient-39);stroke:url(#linear-gradient-40);}.cls-37{fill:url(#linear-gradient-41);}.cls-38{fill:url(#linear-gradient-42);stroke:url(#linear-gradient-43);}.cls-39{fill:url(#linear-gradient-44);}.cls-40{fill:url(#linear-gradient-45);stroke:url(#linear-gradient-46);}.cls-41{fill:url(#linear-gradient-47);}.cls-42{fill:url(#linear-gradient-48);stroke:url(#linear-gradient-49);}.cls-43{fill:url(#linear-gradient-50);}.cls-44{fill:url(#linear-gradient-51);stroke:url(#linear-gradient-52);}.cls-45{fill:url(#linear-gradient-53);}.cls-46{fill:url(#linear-gradient-54);stroke:url(#linear-gradient-55);}.cls-47{fill:url(#linear-gradient-56);}.cls-48{fill:url(#linear-gradient-57);stroke:url(#linear-gradient-58);}.cls-49{fill:url(#linear-gradient-59);}.cls-50{fill:url(#linear-gradient-60);stroke:url(#linear-gradient-61);}.cls-51{fill:url(#linear-gradient-62);}.cls-52{fill:url(#linear-gradient-63);stroke:url(#linear-gradient-64);}.cls-53{fill:url(#linear-gradient-65);}.cls-54{fill:url(#linear-gradient-66);stroke:url(#linear-gradient-67);}.cls-55{fill:url(#linear-gradient-68);}.cls-56{fill:url(#linear-gradient-69);}.cls-57{fill:url(#linear-gradient-70);}.cls-58{fill:url(#linear-gradient-71);}.cls-59{fill:url(#linear-gradient-72);}.cls-60{fill:url(#linear-gradient-73);}.cls-61{fill:url(#linear-gradient-74);stroke:url(#linear-gradient-75);}.cls-62{opacity:0.1;}.cls-63{fill:url(#linear-gradient-76);}.cls-64{stroke:#f9603e;}.cls-65{fill:url(#linear-gradient-77);}</style><linearGradient id="linear-gradient" x1="-150.53" y1="-464.35" x2="-150.53" y2="-68.43" gradientTransform="matrix(0.87, 0.5, -1, 0.58, 366.49, 838.15)" gradientUnits="userSpaceOnUse"><stop offset="0" stop-color="#fa603e"/><stop offset="1" stop-color="#ee3006"/></linearGradient><linearGradient id="linear-gradient-2" x1="37.86" y1="-267.05" x2="37.86" y2="-266.19" xlink:href="#linear-gradient"/><linearGradient id="linear-gradient-3" x1="-339.28" y1="-267.05" x2="-339.28" y2="-266.19" xlink:href="#linear-gradient"/><linearGradient id="linear-gradient-4" x1="737.07" y1="520.12" x2="737.07" y2="443.18" gradientUnits="userSpaceOnUse"><stop offset="0.06" stop-color="#444853"/><stop offset="1" stop-color="#2a2a34"/></linearGradient><linearGradient id="linear-gradient-5" x1="645.54" y1="461.26" x2="829.61" y2="461.26" gradientUnits="userSpaceOnUse"><stop offset="0" stop-color="#343843"/><stop offset="0.94" stop-color="#292c33"/></linearGradient><linearGradient id="linear-gradient-6" x1="737.57" y1="517.18" x2="737.57" y2="405.35" gradientUnits="userSpaceOnUse"><stop offset="0" stop-color="#fff"/><stop offset="0.43" stop-color="#96f6c5" stop-opacity="0"/></linearGradient><linearGradient id="linear-gradient-7" x1="509.75" y1="690.74" x2="509.75" y2="596.66" xlink:href="#linear-gradient-4"/><linearGradient id="linear-gradient-8" x1="374.03" y1="597.52" x2="645.57" y2="597.52" xlink:href="#linear-gradient-5"/><linearGradient id="linear-gradient-9" x1="509.8" y1="681.31" x2="509.8" y2="513.72" xlink:href="#linear-gradient-6"/><linearGradient id="linear-gradient-10" x1="448.16" y1="583.33" x2="575.94" y2="583.33" xlink:href="#linear-gradient-4"/><linearGradient id="linear-gradient-11" x1="447.74" y1="572.45" x2="575.65" y2="572.45" gradientUnits="userSpaceOnUse"><stop offset="0" stop-color="#f13a12"/><stop offset="0.54" stop-color="#fa603e"/><stop offset="1" stop-color="#ee3006"/></linearGradient><linearGradient id="linear-gradient-12" x1="447.74" y1="564.25" x2="575.65" y2="564.25" xlink:href="#linear-gradient-4"/><linearGradient id="linear-gradient-13" x1="447.74" y1="553.93" x2="575.65" y2="553.93" xlink:href="#linear-gradient-11"/><linearGradient id="linear-gradient-14" x1="447.74" y1="545.51" x2="575.65" y2="545.51" xlink:href="#linear-gradient-4"/><linearGradient id="linear-gradient-15" x1="447.92" y1="526.98" x2="575.83" y2="526.98" xlink:href="#linear-gradient-5"/><linearGradient id="linear-gradient-16" x1="511.87" y1="567.02" x2="511.87" y2="486.94" xlink:href="#linear-gradient-6"/><linearGradient id="linear-gradient-17" x1="264.58" y1="521.44" x2="264.58" y2="441.88" xlink:href="#linear-gradient-4"/><linearGradient id="linear-gradient-18" x1="172.54" y1="461.58" x2="356.61" y2="461.58" xlink:href="#linear-gradient-5"/><linearGradient id="linear-gradient-19" x1="264.58" y1="517.5" x2="264.58" y2="405.66" xlink:href="#linear-gradient-6"/><linearGradient id="linear-gradient-20" x1="264.58" y1="491.44" x2="264.58" y2="411.88" xlink:href="#linear-gradient-4"/><linearGradient id="linear-gradient-21" x1="172.54" y1="431.58" x2="356.61" y2="431.58" xlink:href="#linear-gradient-5"/><linearGradient id="linear-gradient-22" x1="264.58" y1="487.5" x2="264.58" y2="375.66" xlink:href="#linear-gradient-6"/><linearGradient id="linear-gradient-23" x1="264.58" y1="461.44" x2="264.58" y2="381.88" xlink:href="#linear-gradient-4"/><linearGradient id="linear-gradient-24" x1="172.54" y1="401.58" x2="356.61" y2="401.58" xlink:href="#linear-gradient-5"/><linearGradient id="linear-gradient-25" x1="264.58" y1="457.5" x2="264.58" y2="345.66" xlink:href="#linear-gradient-6"/><linearGradient id="linear-gradient-26" x1="264.58" y1="431.44" x2="264.58" y2="351.88" xlink:href="#linear-gradient-4"/><linearGradient id="linear-gradient-27" x1="172.54" y1="371.58" x2="356.61" y2="371.58" xlink:href="#linear-gradient-5"/><linearGradient id="linear-gradient-28" x1="264.58" y1="427.5" x2="264.58" y2="315.66" xlink:href="#linear-gradient-6"/><linearGradient id="linear-gradient-29" x1="264.58" y1="401.44" x2="264.58" y2="321.88" xlink:href="#linear-gradient-4"/><linearGradient id="linear-gradient-30" x1="172.54" y1="341.58" x2="356.61" y2="341.58" xlink:href="#linear-gradient-5"/><linearGradient id="linear-gradient-31" x1="264.58" y1="397.5" x2="264.58" y2="285.66" xlink:href="#linear-gradient-6"/><linearGradient id="linear-gradient-32" x1="264.58" y1="371.44" x2="264.58" y2="291.88" xlink:href="#linear-gradient-4"/><linearGradient id="linear-gradient-33" x1="172.54" y1="311.58" x2="356.61" y2="311.58" xlink:href="#linear-gradient-5"/><linearGradient id="linear-gradient-34" x1="264.58" y1="367.5" x2="264.58" y2="255.66" xlink:href="#linear-gradient-6"/><linearGradient id="linear-gradient-35" x1="737.07" y1="490.12" x2="737.07" y2="413.18" xlink:href="#linear-gradient-4"/><linearGradient id="linear-gradient-36" x1="645.54" y1="431.26" x2="829.61" y2="431.26" xlink:href="#linear-gradient-5"/><linearGradient id="linear-gradient-37" x1="737.57" y1="487.18" x2="737.57" y2="375.35" xlink:href="#linear-gradient-6"/><linearGradient id="linear-gradient-38" x1="737.07" y1="460.12" x2="737.07" y2="383.18" xlink:href="#linear-gradient-4"/><linearGradient id="linear-gradient-39" x1="645.54" y1="401.26" x2="829.61" y2="401.26" xlink:href="#linear-gradient-5"/><linearGradient id="linear-gradient-40" x1="737.57" y1="457.18" x2="737.57" y2="345.35" xlink:href="#linear-gradient-6"/><linearGradient id="linear-gradient-41" x1="737.07" y1="430.12" x2="737.07" y2="353.18" xlink:href="#linear-gradient-4"/><linearGradient id="linear-gradient-42" x1="645.54" y1="371.26" x2="829.61" y2="371.26" xlink:href="#linear-gradient-5"/><linearGradient id="linear-gradient-43" x1="737.57" y1="427.18" x2="737.57" y2="315.35" xlink:href="#linear-gradient-6"/><linearGradient id="linear-gradient-44" x1="737.07" y1="400.12" x2="737.07" y2="323.18" xlink:href="#linear-gradient-4"/><linearGradient id="linear-gradient-45" x1="645.54" y1="341.26" x2="829.61" y2="341.26" xlink:href="#linear-gradient-5"/><linearGradient id="linear-gradient-46" x1="737.57" y1="397.18" x2="737.57" y2="285.35" xlink:href="#linear-gradient-6"/><linearGradient id="linear-gradient-47" x1="737.07" y1="370.12" x2="737.07" y2="293.18" xlink:href="#linear-gradient-4"/><linearGradient id="linear-gradient-48" x1="645.54" y1="311.26" x2="829.61" y2="311.26" xlink:href="#linear-gradient-5"/><linearGradient id="linear-gradient-49" x1="737.57" y1="367.18" x2="737.57" y2="255.35" xlink:href="#linear-gradient-6"/><linearGradient id="linear-gradient-50" x1="735.58" y1="805.44" x2="735.58" y2="725.88" xlink:href="#linear-gradient-4"/><linearGradient id="linear-gradient-51" x1="643.54" y1="745.58" x2="827.61" y2="745.58" xlink:href="#linear-gradient-5"/><linearGradient id="linear-gradient-52" x1="735.58" y1="801.5" x2="735.58" y2="689.66" xlink:href="#linear-gradient-6"/><linearGradient id="linear-gradient-53" x1="735.58" y1="775.44" x2="735.58" y2="695.88" xlink:href="#linear-gradient-4"/><linearGradient id="linear-gradient-54" x1="643.54" y1="715.58" x2="827.61" y2="715.58" xlink:href="#linear-gradient-5"/><linearGradient id="linear-gradient-55" x1="735.58" y1="771.5" x2="735.58" y2="659.66" xlink:href="#linear-gradient-6"/><linearGradient id="linear-gradient-56" x1="735.58" y1="745.44" x2="735.58" y2="665.88" xlink:href="#linear-gradient-4"/><linearGradient id="linear-gradient-57" x1="643.54" y1="685.58" x2="827.61" y2="685.58" xlink:href="#linear-gradient-5"/><linearGradient id="linear-gradient-58" x1="735.58" y1="741.5" x2="735.58" y2="629.66" xlink:href="#linear-gradient-6"/><linearGradient id="linear-gradient-59" x1="735.58" y1="715.44" x2="735.58" y2="635.88" xlink:href="#linear-gradient-4"/><linearGradient id="linear-gradient-60" x1="643.54" y1="655.58" x2="827.61" y2="655.58" xlink:href="#linear-gradient-5"/><linearGradient id="linear-gradient-61" x1="735.58" y1="711.5" x2="735.58" y2="599.66" xlink:href="#linear-gradient-6"/><linearGradient id="linear-gradient-62" x1="735.58" y1="685.44" x2="735.58" y2="605.88" xlink:href="#linear-gradient-4"/><linearGradient id="linear-gradient-63" x1="643.54" y1="625.58" x2="827.61" y2="625.58" xlink:href="#linear-gradient-5"/><linearGradient id="linear-gradient-64" x1="735.58" y1="681.5" x2="735.58" y2="569.66" xlink:href="#linear-gradient-6"/><linearGradient id="linear-gradient-65" x1="735.58" y1="655.44" x2="735.58" y2="575.88" xlink:href="#linear-gradient-4"/><linearGradient id="linear-gradient-66" x1="643.54" y1="595.58" x2="827.61" y2="595.58" xlink:href="#linear-gradient-5"/><linearGradient id="linear-gradient-67" x1="735.58" y1="651.5" x2="735.58" y2="539.66" xlink:href="#linear-gradient-6"/><linearGradient id="linear-gradient-68" x1="278.34" y1="763.86" x2="278.34" y2="709.26" xlink:href="#linear-gradient-4"/><linearGradient id="linear-gradient-69" x1="278.34" y1="758.96" x2="278.34" y2="704.36" xlink:href="#linear-gradient-5"/><linearGradient id="linear-gradient-70" x1="255.74" y1="554.71" x2="303.23" y2="554.71" xlink:href="#linear-gradient-4"/><linearGradient id="linear-gradient-71" x1="572.76" y1="259.66" x2="620.24" y2="259.66" xlink:href="#linear-gradient-4"/><linearGradient id="linear-gradient-72" x1="-115.84" y1="-81.19" x2="-68.35" y2="-81.19" gradientTransform="matrix(0.87, 0.5, -1, 0.58, 427.7, 397.03)" xlink:href="#linear-gradient-4"/><linearGradient id="linear-gradient-73" x1="560.32" y1="581.53" x2="560.32" y2="504.58" xlink:href="#linear-gradient-4"/><linearGradient id="linear-gradient-74" x1="468.79" y1="522.67" x2="652.85" y2="522.67" xlink:href="#linear-gradient-5"/><linearGradient id="linear-gradient-75" x1="560.82" y1="578.58" x2="560.82" y2="466.75" xlink:href="#linear-gradient-6"/><linearGradient id="linear-gradient-76" x1="531.6" y1="489.59" x2="536.09" y2="401.86" gradientUnits="userSpaceOnUse"><stop offset="0" stop-color="#f9603e"/><stop offset="1" stop-color="#f9603e" stop-opacity="0"/></linearGradient><linearGradient id="linear-gradient-77" x1="-114.78" y1="-103.96" x2="-67.29" y2="-103.96" gradientTransform="matrix(0.87, 0.5, -1, 0.58, 427.7, 397.03)" xlink:href="#linear-gradient-4"/></defs><rect class="cls-1" width="1000" height="1000"/><g id="Track"><path class="cls-2" d="M707.66,578.25,632.23,534.7,700.91,495l-.86-.5L631.37,534.2l-75.43-43.55c-28.89-16.68-72.77-18.48-97.81-4L290.88,583.19c-25.05,14.46-21.93,39.79,7,56.47l75.43,43.55-69.15,39.92.87.5,69.14-39.92,75.43,43.55c28.89,16.68,72.77,18.48,97.81,4l167.25-96.56C739.67,620.26,736.55,594.92,707.66,578.25ZM546.51,730.78c-24.57,14.19-67.68,12.38-96.09-4L298.7,639.16c-28.41-16.4-31.53-41.28-7-55.47L459,487.13c24.58-14.19,67.68-12.39,96.09,4L706.8,578.74c28.41,16.41,31.53,41.29,7,55.48Z"/><polygon class="cls-3" points="631.45 682.76 630.59 683.26 700.35 723.53 701.21 723.03 631.45 682.76"/><polygon class="cls-4" points="303.98 494.69 373.74 534.96 374.6 534.47 304.84 494.19 303.98 494.69"/></g><path class="cls-5" d="M303,402.14a18.78,18.78,0,0,0-18.82-.17L154.82,475.26a8.8,8.8,0,0,0,0,15.19l67.46,39.69a21.47,21.47,0,0,0,21.43.19l126.53-75.64a7.48,7.48,0,0,0-.16-12.79Z"/><path class="cls-5" d="M775,685.14a18.78,18.78,0,0,0-18.82-.17L626.82,758.26a8.8,8.8,0,0,0,0,15.19l67.46,39.69a21.47,21.47,0,0,0,21.43.19l126.53-75.64a7.48,7.48,0,0,0-.16-12.79Z"/><path class="cls-6" d="M718.75,400.71a18.76,18.76,0,0,0-18.82-.18l-69.3,39.29a8.81,8.81,0,0,0,0,15.2L758.07,528.7a21.47,21.47,0,0,0,21.43.2L846,487.25a7.49,7.49,0,0,0-.16-12.79Z"/><g id="Plate_1" data-name="Plate 1"><path class="cls-7" d="M645.56,443.18v3.49a8.83,8.83,0,0,0,4.46,7.68L760.67,518a15.93,15.93,0,0,0,16.11-.17l47.51-28.52a8.86,8.86,0,0,0,4.29-7.59l-62-38.18-59.8,35Z"/><path class="cls-8" d="M714.12,408.29a13.93,13.93,0,0,0-14-.13l-51.38,29.13a6.53,6.53,0,0,0,0,11.27l113,65.42a15.93,15.93,0,0,0,15.89.15L827,483.25a5.56,5.56,0,0,0-.12-9.49Z"/><path class="cls-9" d="M711.82,418.29a10,10,0,0,0-10-.09L665.17,439a4.66,4.66,0,0,0,0,8l97.72,55a11.37,11.37,0,0,0,11.34.1l35.22-22a4,4,0,0,0-.08-6.77Z"/><ellipse class="cls-10" cx="707.63" cy="431.17" rx="9.85" ry="6.22"/><ellipse class="cls-10" cx="686.83" cy="442.06" rx="9.85" ry="6.22"/><ellipse class="cls-10" cx="727.84" cy="442.22" rx="9.85" ry="6.22"/><ellipse class="cls-10" cx="707.04" cy="453.1" rx="9.85" ry="6.22"/><ellipse class="cls-10" cx="727.84" cy="443.22" rx="9.85" ry="6.22"/><ellipse class="cls-10" cx="707.04" cy="454.1" rx="9.85" ry="6.22"/><ellipse class="cls-10" cx="748.84" cy="454.22" rx="9.85" ry="6.22"/><ellipse class="cls-10" cx="728.04" cy="465.1" rx="9.85" ry="6.22"/><ellipse class="cls-10" cx="770.84" cy="465.22" rx="9.85" ry="6.22"/><ellipse class="cls-10" cx="750.04" cy="476.1" rx="9.85" ry="6.22"/><ellipse class="cls-10" cx="790.84" cy="476.22" rx="9.85" ry="6.22"/><ellipse class="cls-10" cx="770.04" cy="487.1" rx="9.85" ry="6.22"/></g><g id="Microscope"><path class="cls-11" d="M374,596.66v7.84a19.86,19.86,0,0,0,10,17.23L493.14,686a35.76,35.76,0,0,0,36.14-.39l106.56-64a19.87,19.87,0,0,0,9.63-17v-7.13L511.33,676.08Z"/><path class="cls-12" d="M527.85,519.07a31.21,31.21,0,0,0-31.3-.29L381.29,584.12a14.65,14.65,0,0,0,0,25.27l112.2,66a35.7,35.7,0,0,0,35.63.32l110.65-69.25a12.45,12.45,0,0,0-.26-21.27Z"/><ellipse class="cls-13" cx="498.97" cy="601.63" rx="81.31" ry="33.71"/><path class="cls-14" d="M448.58,538.41s-.42,48.2-.42,57.12S464,628.25,513.6,628.25s62.27-22.8,62.27-34.7.07-53.09.07-53.09Z"/><ellipse class="cls-15" cx="511.7" cy="572.45" rx="63.96" ry="39.66"/><ellipse class="cls-16" cx="511.7" cy="564.25" rx="63.96" ry="39.66"/><ellipse class="cls-17" cx="511.7" cy="553.93" rx="63.96" ry="39.66"/><ellipse class="cls-18" cx="511.7" cy="545.51" rx="63.96" ry="39.66"/><ellipse class="cls-19" cx="511.87" cy="526.98" rx="63.96" ry="39.66"/><ellipse class="cls-20" cx="510.92" cy="525.91" rx="46.88" ry="26.1"/><ellipse class="cls-20" cx="511.7" cy="524.44" rx="31.66" ry="17.63"/><ellipse class="cls-10" cx="511.87" cy="524.68" rx="12.48" ry="7.88"/></g><g id="Plate_Hotel" data-name="Plate Hotel"><path class="cls-21" d="M172.57,479.5V483a8.84,8.84,0,0,0,4.46,7.68l48.64,28.67a15.93,15.93,0,0,0,16.11-.17l110.51-66.52a8.84,8.84,0,0,0,4.29-7.59v-3.18l-122.8,73Z"/><path class="cls-22" d="M304.12,408.61a13.89,13.89,0,0,0-13.95-.14L175.78,473.61a6.52,6.52,0,0,0,0,11.26l50,29.43a15.91,15.91,0,0,0,15.89.14L354,447.57a5.56,5.56,0,0,0-.11-9.49Z"/><path class="cls-9" d="M302.82,417.61a9.93,9.93,0,0,0-10-.09l-100.69,57.8a4.66,4.66,0,0,0,0,8l35.71,21a11.37,11.37,0,0,0,11.34.1l99.22-59a4,4,0,0,0-.08-6.78Z"/><ellipse class="cls-10" cx="232.63" cy="490.49" rx="9.85" ry="6.22"/><ellipse class="cls-10" cx="211.63" cy="478.49" rx="9.85" ry="6.22"/><ellipse class="cls-10" cx="232.63" cy="489.49" rx="9.85" ry="6.22"/><ellipse class="cls-10" cx="211.63" cy="477.49" rx="9.85" ry="6.22"/><ellipse class="cls-10" cx="254.63" cy="478.49" rx="9.85" ry="6.22"/><ellipse class="cls-10" cx="233.63" cy="466.49" rx="9.85" ry="6.22"/><ellipse class="cls-10" cx="275.63" cy="465.49" rx="9.85" ry="6.22"/><ellipse class="cls-10" cx="254.63" cy="453.49" rx="9.85" ry="6.22"/><ellipse class="cls-10" cx="296.63" cy="454.49" rx="9.85" ry="6.22"/><ellipse class="cls-10" cx="275.63" cy="442.49" rx="9.85" ry="6.22"/><ellipse class="cls-10" cx="316.63" cy="442.49" rx="9.85" ry="6.22"/><ellipse class="cls-10" cx="295.63" cy="430.49" rx="9.85" ry="6.22"/><path class="cls-23" d="M172.57,449.5V453a8.84,8.84,0,0,0,4.46,7.68l48.64,28.67a15.93,15.93,0,0,0,16.11-.17l110.51-66.52a8.84,8.84,0,0,0,4.29-7.59v-3.18l-122.8,73Z"/><path class="cls-24" d="M304.12,378.61a13.89,13.89,0,0,0-13.95-.14L175.78,443.61a6.52,6.52,0,0,0,0,11.26l50,29.43a15.91,15.91,0,0,0,15.89.14L354,417.57a5.56,5.56,0,0,0-.11-9.49Z"/><path class="cls-9" d="M302.82,387.61a9.93,9.93,0,0,0-10-.09l-100.69,57.8a4.66,4.66,0,0,0,0,8l35.71,21a11.37,11.37,0,0,0,11.34.1l99.22-59a4,4,0,0,0-.08-6.78Z"/><ellipse class="cls-10" cx="232.63" cy="460.49" rx="9.85" ry="6.22"/><ellipse class="cls-10" cx="211.63" cy="448.49" rx="9.85" ry="6.22"/><ellipse class="cls-10" cx="232.63" cy="459.49" rx="9.85" ry="6.22"/><ellipse class="cls-10" cx="211.63" cy="447.49" rx="9.85" ry="6.22"/><ellipse class="cls-10" cx="254.63" cy="448.49" rx="9.85" ry="6.22"/><ellipse class="cls-10" cx="233.63" cy="436.49" rx="9.85" ry="6.22"/><ellipse class="cls-10" cx="275.63" cy="435.49" rx="9.85" ry="6.22"/><ellipse class="cls-10" cx="254.63" cy="423.49" rx="9.85" ry="6.22"/><ellipse class="cls-10" cx="296.63" cy="424.49" rx="9.85" ry="6.22"/><ellipse class="cls-10" cx="275.63" cy="412.49" rx="9.85" ry="6.22"/><ellipse class="cls-10" cx="316.63" cy="412.49" rx="9.85" ry="6.22"/><ellipse class="cls-10" cx="295.63" cy="400.49" rx="9.85" ry="6.22"/><path class="cls-25" d="M172.57,419.5V423a8.84,8.84,0,0,0,4.46,7.68l48.64,28.67a15.93,15.93,0,0,0,16.11-.17l110.51-66.52a8.84,8.84,0,0,0,4.29-7.59v-3.18l-122.8,73Z"/><path class="cls-26" d="M304.12,348.61a13.89,13.89,0,0,0-13.95-.14L175.78,413.61a6.52,6.52,0,0,0,0,11.26l50,29.43a15.91,15.91,0,0,0,15.89.14L354,387.57a5.56,5.56,0,0,0-.11-9.49Z"/><path class="cls-9" d="M302.82,357.61a9.93,9.93,0,0,0-10-.09l-100.69,57.8a4.66,4.66,0,0,0,0,8l35.71,21a11.37,11.37,0,0,0,11.34.1l99.22-59a4,4,0,0,0-.08-6.78Z"/><ellipse class="cls-10" cx="232.63" cy="430.49" rx="9.85" ry="6.22"/><ellipse class="cls-10" cx="211.63" cy="418.49" rx="9.85" ry="6.22"/><ellipse class="cls-10" cx="232.63" cy="429.49" rx="9.85" ry="6.22"/><ellipse class="cls-10" cx="211.63" cy="417.49" rx="9.85" ry="6.22"/><ellipse class="cls-10" cx="254.63" cy="418.49" rx="9.85" ry="6.22"/><ellipse class="cls-10" cx="233.63" cy="406.49" rx="9.85" ry="6.22"/><ellipse class="cls-10" cx="275.63" cy="405.49" rx="9.85" ry="6.22"/><ellipse class="cls-10" cx="254.63" cy="393.49" rx="9.85" ry="6.22"/><ellipse class="cls-10" cx="296.63" cy="394.49" rx="9.85" ry="6.22"/><ellipse class="cls-10" cx="275.63" cy="382.49" rx="9.85" ry="6.22"/><ellipse class="cls-10" cx="316.63" cy="382.49" rx="9.85" ry="6.22"/><ellipse class="cls-10" cx="295.63" cy="370.49" rx="9.85" ry="6.22"/><path class="cls-27" d="M172.57,389.5V393a8.84,8.84,0,0,0,4.46,7.68l48.64,28.67a15.93,15.93,0,0,0,16.11-.17l110.51-66.52a8.84,8.84,0,0,0,4.29-7.59v-3.18l-122.8,73Z"/><path class="cls-28" d="M304.12,318.61a13.89,13.89,0,0,0-13.95-.14L175.78,383.61a6.52,6.52,0,0,0,0,11.26l50,29.43a15.91,15.91,0,0,0,15.89.14L354,357.57a5.56,5.56,0,0,0-.11-9.49Z"/><path class="cls-9" d="M302.82,327.61a9.93,9.93,0,0,0-10-.09l-100.69,57.8a4.66,4.66,0,0,0,0,8l35.71,21a11.37,11.37,0,0,0,11.34.1l99.22-59a4,4,0,0,0-.08-6.78Z"/><ellipse class="cls-10" cx="232.63" cy="400.49" rx="9.85" ry="6.22"/><ellipse class="cls-10" cx="211.63" cy="388.49" rx="9.85" ry="6.22"/><ellipse class="cls-10" cx="232.63" cy="399.49" rx="9.85" ry="6.22"/><ellipse class="cls-10" cx="211.63" cy="387.49" rx="9.85" ry="6.22"/><ellipse class="cls-10" cx="254.63" cy="388.49" rx="9.85" ry="6.22"/><ellipse class="cls-10" cx="233.63" cy="376.49" rx="9.85" ry="6.22"/><ellipse class="cls-10" cx="275.63" cy="375.49" rx="9.85" ry="6.22"/><ellipse class="cls-10" cx="254.63" cy="363.49" rx="9.85" ry="6.22"/><ellipse class="cls-10" cx="296.63" cy="364.49" rx="9.85" ry="6.22"/><ellipse class="cls-10" cx="275.63" cy="352.49" rx="9.85" ry="6.22"/><ellipse class="cls-10" cx="316.63" cy="352.49" rx="9.85" ry="6.22"/><ellipse class="cls-10" cx="295.63" cy="340.49" rx="9.85" ry="6.22"/><path class="cls-29" d="M172.57,359.5V363a8.84,8.84,0,0,0,4.46,7.68l48.64,28.67a15.93,15.93,0,0,0,16.11-.17l110.51-66.52a8.84,8.84,0,0,0,4.29-7.59v-3.18l-122.8,73Z"/><path class="cls-30" d="M304.12,288.61a13.89,13.89,0,0,0-13.95-.14L175.78,353.61a6.52,6.52,0,0,0,0,11.26l50,29.43a15.91,15.91,0,0,0,15.89.14L354,327.57a5.56,5.56,0,0,0-.11-9.49Z"/><path class="cls-9" d="M302.82,297.61a9.93,9.93,0,0,0-10-.09l-100.69,57.8a4.66,4.66,0,0,0,0,8l35.71,21a11.37,11.37,0,0,0,11.34.1l99.22-59a4,4,0,0,0-.08-6.78Z"/><ellipse class="cls-10" cx="232.63" cy="370.49" rx="9.85" ry="6.22"/><ellipse class="cls-10" cx="211.63" cy="358.49" rx="9.85" ry="6.22"/><ellipse class="cls-10" cx="232.63" cy="369.49" rx="9.85" ry="6.22"/><ellipse class="cls-10" cx="211.63" cy="357.49" rx="9.85" ry="6.22"/><ellipse class="cls-10" cx="254.63" cy="358.49" rx="9.85" ry="6.22"/><ellipse class="cls-10" cx="233.63" cy="346.49" rx="9.85" ry="6.22"/><ellipse class="cls-10" cx="275.63" cy="345.49" rx="9.85" ry="6.22"/><ellipse class="cls-10" cx="254.63" cy="333.49" rx="9.85" ry="6.22"/><ellipse class="cls-10" cx="296.63" cy="334.49" rx="9.85" ry="6.22"/><ellipse class="cls-10" cx="275.63" cy="322.49" rx="9.85" ry="6.22"/><ellipse class="cls-10" cx="316.63" cy="322.49" rx="9.85" ry="6.22"/><ellipse class="cls-10" cx="295.63" cy="310.49" rx="9.85" ry="6.22"/><path class="cls-31" d="M172.57,329.5V333a8.84,8.84,0,0,0,4.46,7.68l48.64,28.67a15.93,15.93,0,0,0,16.11-.17l110.51-66.52a8.84,8.84,0,0,0,4.29-7.59v-3.18l-122.8,73Z"/><path class="cls-32" d="M304.12,258.61a13.89,13.89,0,0,0-13.95-.14L175.78,323.61a6.52,6.52,0,0,0,0,11.26l50,29.43a15.91,15.91,0,0,0,15.89.14L354,297.57a5.56,5.56,0,0,0-.11-9.49Z"/><path class="cls-9" d="M302.82,267.61a9.93,9.93,0,0,0-10-.09l-100.69,57.8a4.66,4.66,0,0,0,0,8l35.71,21a11.37,11.37,0,0,0,11.34.1l99.22-59a4,4,0,0,0-.08-6.78Z"/><ellipse class="cls-10" cx="232.63" cy="340.49" rx="9.85" ry="6.22"/><ellipse class="cls-10" cx="211.63" cy="328.49" rx="9.85" ry="6.22"/><ellipse class="cls-10" cx="232.63" cy="339.49" rx="9.85" ry="6.22"/><ellipse class="cls-10" cx="211.63" cy="327.49" rx="9.85" ry="6.22"/><ellipse class="cls-10" cx="254.63" cy="328.49" rx="9.85" ry="6.22"/><ellipse class="cls-10" cx="233.63" cy="316.49" rx="9.85" ry="6.22"/><ellipse class="cls-10" cx="275.63" cy="315.49" rx="9.85" ry="6.22"/><ellipse class="cls-10" cx="254.63" cy="303.49" rx="9.85" ry="6.22"/><ellipse class="cls-10" cx="296.63" cy="304.49" rx="9.85" ry="6.22"/><ellipse class="cls-10" cx="275.63" cy="292.49" rx="9.85" ry="6.22"/><ellipse class="cls-10" cx="316.63" cy="292.49" rx="9.85" ry="6.22"/><ellipse class="cls-10" cx="295.63" cy="280.49" rx="9.85" ry="6.22"/></g><g id="Plate_1-2" data-name="Plate 1"><path class="cls-33" d="M645.56,413.18v3.49a8.83,8.83,0,0,0,4.46,7.68L760.67,488a15.93,15.93,0,0,0,16.11-.17l47.51-28.52a8.86,8.86,0,0,0,4.29-7.59l-62-38.18-59.8,35Z"/><path class="cls-34" d="M714.12,378.29a13.93,13.93,0,0,0-14-.13l-51.38,29.13a6.53,6.53,0,0,0,0,11.27l113,65.42a15.93,15.93,0,0,0,15.89.15L827,453.25a5.56,5.56,0,0,0-.12-9.49Z"/><path class="cls-9" d="M711.82,388.29a10,10,0,0,0-10-.09L665.17,409a4.66,4.66,0,0,0,0,8l97.72,55a11.37,11.37,0,0,0,11.34.1l35.22-22a4,4,0,0,0-.08-6.77Z"/><ellipse class="cls-10" cx="707.63" cy="401.17" rx="9.85" ry="6.22"/><ellipse class="cls-10" cx="686.83" cy="412.06" rx="9.85" ry="6.22"/><ellipse class="cls-10" cx="727.84" cy="412.22" rx="9.85" ry="6.22"/><ellipse class="cls-10" cx="707.04" cy="423.1" rx="9.85" ry="6.22"/><ellipse class="cls-10" cx="727.84" cy="413.22" rx="9.85" ry="6.22"/><ellipse class="cls-10" cx="707.04" cy="424.1" rx="9.85" ry="6.22"/><ellipse class="cls-10" cx="748.84" cy="424.22" rx="9.85" ry="6.22"/><ellipse class="cls-10" cx="728.04" cy="435.1" rx="9.85" ry="6.22"/><ellipse class="cls-10" cx="770.84" cy="435.22" rx="9.85" ry="6.22"/><ellipse class="cls-10" cx="750.04" cy="446.1" rx="9.85" ry="6.22"/><ellipse class="cls-10" cx="790.84" cy="446.22" rx="9.85" ry="6.22"/><ellipse class="cls-10" cx="770.04" cy="457.1" rx="9.85" ry="6.22"/></g><g id="Plate_1-3" data-name="Plate 1"><path class="cls-35" d="M645.56,383.18v3.49a8.83,8.83,0,0,0,4.46,7.68L760.67,458a15.93,15.93,0,0,0,16.11-.17l47.51-28.52a8.86,8.86,0,0,0,4.29-7.59l-62-38.18-59.8,35Z"/><path class="cls-36" d="M714.12,348.29a13.93,13.93,0,0,0-14-.13l-51.38,29.13a6.53,6.53,0,0,0,0,11.27l113,65.42a15.93,15.93,0,0,0,15.89.15L827,423.25a5.56,5.56,0,0,0-.12-9.49Z"/><path class="cls-9" d="M711.82,358.29a10,10,0,0,0-10-.09L665.17,379a4.66,4.66,0,0,0,0,8l97.72,55a11.37,11.37,0,0,0,11.34.1l35.22-22a4,4,0,0,0-.08-6.77Z"/><ellipse class="cls-10" cx="707.63" cy="371.17" rx="9.85" ry="6.22"/><ellipse class="cls-10" cx="686.83" cy="382.06" rx="9.85" ry="6.22"/><ellipse class="cls-10" cx="727.84" cy="382.22" rx="9.85" ry="6.22"/><ellipse class="cls-10" cx="707.04" cy="393.1" rx="9.85" ry="6.22"/><ellipse class="cls-10" cx="727.84" cy="383.22" rx="9.85" ry="6.22"/><ellipse class="cls-10" cx="707.04" cy="394.1" rx="9.85" ry="6.22"/><ellipse class="cls-10" cx="748.84" cy="394.22" rx="9.85" ry="6.22"/><ellipse class="cls-10" cx="728.04" cy="405.1" rx="9.85" ry="6.22"/><ellipse class="cls-10" cx="770.84" cy="405.22" rx="9.85" ry="6.22"/><ellipse class="cls-10" cx="750.04" cy="416.1" rx="9.85" ry="6.22"/><ellipse class="cls-10" cx="790.84" cy="416.22" rx="9.85" ry="6.22"/><ellipse class="cls-10" cx="770.04" cy="427.1" rx="9.85" ry="6.22"/></g><g id="Plate_1-4" data-name="Plate 1"><path class="cls-37" d="M645.56,353.18v3.49a8.83,8.83,0,0,0,4.46,7.68L760.67,428a15.93,15.93,0,0,0,16.11-.17l47.51-28.52a8.86,8.86,0,0,0,4.29-7.59l-62-38.18-59.8,35Z"/><path class="cls-38" d="M714.12,318.29a13.93,13.93,0,0,0-14-.13l-51.38,29.13a6.53,6.53,0,0,0,0,11.27l113,65.42a15.93,15.93,0,0,0,15.89.15L827,393.25a5.56,5.56,0,0,0-.12-9.49Z"/><path class="cls-9" d="M711.82,328.29a10,10,0,0,0-10-.09L665.17,349a4.66,4.66,0,0,0,0,8l97.72,55a11.37,11.37,0,0,0,11.34.1l35.22-22a4,4,0,0,0-.08-6.77Z"/><ellipse class="cls-10" cx="707.63" cy="341.17" rx="9.85" ry="6.22"/><ellipse class="cls-10" cx="686.83" cy="352.06" rx="9.85" ry="6.22"/><ellipse class="cls-10" cx="727.84" cy="352.22" rx="9.85" ry="6.22"/><ellipse class="cls-10" cx="707.04" cy="363.1" rx="9.85" ry="6.22"/><ellipse class="cls-10" cx="727.84" cy="353.22" rx="9.85" ry="6.22"/><ellipse class="cls-10" cx="707.04" cy="364.1" rx="9.85" ry="6.22"/><ellipse class="cls-10" cx="748.84" cy="364.22" rx="9.85" ry="6.22"/><ellipse class="cls-10" cx="728.04" cy="375.1" rx="9.85" ry="6.22"/><ellipse class="cls-10" cx="770.84" cy="375.22" rx="9.85" ry="6.22"/><ellipse class="cls-10" cx="750.04" cy="386.1" rx="9.85" ry="6.22"/><ellipse class="cls-10" cx="790.84" cy="386.22" rx="9.85" ry="6.22"/><ellipse class="cls-10" cx="770.04" cy="397.1" rx="9.85" ry="6.22"/></g><g id="Plate_1-5" data-name="Plate 1"><path class="cls-39" d="M645.56,323.18v3.49a8.83,8.83,0,0,0,4.46,7.68L760.67,398a15.93,15.93,0,0,0,16.11-.17l47.51-28.52a8.86,8.86,0,0,0,4.29-7.59l-62-38.18-59.8,35Z"/><path class="cls-40" d="M714.12,288.29a13.93,13.93,0,0,0-14-.13l-51.38,29.13a6.53,6.53,0,0,0,0,11.27l113,65.42a15.93,15.93,0,0,0,15.89.15L827,363.25a5.56,5.56,0,0,0-.12-9.49Z"/><path class="cls-9" d="M711.82,298.29a10,10,0,0,0-10-.09L665.17,319a4.66,4.66,0,0,0,0,8l97.72,55a11.37,11.37,0,0,0,11.34.1l35.22-22a4,4,0,0,0-.08-6.77Z"/><ellipse class="cls-10" cx="707.63" cy="311.17" rx="9.85" ry="6.22"/><ellipse class="cls-10" cx="686.83" cy="322.06" rx="9.85" ry="6.22"/><ellipse class="cls-10" cx="727.84" cy="322.22" rx="9.85" ry="6.22"/><ellipse class="cls-10" cx="707.04" cy="333.1" rx="9.85" ry="6.22"/><ellipse class="cls-10" cx="727.84" cy="323.22" rx="9.85" ry="6.22"/><ellipse class="cls-10" cx="707.04" cy="334.1" rx="9.85" ry="6.22"/><ellipse class="cls-10" cx="748.84" cy="334.22" rx="9.85" ry="6.22"/><ellipse class="cls-10" cx="728.04" cy="345.1" rx="9.85" ry="6.22"/><ellipse class="cls-10" cx="770.84" cy="345.22" rx="9.85" ry="6.22"/><ellipse class="cls-10" cx="750.04" cy="356.1" rx="9.85" ry="6.22"/><ellipse class="cls-10" cx="790.84" cy="356.22" rx="9.85" ry="6.22"/><ellipse class="cls-10" cx="770.04" cy="367.1" rx="9.85" ry="6.22"/></g><g id="Plate_1-6" data-name="Plate 1"><path class="cls-41" d="M645.56,293.18v3.49a8.83,8.83,0,0,0,4.46,7.68L760.67,368a15.93,15.93,0,0,0,16.11-.17l47.51-28.52a8.86,8.86,0,0,0,4.29-7.59l-62-38.18-59.8,35Z"/><path class="cls-42" d="M714.12,258.29a13.93,13.93,0,0,0-14-.13l-51.38,29.13a6.53,6.53,0,0,0,0,11.27l113,65.42a15.93,15.93,0,0,0,15.89.15L827,333.25a5.56,5.56,0,0,0-.12-9.49Z"/><path class="cls-9" d="M711.82,268.29a10,10,0,0,0-10-.09L665.17,289a4.66,4.66,0,0,0,0,8l97.72,55a11.37,11.37,0,0,0,11.34.1l35.22-22a4,4,0,0,0-.08-6.77Z"/><ellipse class="cls-10" cx="707.63" cy="281.17" rx="9.85" ry="6.22"/><ellipse class="cls-10" cx="686.83" cy="292.06" rx="9.85" ry="6.22"/><ellipse class="cls-10" cx="727.84" cy="292.22" rx="9.85" ry="6.22"/><ellipse class="cls-10" cx="707.04" cy="303.1" rx="9.85" ry="6.22"/><ellipse class="cls-10" cx="727.84" cy="293.22" rx="9.85" ry="6.22"/><ellipse class="cls-10" cx="707.04" cy="304.1" rx="9.85" ry="6.22"/><ellipse class="cls-10" cx="748.84" cy="304.22" rx="9.85" ry="6.22"/><ellipse class="cls-10" cx="728.04" cy="315.1" rx="9.85" ry="6.22"/><ellipse class="cls-10" cx="770.84" cy="315.22" rx="9.85" ry="6.22"/><ellipse class="cls-10" cx="750.04" cy="326.1" rx="9.85" ry="6.22"/><ellipse class="cls-10" cx="790.84" cy="326.22" rx="9.85" ry="6.22"/><ellipse class="cls-10" cx="770.04" cy="337.1" rx="9.85" ry="6.22"/></g><g id="Plate_Hotel-2" data-name="Plate Hotel"><path class="cls-43" d="M643.57,763.5V767a8.84,8.84,0,0,0,4.46,7.68l48.64,28.67a15.93,15.93,0,0,0,16.11-.17l110.51-66.52a8.84,8.84,0,0,0,4.29-7.59v-3.18l-122.8,73Z"/><path class="cls-44" d="M775.12,692.61a13.89,13.89,0,0,0-14-.14L646.78,757.61a6.52,6.52,0,0,0,0,11.26l50,29.43a15.91,15.91,0,0,0,15.89.14L825,731.57a5.56,5.56,0,0,0-.11-9.49Z"/><path class="cls-9" d="M773.82,701.61a9.93,9.93,0,0,0-10-.09l-100.69,57.8a4.66,4.66,0,0,0,0,8l35.71,21a11.37,11.37,0,0,0,11.34.1l99.22-59a4,4,0,0,0-.08-6.78Z"/><ellipse class="cls-10" cx="703.63" cy="774.49" rx="9.85" ry="6.22"/><ellipse class="cls-10" cx="682.63" cy="762.49" rx="9.85" ry="6.22"/><ellipse class="cls-10" cx="703.63" cy="773.49" rx="9.85" ry="6.22"/><ellipse class="cls-10" cx="682.63" cy="761.49" rx="9.85" ry="6.22"/><ellipse class="cls-10" cx="725.63" cy="762.49" rx="9.85" ry="6.22"/><ellipse class="cls-10" cx="704.63" cy="750.49" rx="9.85" ry="6.22"/><ellipse class="cls-10" cx="746.63" cy="749.49" rx="9.85" ry="6.22"/><ellipse class="cls-10" cx="725.63" cy="737.49" rx="9.85" ry="6.22"/><ellipse class="cls-10" cx="767.63" cy="738.49" rx="9.85" ry="6.22"/><ellipse class="cls-10" cx="746.63" cy="726.49" rx="9.85" ry="6.22"/><ellipse class="cls-10" cx="787.63" cy="726.49" rx="9.85" ry="6.22"/><ellipse class="cls-10" cx="766.63" cy="714.49" rx="9.85" ry="6.22"/><path class="cls-45" d="M643.57,733.5V737a8.84,8.84,0,0,0,4.46,7.68l48.64,28.67a15.93,15.93,0,0,0,16.11-.17l110.51-66.52a8.84,8.84,0,0,0,4.29-7.59v-3.18l-122.8,73Z"/><path class="cls-46" d="M775.12,662.61a13.89,13.89,0,0,0-14-.14L646.78,727.61a6.52,6.52,0,0,0,0,11.26l50,29.43a15.91,15.91,0,0,0,15.89.14L825,701.57a5.56,5.56,0,0,0-.11-9.49Z"/><path class="cls-9" d="M773.82,671.61a9.93,9.93,0,0,0-10-.09l-100.69,57.8a4.66,4.66,0,0,0,0,8l35.71,21a11.37,11.37,0,0,0,11.34.1l99.22-59a4,4,0,0,0-.08-6.78Z"/><ellipse class="cls-10" cx="703.63" cy="744.49" rx="9.85" ry="6.22"/><ellipse class="cls-10" cx="682.63" cy="732.49" rx="9.85" ry="6.22"/><ellipse class="cls-10" cx="703.63" cy="743.49" rx="9.85" ry="6.22"/><ellipse class="cls-10" cx="682.63" cy="731.49" rx="9.85" ry="6.22"/><ellipse class="cls-10" cx="725.63" cy="732.49" rx="9.85" ry="6.22"/><ellipse class="cls-10" cx="704.63" cy="720.49" rx="9.85" ry="6.22"/><ellipse class="cls-10" cx="746.63" cy="719.49" rx="9.85" ry="6.22"/><ellipse class="cls-10" cx="725.63" cy="707.49" rx="9.85" ry="6.22"/><ellipse class="cls-10" cx="767.63" cy="708.49" rx="9.85" ry="6.22"/><ellipse class="cls-10" cx="746.63" cy="696.49" rx="9.85" ry="6.22"/><ellipse class="cls-10" cx="787.63" cy="696.49" rx="9.85" ry="6.22"/><ellipse class="cls-10" cx="766.63" cy="684.49" rx="9.85" ry="6.22"/><path class="cls-47" d="M643.57,703.5V707a8.84,8.84,0,0,0,4.46,7.68l48.64,28.67a15.93,15.93,0,0,0,16.11-.17l110.51-66.52a8.84,8.84,0,0,0,4.29-7.59v-3.18l-122.8,73Z"/><path class="cls-48" d="M775.12,632.61a13.89,13.89,0,0,0-14-.14L646.78,697.61a6.52,6.52,0,0,0,0,11.26l50,29.43a15.91,15.91,0,0,0,15.89.14L825,671.57a5.56,5.56,0,0,0-.11-9.49Z"/><path class="cls-9" d="M773.82,641.61a9.93,9.93,0,0,0-10-.09l-100.69,57.8a4.66,4.66,0,0,0,0,8l35.71,21a11.37,11.37,0,0,0,11.34.1l99.22-59a4,4,0,0,0-.08-6.78Z"/><ellipse class="cls-10" cx="703.63" cy="714.49" rx="9.85" ry="6.22"/><ellipse class="cls-10" cx="682.63" cy="702.49" rx="9.85" ry="6.22"/><ellipse class="cls-10" cx="703.63" cy="713.49" rx="9.85" ry="6.22"/><ellipse class="cls-10" cx="682.63" cy="701.49" rx="9.85" ry="6.22"/><ellipse class="cls-10" cx="725.63" cy="702.49" rx="9.85" ry="6.22"/><ellipse class="cls-10" cx="704.63" cy="690.49" rx="9.85" ry="6.22"/><ellipse class="cls-10" cx="746.63" cy="689.49" rx="9.85" ry="6.22"/><ellipse class="cls-10" cx="725.63" cy="677.49" rx="9.85" ry="6.22"/><ellipse class="cls-10" cx="767.63" cy="678.49" rx="9.85" ry="6.22"/><ellipse class="cls-10" cx="746.63" cy="666.49" rx="9.85" ry="6.22"/><ellipse class="cls-10" cx="787.63" cy="666.49" rx="9.85" ry="6.22"/><ellipse class="cls-10" cx="766.63" cy="654.49" rx="9.85" ry="6.22"/><path class="cls-49" d="M643.57,673.5V677a8.84,8.84,0,0,0,4.46,7.68l48.64,28.67a15.93,15.93,0,0,0,16.11-.17l110.51-66.52a8.84,8.84,0,0,0,4.29-7.59v-3.18l-122.8,73Z"/><path class="cls-50" d="M775.12,602.61a13.89,13.89,0,0,0-14-.14L646.78,667.61a6.52,6.52,0,0,0,0,11.26l50,29.43a15.91,15.91,0,0,0,15.89.14L825,641.57a5.56,5.56,0,0,0-.11-9.49Z"/><path class="cls-9" d="M773.82,611.61a9.93,9.93,0,0,0-10-.09l-100.69,57.8a4.66,4.66,0,0,0,0,8l35.71,21a11.37,11.37,0,0,0,11.34.1l99.22-59a4,4,0,0,0-.08-6.78Z"/><ellipse class="cls-10" cx="703.63" cy="684.49" rx="9.85" ry="6.22"/><ellipse class="cls-10" cx="682.63" cy="672.49" rx="9.85" ry="6.22"/><ellipse class="cls-10" cx="703.63" cy="683.49" rx="9.85" ry="6.22"/><ellipse class="cls-10" cx="682.63" cy="671.49" rx="9.85" ry="6.22"/><ellipse class="cls-10" cx="725.63" cy="672.49" rx="9.85" ry="6.22"/><ellipse class="cls-10" cx="704.63" cy="660.49" rx="9.85" ry="6.22"/><ellipse class="cls-10" cx="746.63" cy="659.49" rx="9.85" ry="6.22"/><ellipse class="cls-10" cx="725.63" cy="647.49" rx="9.85" ry="6.22"/><ellipse class="cls-10" cx="767.63" cy="648.49" rx="9.85" ry="6.22"/><ellipse class="cls-10" cx="746.63" cy="636.49" rx="9.85" ry="6.22"/><ellipse class="cls-10" cx="787.63" cy="636.49" rx="9.85" ry="6.22"/><ellipse class="cls-10" cx="766.63" cy="624.49" rx="9.85" ry="6.22"/><path class="cls-51" d="M643.57,643.5V647a8.84,8.84,0,0,0,4.46,7.68l48.64,28.67a15.93,15.93,0,0,0,16.11-.17l110.51-66.52a8.84,8.84,0,0,0,4.29-7.59v-3.18l-122.8,73Z"/><path class="cls-52" d="M775.12,572.61a13.89,13.89,0,0,0-14-.14L646.78,637.61a6.52,6.52,0,0,0,0,11.26l50,29.43a15.91,15.91,0,0,0,15.89.14L825,611.57a5.56,5.56,0,0,0-.11-9.49Z"/><path class="cls-9" d="M773.82,581.61a9.93,9.93,0,0,0-10-.09l-100.69,57.8a4.66,4.66,0,0,0,0,8l35.71,21a11.37,11.37,0,0,0,11.34.1l99.22-59a4,4,0,0,0-.08-6.78Z"/><ellipse class="cls-10" cx="703.63" cy="654.49" rx="9.85" ry="6.22"/><ellipse class="cls-10" cx="682.63" cy="642.49" rx="9.85" ry="6.22"/><ellipse class="cls-10" cx="703.63" cy="653.49" rx="9.85" ry="6.22"/><ellipse class="cls-10" cx="682.63" cy="641.49" rx="9.85" ry="6.22"/><ellipse class="cls-10" cx="725.63" cy="642.49" rx="9.85" ry="6.22"/><ellipse class="cls-10" cx="704.63" cy="630.49" rx="9.85" ry="6.22"/><ellipse class="cls-10" cx="746.63" cy="629.49" rx="9.85" ry="6.22"/><ellipse class="cls-10" cx="725.63" cy="617.49" rx="9.85" ry="6.22"/><ellipse class="cls-10" cx="767.63" cy="618.49" rx="9.85" ry="6.22"/><ellipse class="cls-10" cx="746.63" cy="606.49" rx="9.85" ry="6.22"/><ellipse class="cls-10" cx="787.63" cy="606.49" rx="9.85" ry="6.22"/><ellipse class="cls-10" cx="766.63" cy="594.49" rx="9.85" ry="6.22"/><path class="cls-53" d="M643.57,613.5V617a8.84,8.84,0,0,0,4.46,7.68l48.64,28.67a15.93,15.93,0,0,0,16.11-.17l110.51-66.52a8.84,8.84,0,0,0,4.29-7.59v-3.18l-122.8,73Z"/><path class="cls-54" d="M775.12,542.61a13.89,13.89,0,0,0-14-.14L646.78,607.61a6.52,6.52,0,0,0,0,11.26l50,29.43a15.91,15.91,0,0,0,15.89.14L825,581.57a5.56,5.56,0,0,0-.11-9.49Z"/><path class="cls-9" d="M773.82,551.61a9.93,9.93,0,0,0-10-.09l-100.69,57.8a4.66,4.66,0,0,0,0,8l35.71,21a11.37,11.37,0,0,0,11.34.1l99.22-59a4,4,0,0,0-.08-6.78Z"/><ellipse class="cls-10" cx="703.63" cy="624.49" rx="9.85" ry="6.22"/><ellipse class="cls-10" cx="682.63" cy="612.49" rx="9.85" ry="6.22"/><ellipse class="cls-10" cx="703.63" cy="623.49" rx="9.85" ry="6.22"/><ellipse class="cls-10" cx="682.63" cy="611.49" rx="9.85" ry="6.22"/><ellipse class="cls-10" cx="725.63" cy="612.49" rx="9.85" ry="6.22"/><ellipse class="cls-10" cx="704.63" cy="600.49" rx="9.85" ry="6.22"/><ellipse class="cls-10" cx="746.63" cy="599.49" rx="9.85" ry="6.22"/><ellipse class="cls-10" cx="725.63" cy="587.49" rx="9.85" ry="6.22"/><ellipse class="cls-10" cx="767.63" cy="588.49" rx="9.85" ry="6.22"/><ellipse class="cls-10" cx="746.63" cy="576.49" rx="9.85" ry="6.22"/><ellipse class="cls-10" cx="787.63" cy="576.49" rx="9.85" ry="6.22"/><ellipse class="cls-10" cx="766.63" cy="564.49" rx="9.85" ry="6.22"/></g><g id="Robot"><ellipse class="cls-55" cx="278.34" cy="736.56" rx="46.51" ry="27.3"/><ellipse class="cls-5" cx="278.48" cy="736.03" rx="63.65" ry="37.36"/><ellipse class="cls-56" cx="278.34" cy="731.66" rx="46.51" ry="27.3"/><ellipse class="cls-9" cx="278.34" cy="729.72" rx="31.08" ry="17.31"/><path class="cls-57" d="M279.48,370.81c-13.11,0-23.74,7.42-23.74,16.57V722c0,9.16,10.63,16.58,23.74,16.58s23.75-7.42,23.75-16.58V387.38C303.23,378.23,292.6,370.81,279.48,370.81Z"/></g><path class="cls-58" d="M572.76,212.34c0-9.16,10.63-16.58,23.74-16.58s23.74,7.42,23.74,16.58L599.46,323.57h-3"/><path id="Arm_1" data-name="Arm 1" class="cls-59" d="M587.4,212.73c-11.36-6.56-26.95-8.19-34.83-3.64l-288,166.28c-7.88,4.55-5.06,13.56,6.3,20.11s26.95,8.19,34.83,3.64l288-166.28C601.57,228.29,598.75,219.28,587.4,212.73Z"/><g id="Plate_1-7" data-name="Plate 1"><path class="cls-60" d="M468.81,504.58v3.5a8.85,8.85,0,0,0,4.46,7.68l110.65,63.67a15.93,15.93,0,0,0,16.11-.18l47.51-28.52a8.85,8.85,0,0,0,4.29-7.58l-62-38.18L530,540Z"/><path class="cls-61" d="M537.37,469.69a13.93,13.93,0,0,0-14-.13L472,498.69A6.54,6.54,0,0,0,472,510l113,65.43a15.93,15.93,0,0,0,15.89.14l49.33-30.88a5.55,5.55,0,0,0-.12-9.48Z"/><path class="cls-9" d="M535.07,479.7a10,10,0,0,0-10-.1l-36.69,20.8a4.67,4.67,0,0,0,0,8.05l97.71,55a11.39,11.39,0,0,0,11.35.1l35.22-22a4,4,0,0,0-.08-6.77Z"/><ellipse class="cls-10" cx="530.88" cy="492.58" rx="9.85" ry="6.22"/><ellipse class="cls-10" cx="510.08" cy="503.47" rx="9.85" ry="6.22"/><ellipse class="cls-10" cx="551.09" cy="503.62" rx="9.85" ry="6.22"/><ellipse class="cls-10" cx="530.29" cy="514.51" rx="9.85" ry="6.22"/><ellipse class="cls-10" cx="551.09" cy="504.62" rx="9.85" ry="6.22"/><ellipse class="cls-10" cx="530.29" cy="515.51" rx="9.85" ry="6.22"/><ellipse class="cls-10" cx="572.09" cy="515.62" rx="9.85" ry="6.22"/><ellipse class="cls-10" cx="551.29" cy="526.51" rx="9.85" ry="6.22"/><ellipse class="cls-10" cx="594.09" cy="526.62" rx="9.85" ry="6.22"/><ellipse class="cls-10" cx="573.29" cy="537.51" rx="9.85" ry="6.22"/><ellipse class="cls-10" cx="614.09" cy="537.62" rx="9.85" ry="6.22"/><ellipse class="cls-10" cx="593.29" cy="548.51" rx="9.85" ry="6.22"/></g><g id="Funnel"><ellipse class="cls-62" cx="537.42" cy="375.33" rx="99.82" ry="30"/><polygon class="cls-63" points="437.63 375.5 521.02 491.96 530.87 491.98 539.05 491.98 637.24 375.5 437.63 375.5"/></g><polyline class="cls-64" points="498.7 379.89 483.15 376.48 492.76 373.06 466.9 364.98"/><ellipse class="cls-10" cx="503.84" cy="381.65" rx="10.54" ry="3.17"/><path class="cls-10" d="M551,367.35c0,1.74-4.71,3.16-10.53,3.16s-10.54-1.42-10.54-3.16,4.72-3.17,10.54-3.17a32.84,32.84,0,0,1,4.1.25C548.35,364.91,551,366,551,367.35Z"/><polyline class="cls-64" points="544.57 365.43 552.4 360.4 529.4 358.18 561.54 355.11 556.91 350.28"/><path class="cls-10" d="M582.19,384.05c0,1.74-4.72,3.16-10.54,3.16s-10.53-1.42-10.53-3.16,4.72-3.17,10.53-3.17a32.88,32.88,0,0,1,4.11.25C579.54,381.61,582.19,382.73,582.19,384.05Z"/><polyline class="cls-64" points="582.19 384.05 597.45 385.11 603.29 373.06"/><path id="Arm_2" data-name="Arm 2" class="cls-65" d="M611.08,200.11c-11.35-6.55-27-8.18-34.83-3.63l-288,166.28c-7.88,4.55-5.06,13.55,6.29,20.11s26.95,8.18,34.83,3.63l288-166.28C625.26,215.67,622.44,206.67,611.08,200.11Z"/><line class="cls-1" x1="707.46" y1="240.63" x2="766.93" y2="272.2"/></svg>