<svg id="Blockchain_ISOMETRIC" data-name="Blockchain ISOMETRIC" xmlns="http://www.w3.org/2000/svg" viewBox="0 0 1000 1000"><defs><style>.cls-1{fill:#171921;}.cls-2{fill:#383656;opacity:0.5;}.cls-3,.cls-4,.cls-5,.cls-9{fill:none;stroke-miterlimit:10;}.cls-3,.cls-4,.cls-5{stroke:#f9603e;stroke-width:2px;}.cls-4{stroke-dasharray:5.98 5.98;}.cls-5{stroke-dasharray:6.04 6.04;}.cls-6{fill:#f9603e;}.cls-7{opacity:0.8;}.cls-8{fill:#fff;}.cls-9{stroke:#fff;}</style></defs><rect class="cls-1" y="0.88" width="1000" height="1000"/><polygon class="cls-2" points="520.79 862.38 192.95 673.09 416.45 544.05 744.29 733.34 520.79 862.38"/><line class="cls-3" x1="376.55" y1="296.88" x2="375.77" y2="299.78"/><polyline class="cls-4" points="374.19 305.55 346.55 406.88 346.55 516.88 391.31 584.55"/><polyline class="cls-3" points="392.96 587.05 394.62 589.55 393.38 592.28"/><line class="cls-5" x1="390.88" y1="597.79" x2="347.11" y2="694.07"/><line class="cls-3" x1="345.86" y1="696.82" x2="344.62" y2="699.55"/><polygon class="cls-2" points="520.79 777.87 192.95 588.59 416.45 459.55 744.29 648.83 520.79 777.87"/><ellipse class="cls-6" cx="394.62" cy="589.55" rx="9.85" ry="6.22"/><polygon class="cls-2" points="520.79 687.87 192.95 498.59 416.45 369.55 744.29 558.83 520.79 687.87"/><ellipse class="cls-6" cx="346.55" cy="516.88" rx="9.85" ry="6.22"/><polygon class="cls-2" points="520.79 597.87 192.95 408.59 416.45 279.55 744.29 468.83 520.79 597.87"/><ellipse class="cls-6" cx="346.55" cy="406.88" rx="9.85" ry="6.22"/><polygon class="cls-2" points="520.79 507.87 192.95 318.59 416.45 189.55 744.29 378.83 520.79 507.87"/><g class="cls-7"><path class="cls-8" d="M528.48,180.21a7.53,7.53,0,0,1-.7,3.38,5.28,5.28,0,0,1-1.94,2.2,5.53,5.53,0,0,1-5.63,0,5.26,5.26,0,0,1-1.93-2.2,8.4,8.4,0,0,1,0-6.76,5.23,5.23,0,0,1,1.93-2.19,5.47,5.47,0,0,1,5.63,0,5.25,5.25,0,0,1,1.94,2.19A7.55,7.55,0,0,1,528.48,180.21Zm-1.44,0a6.15,6.15,0,0,0-.54-2.71,4,4,0,0,0-1.44-1.67,3.77,3.77,0,0,0-2-.57,3.72,3.72,0,0,0-2,.57,4,4,0,0,0-1.45,1.67,7.19,7.19,0,0,0,0,5.42A3.94,3.94,0,0,0,521,184.6a3.8,3.8,0,0,0,2,.56,3.85,3.85,0,0,0,2-.56,4,4,0,0,0,1.44-1.68A6.12,6.12,0,0,0,527,180.21Z"/><path class="cls-8" d="M532.23,180.82v5.58H530.8v-9.28h1.38v1.45h.12a2.73,2.73,0,0,1,1-1.14A3.14,3.14,0,0,1,535,177a3.35,3.35,0,0,1,1.65.39,2.61,2.61,0,0,1,1.1,1.15,4.36,4.36,0,0,1,.39,2v5.9h-1.42v-5.8a2.42,2.42,0,0,0-.57-1.71,2.06,2.06,0,0,0-1.56-.61,2.41,2.41,0,0,0-1.21.3,2.07,2.07,0,0,0-.85.86A2.93,2.93,0,0,0,532.23,180.82Z"/><path class="cls-8" d="M544.52,186.59a4,4,0,0,1-2.25-.62,4,4,0,0,1-1.45-1.69,5.89,5.89,0,0,1-.5-2.47,5.64,5.64,0,0,1,.52-2.5,4.12,4.12,0,0,1,1.46-1.7,4,4,0,0,1,2.19-.61,4.21,4.21,0,0,1,1.77.36,3.3,3.3,0,0,1,1.28,1,3.08,3.08,0,0,1,.62,1.52h-1.42a2.28,2.28,0,0,0-.72-1.13,2.22,2.22,0,0,0-1.5-.49,2.56,2.56,0,0,0-1.46.43,2.83,2.83,0,0,0-1,1.22,4.49,4.49,0,0,0-.35,1.83,4.66,4.66,0,0,0,.34,1.87,2.89,2.89,0,0,0,1,1.24,2.48,2.48,0,0,0,1.47.44,2.56,2.56,0,0,0,1-.2,2,2,0,0,0,.76-.55,2.12,2.12,0,0,0,.45-.87h1.42a3.26,3.26,0,0,1-.59,1.48,3.34,3.34,0,0,1-1.25,1A4,4,0,0,1,544.52,186.59Z"/><path class="cls-8" d="M554.13,186.59a4.32,4.32,0,0,1-2.31-.6,3.88,3.88,0,0,1-1.49-1.66,6.29,6.29,0,0,1,0-5,4.08,4.08,0,0,1,1.46-1.71A4,4,0,0,1,554,177a4.38,4.38,0,0,1,1.43.24,3.52,3.52,0,0,1,1.29.78,3.72,3.72,0,0,1,.92,1.43,6.05,6.05,0,0,1,.35,2.19v.6h-7.15V181h5.7a3,3,0,0,0-.31-1.4,2.43,2.43,0,0,0-.88-1,2.47,2.47,0,0,0-1.35-.36,2.59,2.59,0,0,0-1.47.42,2.86,2.86,0,0,0-1,1.09,3.24,3.24,0,0,0-.33,1.44v.82a3.87,3.87,0,0,0,.37,1.78,2.57,2.57,0,0,0,1,1.1,3.27,3.27,0,0,0,2.54.22,2.22,2.22,0,0,0,.78-.48,2.13,2.13,0,0,0,.52-.81l1.37.39a2.89,2.89,0,0,1-.73,1.22,3.46,3.46,0,0,1-1.26.83A4.81,4.81,0,0,1,554.13,186.59Z"/><path class="cls-8" d="M567,186.4l-2.82-9.28h1.5l2,7.1h.1l2-7.1h1.52l2,7.08h.1l2-7.08h1.5L574,186.4h-1.4l-2-7.13h-.15l-2,7.13Z"/><path class="cls-8" d="M582.31,186.59A4.32,4.32,0,0,1,580,186a3.88,3.88,0,0,1-1.49-1.66,6.29,6.29,0,0,1,0-5,4.08,4.08,0,0,1,1.46-1.71,4,4,0,0,1,2.19-.61,4.48,4.48,0,0,1,1.44.24,3.48,3.48,0,0,1,1.28.78,3.86,3.86,0,0,1,.93,1.43,6.07,6.07,0,0,1,.34,2.19v.6H579V181h5.7a3,3,0,0,0-.31-1.4,2.43,2.43,0,0,0-.88-1,2.47,2.47,0,0,0-1.35-.36,2.53,2.53,0,0,0-1.46.42,2.81,2.81,0,0,0-1,1.09,3.24,3.24,0,0,0-.33,1.44v.82a3.87,3.87,0,0,0,.37,1.78,2.57,2.57,0,0,0,1,1.1,3.27,3.27,0,0,0,2.54.22,2.36,2.36,0,0,0,.79-.48,2.24,2.24,0,0,0,.51-.81l1.37.39a2.89,2.89,0,0,1-.73,1.22,3.46,3.46,0,0,1-1.26.83A4.81,4.81,0,0,1,582.31,186.59Z"/><path class="cls-8" d="M589.58,174v1.09a3.41,3.41,0,0,1-.18,1,4.46,4.46,0,0,1-.52,1.08,4,4,0,0,1-.82.91l-.78-.63a7.63,7.63,0,0,0,.67-1.13,3,3,0,0,0,.28-1.26V174Z"/><path class="cls-8" d="M599.29,177.12l-3.43,9.28h-1.45L591,177.12h1.54l2.56,7.39h.1l2.56-7.39Z"/><path class="cls-8" d="M604.72,186.59a4.27,4.27,0,0,1-2.31-.6,3.88,3.88,0,0,1-1.49-1.66,6.29,6.29,0,0,1,0-5,4.08,4.08,0,0,1,1.46-1.71,4,4,0,0,1,2.19-.61,4.38,4.38,0,0,1,1.43.24,3.6,3.6,0,0,1,1.29.78,3.84,3.84,0,0,1,.92,1.43,6.05,6.05,0,0,1,.35,2.19v.6h-7.15V181h5.7a3.17,3.17,0,0,0-.31-1.4,2.43,2.43,0,0,0-.88-1,2.47,2.47,0,0,0-1.35-.36,2.59,2.59,0,0,0-1.47.42,2.78,2.78,0,0,0-1,1.09,3.24,3.24,0,0,0-.33,1.44v.82a3.87,3.87,0,0,0,.37,1.78,2.57,2.57,0,0,0,1,1.1,3.27,3.27,0,0,0,2.54.22,2.22,2.22,0,0,0,.78-.48,2.26,2.26,0,0,0,.52-.81l1.37.39a3,3,0,0,1-.73,1.22,3.42,3.42,0,0,1-1.27.83A4.71,4.71,0,0,1,604.72,186.59Z"/><path class="cls-8" d="M622.08,179.2l-1.28.36a2.58,2.58,0,0,0-.35-.62,1.77,1.77,0,0,0-.63-.51,2.34,2.34,0,0,0-1-.2,2.45,2.45,0,0,0-1.42.39,1.15,1.15,0,0,0-.56,1,1,1,0,0,0,.38.84,3.39,3.39,0,0,0,1.21.51l1.38.34a3.83,3.83,0,0,1,1.85.92,2.15,2.15,0,0,1,.61,1.59,2.35,2.35,0,0,1-.46,1.43,3.13,3.13,0,0,1-1.27,1,4.62,4.62,0,0,1-1.89.36,4.17,4.17,0,0,1-2.35-.62,2.75,2.75,0,0,1-1.18-1.8l1.35-.33a1.91,1.91,0,0,0,.74,1.12,2.42,2.42,0,0,0,1.41.37,2.7,2.7,0,0,0,1.59-.42,1.26,1.26,0,0,0,.59-1,1.11,1.11,0,0,0-.34-.81,2.2,2.2,0,0,0-1-.49l-1.55-.36a3.62,3.62,0,0,1-1.86-.94,2.25,2.25,0,0,1-.6-1.6,2.35,2.35,0,0,1,.44-1.39,3,3,0,0,1,1.22-.94,4.2,4.2,0,0,1,1.75-.35,3.49,3.49,0,0,1,2.16.6A3.27,3.27,0,0,1,622.08,179.2Z"/><path class="cls-8" d="M628.29,186.59A4.27,4.27,0,0,1,626,186a3.81,3.81,0,0,1-1.49-1.66,6.18,6.18,0,0,1,0-5,4,4,0,0,1,1.46-1.71,4,4,0,0,1,2.19-.61,4.42,4.42,0,0,1,1.43.24,3.6,3.6,0,0,1,1.29.78,4,4,0,0,1,.92,1.43,6.05,6.05,0,0,1,.35,2.19v.6H625V181h5.7a3.17,3.17,0,0,0-.31-1.4,2.38,2.38,0,0,0-.89-1,2.44,2.44,0,0,0-1.34-.36,2.54,2.54,0,0,0-1.47.42,2.78,2.78,0,0,0-.95,1.09,3.24,3.24,0,0,0-.33,1.44v.82a4,4,0,0,0,.36,1.78,2.65,2.65,0,0,0,1,1.1,3,3,0,0,0,1.52.38,2.93,2.93,0,0,0,1-.16,2.18,2.18,0,0,0,.79-.48,2.24,2.24,0,0,0,.51-.81l1.38.39a3,3,0,0,1-.73,1.22,3.42,3.42,0,0,1-1.27.83A4.75,4.75,0,0,1,628.29,186.59Z"/><path class="cls-8" d="M635.72,174V186.4H634.3V174Z"/><path class="cls-8" d="M642.22,186.59a4.32,4.32,0,0,1-2.31-.6,3.88,3.88,0,0,1-1.49-1.66,6.29,6.29,0,0,1,0-5,4.08,4.08,0,0,1,1.46-1.71,4,4,0,0,1,2.19-.61,4.38,4.38,0,0,1,1.43.24,3.52,3.52,0,0,1,1.29.78,3.72,3.72,0,0,1,.92,1.43,6.05,6.05,0,0,1,.35,2.19v.6h-7.15V181h5.7a3,3,0,0,0-.31-1.4,2.43,2.43,0,0,0-.88-1,2.47,2.47,0,0,0-1.35-.36,2.59,2.59,0,0,0-1.47.42,2.78,2.78,0,0,0-1,1.09,3.24,3.24,0,0,0-.33,1.44v.82a3.87,3.87,0,0,0,.37,1.78,2.57,2.57,0,0,0,1,1.1,3.27,3.27,0,0,0,2.54.22,2.22,2.22,0,0,0,.78-.48,2.13,2.13,0,0,0,.52-.81l1.37.39a2.89,2.89,0,0,1-.73,1.22,3.42,3.42,0,0,1-1.27.83A4.71,4.71,0,0,1,642.22,186.59Z"/><path class="cls-8" d="M652,186.59a4,4,0,0,1-2.25-.62,4,4,0,0,1-1.45-1.69,5.89,5.89,0,0,1-.5-2.47,5.64,5.64,0,0,1,.52-2.5,4.12,4.12,0,0,1,1.46-1.7A4,4,0,0,1,652,177a4.21,4.21,0,0,1,1.77.36,3.3,3.3,0,0,1,1.28,1,3.18,3.18,0,0,1,.63,1.52h-1.43a2.28,2.28,0,0,0-.72-1.13,2.22,2.22,0,0,0-1.5-.49,2.56,2.56,0,0,0-1.46.43,2.83,2.83,0,0,0-1,1.22,4.49,4.49,0,0,0-.35,1.83,4.66,4.66,0,0,0,.34,1.87,2.89,2.89,0,0,0,1,1.24,2.53,2.53,0,0,0,1.47.44,2.56,2.56,0,0,0,1-.2,2,2,0,0,0,.76-.55,2.12,2.12,0,0,0,.45-.87h1.43a3.39,3.39,0,0,1-.6,1.48,3.34,3.34,0,0,1-1.25,1A4,4,0,0,1,652,186.59Z"/><path class="cls-8" d="M661.75,177.12v1.21H657v-1.21Zm-3.4-2.22h1.42v8.84a1.78,1.78,0,0,0,.18.9.89.89,0,0,0,.46.4,1.72,1.72,0,0,0,.6.1,2,2,0,0,0,.38,0l.24,0,.29,1.28-.4.11a3,3,0,0,1-.66.06,2.92,2.92,0,0,1-1.18-.26,2.42,2.42,0,0,1-.95-.79,2.3,2.3,0,0,1-.38-1.34Z"/><path class="cls-8" d="M667.69,186.59a4.26,4.26,0,0,1-2.3-.6,3.9,3.9,0,0,1-1.5-1.66,6.29,6.29,0,0,1,0-5,4.1,4.1,0,0,1,1.47-1.71,4,4,0,0,1,2.19-.61,4.42,4.42,0,0,1,1.43.24,3.6,3.6,0,0,1,1.29.78,4,4,0,0,1,.92,1.43,6.07,6.07,0,0,1,.34,2.19v.6h-7.14V181h5.69a3,3,0,0,0-.31-1.4,2.36,2.36,0,0,0-.88-1,2.46,2.46,0,0,0-1.34-.36,2.54,2.54,0,0,0-1.47.42,2.78,2.78,0,0,0-1,1.09,3.24,3.24,0,0,0-.33,1.44v.82a4,4,0,0,0,.36,1.78,2.65,2.65,0,0,0,1,1.1,3.24,3.24,0,0,0,2.53.22,2.18,2.18,0,0,0,.79-.48,2.24,2.24,0,0,0,.51-.81l1.38.39a3.11,3.11,0,0,1-.73,1.22,3.5,3.5,0,0,1-1.27.83A4.77,4.77,0,0,1,667.69,186.59Z"/><path class="cls-8" d="M677.21,186.59a3.65,3.65,0,0,1-2.05-.59,4,4,0,0,1-1.39-1.67,6,6,0,0,1-.5-2.55,6,6,0,0,1,.5-2.53,3.89,3.89,0,0,1,1.4-1.66,3.66,3.66,0,0,1,2.06-.59,2.94,2.94,0,0,1,1.44.3,2.66,2.66,0,0,1,.81.68c.18.25.33.45.43.62H680V174h1.43V186.4h-1.38V185h-.17c-.1.17-.25.38-.44.64a2.75,2.75,0,0,1-.83.68A3,3,0,0,1,677.21,186.59Zm.19-1.28a2.32,2.32,0,0,0,1.45-.45,2.79,2.79,0,0,0,.9-1.25,5.23,5.23,0,0,0,.31-1.85,5.07,5.07,0,0,0-.3-1.82,2.7,2.7,0,0,0-.9-1.22,2.39,2.39,0,0,0-1.46-.44,2.43,2.43,0,0,0-1.5.46A2.83,2.83,0,0,0,675,180a5,5,0,0,0-.3,1.77,5.05,5.05,0,0,0,.3,1.79,2.83,2.83,0,0,0,.91,1.28A2.32,2.32,0,0,0,677.4,185.31Z"/><path class="cls-8" d="M693.07,177.12v1.21h-4.8v-1.21Zm-3.4-2.22h1.42v8.84a1.78,1.78,0,0,0,.18.9.89.89,0,0,0,.46.4,1.72,1.72,0,0,0,.6.1,2,2,0,0,0,.38,0l.24,0,.29,1.28-.4.11a3,3,0,0,1-.66.06,2.89,2.89,0,0,1-1.18-.26,2.42,2.42,0,0,1-1-.79,2.23,2.23,0,0,1-.38-1.34Z"/><path class="cls-8" d="M696.84,180.82v5.58h-1.43V174h1.43v4.54H697a2.59,2.59,0,0,1,1-1.14,3.13,3.13,0,0,1,1.75-.43,3.53,3.53,0,0,1,1.66.38,2.68,2.68,0,0,1,1.11,1.15,4.4,4.4,0,0,1,.39,2v5.9h-1.42v-5.8a2.39,2.39,0,0,0-.57-1.71,2,2,0,0,0-1.58-.61,2.54,2.54,0,0,0-1.25.3,2.06,2.06,0,0,0-.87.86A2.82,2.82,0,0,0,696.84,180.82Z"/><path class="cls-8" d="M709.35,186.59A4.27,4.27,0,0,1,707,186a3.88,3.88,0,0,1-1.49-1.66,6.29,6.29,0,0,1,0-5,4.08,4.08,0,0,1,1.46-1.71,4,4,0,0,1,2.19-.61,4.38,4.38,0,0,1,1.43.24,3.6,3.6,0,0,1,1.29.78,3.84,3.84,0,0,1,.92,1.43,6.05,6.05,0,0,1,.35,2.19v.6H706V181h5.7a3.17,3.17,0,0,0-.31-1.4,2.43,2.43,0,0,0-.88-1,2.47,2.47,0,0,0-1.35-.36,2.59,2.59,0,0,0-1.47.42,2.78,2.78,0,0,0-1,1.09,3.24,3.24,0,0,0-.33,1.44v.82a3.87,3.87,0,0,0,.37,1.78,2.57,2.57,0,0,0,1,1.1,3.27,3.27,0,0,0,2.54.22,2.22,2.22,0,0,0,.78-.48,2.26,2.26,0,0,0,.52-.81l1.37.39a3,3,0,0,1-.73,1.22,3.42,3.42,0,0,1-1.27.83A4.71,4.71,0,0,1,709.35,186.59Z"/><path class="cls-8" d="M720.14,189.87V177.12h1.38v1.48h.17c.1-.17.25-.37.43-.62a2.66,2.66,0,0,1,.81-.68,2.94,2.94,0,0,1,1.44-.3,3.66,3.66,0,0,1,2.06.59,3.89,3.89,0,0,1,1.4,1.66,6,6,0,0,1,.5,2.53,6,6,0,0,1-.5,2.55,4,4,0,0,1-1.39,1.67,3.65,3.65,0,0,1-2.05.59,3,3,0,0,1-1.43-.3,2.75,2.75,0,0,1-.83-.68c-.19-.26-.34-.47-.44-.64h-.12v4.9Zm1.4-8.11a5.23,5.23,0,0,0,.31,1.85,2.87,2.87,0,0,0,.9,1.25,2.56,2.56,0,0,0,2.94,0,2.83,2.83,0,0,0,.91-1.28,5.05,5.05,0,0,0,.3-1.79,5,5,0,0,0-.3-1.77,2.68,2.68,0,0,0-.9-1.25,2.43,2.43,0,0,0-1.5-.46,2.39,2.39,0,0,0-1.46.44,2.7,2.7,0,0,0-.9,1.22A5.07,5.07,0,0,0,721.54,181.76Z"/><path class="cls-8" d="M730.5,186.4v-9.28h1.38v1.4H732a2.21,2.21,0,0,1,.92-1.11,2.66,2.66,0,0,1,1.5-.43h.39l.36,0v1.45l-.33-.06a4.56,4.56,0,0,0-.54,0,2.66,2.66,0,0,0-1.21.28,2.15,2.15,0,0,0-.83.78,2.09,2.09,0,0,0-.3,1.12v5.87Z"/><path class="cls-8" d="M740.31,186.59a3.92,3.92,0,0,1-3.68-2.27,5.66,5.66,0,0,1-.53-2.51,5.72,5.72,0,0,1,.53-2.53,4.06,4.06,0,0,1,7.35,0,5.72,5.72,0,0,1,.53,2.53,5.66,5.66,0,0,1-.53,2.51,3.92,3.92,0,0,1-3.67,2.27Zm0-1.28a2.41,2.41,0,0,0,1.56-.49,2.89,2.89,0,0,0,.92-1.29,5,5,0,0,0,.29-1.72,5.21,5.21,0,0,0-.29-1.74,2.89,2.89,0,0,0-.92-1.29,2.7,2.7,0,0,0-3.13,0,3,3,0,0,0-.92,1.29,5.21,5.21,0,0,0-.29,1.74,5,5,0,0,0,.29,1.72,3,3,0,0,0,.92,1.29A2.42,2.42,0,0,0,740.31,185.31Z"/><path class="cls-8" d="M750.71,177.12v1.21h-4.8v-1.21Zm-3.4-2.22h1.42v8.84a1.78,1.78,0,0,0,.18.9.89.89,0,0,0,.46.4,1.66,1.66,0,0,0,.59.1,2.06,2.06,0,0,0,.39,0l.24,0,.29,1.28-.4.11a3.1,3.1,0,0,1-.66.06,2.89,2.89,0,0,1-1.18-.26,2.35,2.35,0,0,1-.95-.79,2.23,2.23,0,0,1-.38-1.34Z"/><path class="cls-8" d="M756.65,186.59a4.32,4.32,0,0,1-2.31-.6,3.94,3.94,0,0,1-1.49-1.66,6.29,6.29,0,0,1,0-5,4.15,4.15,0,0,1,1.46-1.71,4,4,0,0,1,2.2-.61,4.42,4.42,0,0,1,1.43.24,3.48,3.48,0,0,1,1.28.78,3.86,3.86,0,0,1,.93,1.43,6.07,6.07,0,0,1,.34,2.19v.6h-7.15V181H759a3,3,0,0,0-.31-1.4,2.36,2.36,0,0,0-.88-1,2.46,2.46,0,0,0-1.34-.36,2.54,2.54,0,0,0-1.47.42,2.7,2.7,0,0,0-.95,1.09,3.24,3.24,0,0,0-.34,1.44v.82a4,4,0,0,0,.37,1.78,2.53,2.53,0,0,0,1,1.1,3.24,3.24,0,0,0,2.53.22,2.27,2.27,0,0,0,.79-.48,2.24,2.24,0,0,0,.51-.81l1.38.39a3.11,3.11,0,0,1-.73,1.22,3.59,3.59,0,0,1-1.27.83A4.77,4.77,0,0,1,756.65,186.59Z"/><path class="cls-8" d="M763.39,175.58a1,1,0,0,1-.72-.29.92.92,0,0,1-.29-.68.94.94,0,0,1,.29-.68,1.07,1.07,0,0,1,1.44,0,.94.94,0,0,1,.29.68.92.92,0,0,1-.29.68A1,1,0,0,1,763.39,175.58Zm-.73,10.82v-9.28h1.43v9.28Z"/><path class="cls-8" d="M768.12,180.82v5.58H766.7v-9.28h1.37v1.45h.12a2.73,2.73,0,0,1,1-1.14,3.2,3.2,0,0,1,1.72-.43,3.35,3.35,0,0,1,1.65.39,2.66,2.66,0,0,1,1.1,1.15,4.36,4.36,0,0,1,.39,2v5.9h-1.43v-5.8a2.46,2.46,0,0,0-.56-1.71,2.06,2.06,0,0,0-1.56-.61,2.45,2.45,0,0,0-1.22.3,2.11,2.11,0,0,0-.84.86A2.81,2.81,0,0,0,768.12,180.82Z"/><path class="cls-8" d="M783.21,179.2l-1.27.36a2.62,2.62,0,0,0-.36-.62,1.61,1.61,0,0,0-.63-.51,2.28,2.28,0,0,0-1-.2,2.4,2.4,0,0,0-1.41.39,1.16,1.16,0,0,0-.57,1,1,1,0,0,0,.39.84,3.33,3.33,0,0,0,1.2.51l1.38.34a3.78,3.78,0,0,1,1.85.92,2.15,2.15,0,0,1,.61,1.59,2.41,2.41,0,0,1-.45,1.43,3.28,3.28,0,0,1-1.27,1,4.7,4.7,0,0,1-1.9.36,4.19,4.19,0,0,1-2.35-.62,2.7,2.7,0,0,1-1.17-1.8l1.35-.33a1.9,1.9,0,0,0,.73,1.12,2.43,2.43,0,0,0,1.42.37,2.67,2.67,0,0,0,1.58-.42,1.26,1.26,0,0,0,.59-1,1.07,1.07,0,0,0-.34-.81,2.15,2.15,0,0,0-1-.49l-1.54-.36a3.7,3.7,0,0,1-1.87-.94,2.25,2.25,0,0,1-.59-1.6,2.28,2.28,0,0,1,.44-1.39,2.94,2.94,0,0,1,1.21-.94,4.27,4.27,0,0,1,1.75-.35,3.47,3.47,0,0,1,2.16.6A3.27,3.27,0,0,1,783.21,179.2Z"/><path class="cls-8" d="M794.35,177.12v1.21h-4.81v-1.21Zm-3.41-2.22h1.43v8.84a1.91,1.91,0,0,0,.17.9.92.92,0,0,0,.46.4,1.72,1.72,0,0,0,.6.1,2.13,2.13,0,0,0,.39,0l.24,0,.29,1.28-.41.11a3,3,0,0,1-.66.06,2.92,2.92,0,0,1-1.18-.26,2.42,2.42,0,0,1-.95-.79,2.3,2.3,0,0,1-.38-1.34Z"/><path class="cls-8" d="M800.17,186.59a4,4,0,0,1-2.2-.6,4.15,4.15,0,0,1-1.48-1.67,5.66,5.66,0,0,1-.53-2.51,5.72,5.72,0,0,1,.53-2.53A4.11,4.11,0,0,1,798,177.6a4.06,4.06,0,0,1,5.87,1.68,5.72,5.72,0,0,1,.53,2.53,5.66,5.66,0,0,1-.53,2.51,3.92,3.92,0,0,1-3.67,2.27Zm0-1.28a2.43,2.43,0,0,0,1.57-.49,3,3,0,0,0,.91-1.29,5,5,0,0,0,.29-1.72,5.21,5.21,0,0,0-.29-1.74,3,3,0,0,0-.91-1.29,2.71,2.71,0,0,0-3.14,0,2.87,2.87,0,0,0-.91,1.29,5,5,0,0,0-.3,1.74,4.82,4.82,0,0,0,.3,1.72,2.87,2.87,0,0,0,.91,1.29A2.42,2.42,0,0,0,800.17,185.31Z"/><path class="cls-8" d="M815.36,177.12v1.21h-4.81v-1.21ZM812,174.9h1.42v8.84a1.78,1.78,0,0,0,.18.9.92.92,0,0,0,.46.4,1.72,1.72,0,0,0,.6.1,2,2,0,0,0,.38,0l.24,0,.29,1.28-.4.11a3,3,0,0,1-.66.06,2.92,2.92,0,0,1-1.18-.26,2.42,2.42,0,0,1-.95-.79,2.3,2.3,0,0,1-.38-1.34Z"/><path class="cls-8" d="M817.5,186.4v-9.28h1.38v1.4h.1a2.19,2.19,0,0,1,.91-1.11,2.71,2.71,0,0,1,1.5-.43h.39l.36,0v1.45l-.33-.06a4.56,4.56,0,0,0-.54,0,2.59,2.59,0,0,0-1.2.28,2.18,2.18,0,0,0-.84.78,2.09,2.09,0,0,0-.3,1.12v5.87Z"/><path class="cls-8" d="M826.56,186.61a3.78,3.78,0,0,1-1.6-.33,2.62,2.62,0,0,1-1.56-2.52,2.37,2.37,0,0,1,.31-1.29,2.25,2.25,0,0,1,.84-.78,4.34,4.34,0,0,1,1.16-.43c.43-.09.85-.17,1.28-.23l1.38-.16a2.16,2.16,0,0,0,.77-.2.5.5,0,0,0,.24-.48v-.05a1.92,1.92,0,0,0-.48-1.39,2,2,0,0,0-1.47-.49,2.6,2.6,0,0,0-1.6.44,2.67,2.67,0,0,0-.82,1l-1.35-.48a3.21,3.21,0,0,1,1-1.32,3.71,3.71,0,0,1,1.33-.67,5.39,5.39,0,0,1,1.42-.19,5.94,5.94,0,0,1,1,.11,3.33,3.33,0,0,1,1.13.43,2.63,2.63,0,0,1,.91,1,3.7,3.7,0,0,1,.36,1.77v6.11h-1.43v-1.26h-.07a2.76,2.76,0,0,1-.48.65,2.85,2.85,0,0,1-.9.58A3.5,3.5,0,0,1,826.56,186.61Zm.22-1.28a2.81,2.81,0,0,0,1.42-.33,2.3,2.3,0,0,0,.89-.86,2.16,2.16,0,0,0,.29-1.1v-1.31a.77.77,0,0,1-.39.2,5.31,5.31,0,0,1-.7.15l-.77.11-.6.08a4.7,4.7,0,0,0-1,.23,1.72,1.72,0,0,0-.78.48,1.22,1.22,0,0,0-.29.86,1.28,1.28,0,0,0,.55,1.12A2.47,2.47,0,0,0,826.78,185.33Z"/><path class="cls-8" d="M837.18,186.59a3.9,3.9,0,0,1-3.69-2.31,6.25,6.25,0,0,1,0-5,4.14,4.14,0,0,1,1.47-1.7,4,4,0,0,1,2.19-.61,4.16,4.16,0,0,1,1.76.36,3.33,3.33,0,0,1,1.29,1,3.17,3.17,0,0,1,.62,1.52h-1.42a2.19,2.19,0,0,0-2.23-1.62,2.53,2.53,0,0,0-1.45.43,2.92,2.92,0,0,0-1,1.22,4.49,4.49,0,0,0-.34,1.83,4.66,4.66,0,0,0,.34,1.87,3,3,0,0,0,1,1.24,2.67,2.67,0,0,0,2.48.24,2,2,0,0,0,.77-.55,2.12,2.12,0,0,0,.45-.87h1.42a3.37,3.37,0,0,1-.59,1.48,3.41,3.41,0,0,1-1.25,1A4,4,0,0,1,837.18,186.59Z"/><path class="cls-8" d="M842.91,186.4V174h1.42V186.4Zm1.33-3.39,0-1.76h.29l4.06-4.13h1.76L846,181.49h-.12Zm4.56,3.39-3.62-4.59,1-1,4.42,5.58Z"/><path class="cls-8" d="M859,186.4l-2.83-9.28h1.5l2,7.1h.1l2-7.1h1.52l2,7.08h.09l2-7.08h1.5L866,186.4h-1.4l-2-7.13h-.14l-2,7.13Z"/><path class="cls-8" d="M874.32,186.59A4.32,4.32,0,0,1,872,186a3.94,3.94,0,0,1-1.49-1.66,6.29,6.29,0,0,1,0-5,4.15,4.15,0,0,1,1.46-1.71,4,4,0,0,1,2.2-.61,4.42,4.42,0,0,1,1.43.24,3.6,3.6,0,0,1,1.29.78,4,4,0,0,1,.92,1.43,6.07,6.07,0,0,1,.34,2.19v.6H871V181h5.69a3,3,0,0,0-.31-1.4,2.36,2.36,0,0,0-.88-1,2.46,2.46,0,0,0-1.34-.36,2.54,2.54,0,0,0-1.47.42,2.78,2.78,0,0,0-1,1.09,3.24,3.24,0,0,0-.33,1.44v.82a4,4,0,0,0,.36,1.78,2.53,2.53,0,0,0,1,1.1,3.24,3.24,0,0,0,2.53.22,2.27,2.27,0,0,0,.79-.48,2.24,2.24,0,0,0,.51-.81l1.38.39a3.11,3.11,0,0,1-.73,1.22,3.5,3.5,0,0,1-1.27.83A4.77,4.77,0,0,1,874.32,186.59Z"/><path class="cls-8" d="M517.86,210.27V197.52h1.38V199h.16c.11-.17.25-.37.44-.62a2.66,2.66,0,0,1,.81-.68,2.9,2.9,0,0,1,1.43-.3,3.69,3.69,0,0,1,2.07.59,3.81,3.81,0,0,1,1.39,1.66,6.7,6.7,0,0,1,0,5.08,3.88,3.88,0,0,1-1.38,1.67,3.67,3.67,0,0,1-2,.59,2.92,2.92,0,0,1-1.43-.3,2.64,2.64,0,0,1-.83-.68c-.19-.26-.34-.47-.45-.64h-.12v4.9Zm1.4-8.11a5,5,0,0,0,.31,1.85,2.72,2.72,0,0,0,.9,1.25,2.29,2.29,0,0,0,1.44.45,2.33,2.33,0,0,0,1.5-.48,2.9,2.9,0,0,0,.91-1.28,5.05,5.05,0,0,0,.3-1.79,5,5,0,0,0-.3-1.77,2.83,2.83,0,0,0-.9-1.25,2.68,2.68,0,0,0-3,0,2.68,2.68,0,0,0-.89,1.22A5.07,5.07,0,0,0,519.26,202.16Z"/><path class="cls-8" d="M529.64,194.43V206.8h-1.42V194.43Z"/><path class="cls-8" d="M536,207a4,4,0,0,1-2.2-.6,4.08,4.08,0,0,1-1.48-1.67,5.66,5.66,0,0,1-.52-2.51,5.72,5.72,0,0,1,.52-2.53,4.11,4.11,0,0,1,1.48-1.68,4.06,4.06,0,0,1,5.87,1.68,5.72,5.72,0,0,1,.53,2.53,5.66,5.66,0,0,1-.53,2.51,4,4,0,0,1-1.47,1.67A4,4,0,0,1,536,207Zm0-1.28a2.43,2.43,0,0,0,1.57-.49,2.89,2.89,0,0,0,.91-1.29,4.82,4.82,0,0,0,.29-1.72,4.87,4.87,0,0,0-.29-1.73,2.92,2.92,0,0,0-.91-1.3,2.71,2.71,0,0,0-3.14,0,2.85,2.85,0,0,0-.91,1.3,4.87,4.87,0,0,0-.3,1.73,4.82,4.82,0,0,0,.3,1.72,2.82,2.82,0,0,0,.91,1.29A2.42,2.42,0,0,0,536,205.71Z"/><path class="cls-8" d="M546.42,197.52v1.21h-4.8v-1.21ZM543,195.3h1.42v8.84a1.78,1.78,0,0,0,.18.9.89.89,0,0,0,.46.4,1.72,1.72,0,0,0,.6.1,2,2,0,0,0,.38,0l.24,0,.29,1.28-.4.11a3,3,0,0,1-.66.06,2.92,2.92,0,0,1-1.18-.26,2.42,2.42,0,0,1-1-.79,2.3,2.3,0,0,1-.38-1.34Z"/><path class="cls-8" d="M557.39,197.52v1.21h-4.81v-1.21ZM554,195.3h1.43v8.84a1.91,1.91,0,0,0,.17.9.92.92,0,0,0,.46.4,1.72,1.72,0,0,0,.6.1,2.13,2.13,0,0,0,.39,0l.24,0,.29,1.28-.41.11a3,3,0,0,1-.66.06,2.92,2.92,0,0,1-1.18-.26,2.42,2.42,0,0,1-.95-.79,2.3,2.3,0,0,1-.38-1.34Z"/><path class="cls-8" d="M561.15,201.22v5.58h-1.42V194.43h1.42V199h.13a2.53,2.53,0,0,1,1-1.14,3.09,3.09,0,0,1,1.74-.43,3.48,3.48,0,0,1,1.66.38,2.58,2.58,0,0,1,1.11,1.15,4.27,4.27,0,0,1,.4,2v5.9h-1.43V201a2.39,2.39,0,0,0-.57-1.71,2,2,0,0,0-1.58-.61,2.6,2.6,0,0,0-1.25.3,2.12,2.12,0,0,0-.87.86A2.82,2.82,0,0,0,561.15,201.22Z"/><path class="cls-8" d="M573.66,207a4.32,4.32,0,0,1-2.31-.6,3.94,3.94,0,0,1-1.49-1.66,6.29,6.29,0,0,1,0-5,4.06,4.06,0,0,1,1.46-1.7,3.94,3.94,0,0,1,2.2-.62,4.42,4.42,0,0,1,1.43.24,3.38,3.38,0,0,1,1.28.79,3.74,3.74,0,0,1,.93,1.42,6.07,6.07,0,0,1,.34,2.19v.6h-7.15v-1.23h5.7a3,3,0,0,0-.31-1.4,2.36,2.36,0,0,0-.88-1,2.46,2.46,0,0,0-1.34-.36,2.54,2.54,0,0,0-1.47.42,2.7,2.7,0,0,0-.95,1.09,3.12,3.12,0,0,0-.34,1.44v.82a4,4,0,0,0,.37,1.78,2.53,2.53,0,0,0,1,1.1,3.24,3.24,0,0,0,2.53.22,2.27,2.27,0,0,0,.79-.48,2.24,2.24,0,0,0,.51-.81l1.38.39a3.11,3.11,0,0,1-.73,1.22,3.59,3.59,0,0,1-1.27.83A4.77,4.77,0,0,1,573.66,207Z"/><path class="cls-8" d="M580.4,196a1,1,0,0,1-.72-.29.92.92,0,0,1-.29-.68.94.94,0,0,1,.29-.68,1.07,1.07,0,0,1,1.44,0,.94.94,0,0,1,.29.68.92.92,0,0,1-.29.68A1,1,0,0,1,580.4,196Zm-.73,10.82v-9.28h1.43v9.28Z"/><path class="cls-8" d="M583.71,206.8v-9.28h1.37v1.4h.1a2.21,2.21,0,0,1,.92-1.11,2.65,2.65,0,0,1,1.49-.43h.4l.35,0v1.45l-.33-.06a4.56,4.56,0,0,0-.54,0,2.59,2.59,0,0,0-1.2.28,2.15,2.15,0,0,0-.83.78,2,2,0,0,0-.31,1.12v5.87Z"/><path class="cls-8" d="M594.81,206.8v-9.28h1.38V199h.12a2.32,2.32,0,0,1,.94-1.15,2.79,2.79,0,0,1,1.55-.42,2.65,2.65,0,0,1,1.53.42,2.73,2.73,0,0,1,1,1.15h.09a2.73,2.73,0,0,1,1.07-1.14,3.24,3.24,0,0,1,1.71-.43,2.75,2.75,0,0,1,2,.78,3.23,3.23,0,0,1,.8,2.41v6.21h-1.43v-6.21a1.79,1.79,0,0,0-.56-1.47,2.12,2.12,0,0,0-1.32-.44,2,2,0,0,0-1.52.59,2.12,2.12,0,0,0-.54,1.49v6h-1.44v-6.36a1.68,1.68,0,0,0-.52-1.27,1.81,1.81,0,0,0-1.32-.49,1.93,1.93,0,0,0-1,.3,2.34,2.34,0,0,0-.77.82,2.45,2.45,0,0,0-.29,1.2v5.8Z"/><path class="cls-8" d="M613.36,207a3.92,3.92,0,0,1-3.67-2.27,5.52,5.52,0,0,1-.53-2.51,5.58,5.58,0,0,1,.53-2.53,4.06,4.06,0,0,1,7.34,0,5.58,5.58,0,0,1,.53,2.53,5.52,5.52,0,0,1-.53,2.51,3.92,3.92,0,0,1-3.67,2.27Zm0-1.28a2.42,2.42,0,0,0,1.57-.49,2.89,2.89,0,0,0,.91-1.29,4.82,4.82,0,0,0,.3-1.72,4.87,4.87,0,0,0-.3-1.73,2.92,2.92,0,0,0-.91-1.3,2.71,2.71,0,0,0-3.14,0,2.92,2.92,0,0,0-.91,1.3,4.87,4.87,0,0,0-.3,1.73,4.82,4.82,0,0,0,.3,1.72,2.89,2.89,0,0,0,.91,1.29A2.42,2.42,0,0,0,613.36,205.71Z"/><path class="cls-8" d="M627,197.52l-3.43,9.28H622.1l-3.43-9.28h1.55l2.56,7.39h.09l2.56-7.39Z"/><path class="cls-8" d="M632.41,207a4.32,4.32,0,0,1-2.31-.6,3.94,3.94,0,0,1-1.49-1.66,6.29,6.29,0,0,1,0-5,4.06,4.06,0,0,1,1.46-1.7,3.94,3.94,0,0,1,2.2-.62,4.42,4.42,0,0,1,1.43.24,3.38,3.38,0,0,1,1.28.79,3.74,3.74,0,0,1,.93,1.42,6.07,6.07,0,0,1,.34,2.19v.6H629.1v-1.23h5.7a3,3,0,0,0-.31-1.4,2.43,2.43,0,0,0-.88-1,2.46,2.46,0,0,0-1.34-.36,2.54,2.54,0,0,0-1.47.42,2.7,2.7,0,0,0-.95,1.09,3.12,3.12,0,0,0-.34,1.44v.82a4,4,0,0,0,.37,1.78,2.53,2.53,0,0,0,1,1.1,3.24,3.24,0,0,0,2.53.22,2.27,2.27,0,0,0,.79-.48,2.24,2.24,0,0,0,.51-.81l1.38.39a3.11,3.11,0,0,1-.73,1.22,3.59,3.59,0,0,1-1.27.83A4.81,4.81,0,0,1,632.41,207Z"/><path class="cls-8" d="M638.42,206.8v-9.28h1.38V199h.12a2.32,2.32,0,0,1,.94-1.15,2.76,2.76,0,0,1,1.55-.42,2.65,2.65,0,0,1,1.53.42,2.73,2.73,0,0,1,1,1.15H645a2.73,2.73,0,0,1,1.07-1.14,3.24,3.24,0,0,1,1.71-.43,2.75,2.75,0,0,1,2,.78,3.22,3.22,0,0,1,.79,2.41v6.21h-1.42v-6.21a1.79,1.79,0,0,0-.56-1.47,2.12,2.12,0,0,0-1.32-.44,2,2,0,0,0-1.52.59,2.12,2.12,0,0,0-.54,1.49v6h-1.44v-6.36a1.68,1.68,0,0,0-.52-1.27,1.81,1.81,0,0,0-1.32-.49,1.93,1.93,0,0,0-1,.3,2.25,2.25,0,0,0-.77.82,2.45,2.45,0,0,0-.29,1.2v5.8Z"/><path class="cls-8" d="M657.09,207a4.32,4.32,0,0,1-2.31-.6,3.88,3.88,0,0,1-1.49-1.66,6.29,6.29,0,0,1,0-5,4,4,0,0,1,1.46-1.7,3.94,3.94,0,0,1,2.2-.62,4.42,4.42,0,0,1,1.43.24,3.38,3.38,0,0,1,1.28.79,3.74,3.74,0,0,1,.93,1.42,6.07,6.07,0,0,1,.34,2.19v.6h-7.15v-1.23h5.7a3,3,0,0,0-.31-1.4,2.43,2.43,0,0,0-.88-1,2.46,2.46,0,0,0-1.34-.36,2.54,2.54,0,0,0-1.47.42,2.81,2.81,0,0,0-1,1.09,3.24,3.24,0,0,0-.33,1.44v.82a3.87,3.87,0,0,0,.37,1.78,2.53,2.53,0,0,0,1,1.1,2.94,2.94,0,0,0,1.51.38,3,3,0,0,0,1-.16,2.36,2.36,0,0,0,.79-.48,2.24,2.24,0,0,0,.51-.81l1.38.39a3,3,0,0,1-.74,1.22,3.46,3.46,0,0,1-1.26.83A4.81,4.81,0,0,1,657.09,207Z"/><path class="cls-8" d="M664.53,201.22v5.58H663.1v-9.28h1.38V199h.12a2.73,2.73,0,0,1,1-1.14,3.14,3.14,0,0,1,1.71-.43,3.35,3.35,0,0,1,1.65.39,2.61,2.61,0,0,1,1.1,1.15,4.36,4.36,0,0,1,.39,2v5.9H669V201a2.42,2.42,0,0,0-.57-1.71,2.06,2.06,0,0,0-1.56-.61,2.41,2.41,0,0,0-1.21.3,2.13,2.13,0,0,0-.85.86A2.93,2.93,0,0,0,664.53,201.22Z"/><path class="cls-8" d="M677.08,197.52v1.21h-4.8v-1.21Zm-3.4-2.22h1.42v8.84a1.78,1.78,0,0,0,.18.9.89.89,0,0,0,.46.4,1.72,1.72,0,0,0,.6.1,2,2,0,0,0,.38,0l.24,0,.29,1.28-.4.11a3,3,0,0,1-.66.06,2.92,2.92,0,0,1-1.18-.26,2.42,2.42,0,0,1-1-.79,2.3,2.3,0,0,1-.38-1.34Z"/><path class="cls-8" d="M686.74,207a3.82,3.82,0,0,1-1.6-.33,2.62,2.62,0,0,1-1.56-2.52,2.37,2.37,0,0,1,.31-1.29,2.25,2.25,0,0,1,.84-.78,4.64,4.64,0,0,1,1.17-.43c.42-.09.85-.17,1.28-.22s1-.13,1.37-.17a2.16,2.16,0,0,0,.77-.2.49.49,0,0,0,.25-.48v-.05a1.89,1.89,0,0,0-.49-1.39,2,2,0,0,0-1.47-.49,2.62,2.62,0,0,0-1.6.44,2.74,2.74,0,0,0-.81,1l-1.35-.48a3.19,3.19,0,0,1,1-1.32,3.71,3.71,0,0,1,1.33-.67,5.17,5.17,0,0,1,2.45-.08,3.26,3.26,0,0,1,1.13.43,2.48,2.48,0,0,1,.91,1,3.7,3.7,0,0,1,.36,1.77v6.11h-1.42v-1.26h-.07a2.57,2.57,0,0,1-.49.65,2.64,2.64,0,0,1-.9.58A3.47,3.47,0,0,1,686.74,207Zm.22-1.28a2.88,2.88,0,0,0,1.43-.33,2.28,2.28,0,0,0,.88-.86,2.17,2.17,0,0,0,.3-1.1v-1.3a.86.86,0,0,1-.4.19,5,5,0,0,1-.7.15l-.76.11-.6.08a4.79,4.79,0,0,0-1,.23,1.72,1.72,0,0,0-.77.48,1.18,1.18,0,0,0-.3.86,1.29,1.29,0,0,0,.56,1.12A2.43,2.43,0,0,0,687,205.73Z"/><path class="cls-8" d="M697.37,207a3.9,3.9,0,0,1-3.7-2.31,5.89,5.89,0,0,1-.5-2.47,5.67,5.67,0,0,1,.52-2.5,4,4,0,0,1,1.46-1.69,3.93,3.93,0,0,1,2.19-.62,4.21,4.21,0,0,1,1.77.36,3.39,3.39,0,0,1,1.28,1,3.18,3.18,0,0,1,.63,1.52h-1.43a2.28,2.28,0,0,0-.72-1.13,2.22,2.22,0,0,0-1.5-.49,2.56,2.56,0,0,0-1.46.43,2.83,2.83,0,0,0-1,1.22,4.49,4.49,0,0,0-.35,1.83,4.66,4.66,0,0,0,.34,1.87,2.89,2.89,0,0,0,1,1.24,2.53,2.53,0,0,0,1.47.44,2.71,2.71,0,0,0,1-.19,2.12,2.12,0,0,0,1.21-1.43H701a3.39,3.39,0,0,1-.6,1.48,3.34,3.34,0,0,1-1.25,1A4,4,0,0,1,697.37,207Z"/><path class="cls-8" d="M703.09,206.8v-9.28h1.38v1.4h.1a2.14,2.14,0,0,1,.91-1.11,2.68,2.68,0,0,1,1.5-.43h.39l.36,0v1.45l-.33-.06a4.56,4.56,0,0,0-.54,0,2.66,2.66,0,0,0-1.21.28,2.15,2.15,0,0,0-.83.78,2.11,2.11,0,0,0-.3,1.12v5.87Z"/><path class="cls-8" d="M712.9,207a4,4,0,0,1-2.2-.6,4.08,4.08,0,0,1-1.48-1.67,5.66,5.66,0,0,1-.53-2.51,5.72,5.72,0,0,1,.53-2.53A4.11,4.11,0,0,1,710.7,198a4.06,4.06,0,0,1,5.87,1.68,5.72,5.72,0,0,1,.53,2.53,5.66,5.66,0,0,1-.53,2.51,4,4,0,0,1-1.47,1.67A4,4,0,0,1,712.9,207Zm0-1.28a2.43,2.43,0,0,0,1.57-.49,2.89,2.89,0,0,0,.91-1.29,5,5,0,0,0,.29-1.72,5.11,5.11,0,0,0-.29-1.73,2.92,2.92,0,0,0-.91-1.3,2.71,2.71,0,0,0-3.14,0,2.94,2.94,0,0,0-.92,1.3,5.11,5.11,0,0,0-.29,1.73,5,5,0,0,0,.29,1.72,2.91,2.91,0,0,0,.92,1.29A2.42,2.42,0,0,0,712.9,205.71Z"/><path class="cls-8" d="M725.84,199.6l-1.28.36a2.58,2.58,0,0,0-.35-.62,1.89,1.89,0,0,0-.63-.51,2.36,2.36,0,0,0-1-.2,2.44,2.44,0,0,0-1.41.39,1.15,1.15,0,0,0-.56,1,1,1,0,0,0,.38.84,3.22,3.22,0,0,0,1.21.51l1.37.34a3.86,3.86,0,0,1,1.86.92,2.19,2.19,0,0,1,.61,1.59,2.35,2.35,0,0,1-.46,1.43,3,3,0,0,1-1.27,1,4.62,4.62,0,0,1-1.89.36,4.17,4.17,0,0,1-2.35-.62,2.75,2.75,0,0,1-1.18-1.8l1.35-.33a1.91,1.91,0,0,0,.74,1.12,2.42,2.42,0,0,0,1.41.37,2.7,2.7,0,0,0,1.59-.42,1.26,1.26,0,0,0,.59-1,1.11,1.11,0,0,0-.34-.81,2.24,2.24,0,0,0-1-.49l-1.55-.36a3.62,3.62,0,0,1-1.86-.94,2.25,2.25,0,0,1-.6-1.6,2.35,2.35,0,0,1,.44-1.39,3,3,0,0,1,1.22-.94,4.19,4.19,0,0,1,1.74-.35,3.45,3.45,0,0,1,2.17.61A3.27,3.27,0,0,1,725.84,199.6Z"/><path class="cls-8" d="M734.73,199.6l-1.28.36a2.32,2.32,0,0,0-.36-.62,1.71,1.71,0,0,0-.63-.51,2.28,2.28,0,0,0-1-.2A2.4,2.4,0,0,0,730,199a1.16,1.16,0,0,0-.57,1,1,1,0,0,0,.39.84,3.22,3.22,0,0,0,1.21.51l1.37.34a3.86,3.86,0,0,1,1.86.92,2.18,2.18,0,0,1,.6,1.59,2.41,2.41,0,0,1-.45,1.43,3.1,3.1,0,0,1-1.27,1,4.7,4.7,0,0,1-1.9.36,4.19,4.19,0,0,1-2.35-.62,2.7,2.7,0,0,1-1.17-1.8l1.35-.33a1.9,1.9,0,0,0,.73,1.12,2.43,2.43,0,0,0,1.42.37,2.67,2.67,0,0,0,1.58-.42,1.24,1.24,0,0,0,.59-1,1.07,1.07,0,0,0-.34-.81,2.15,2.15,0,0,0-1-.49l-1.54-.36a3.7,3.7,0,0,1-1.87-.94,2.44,2.44,0,0,1-.15-3,3,3,0,0,1,1.21-.94,4.27,4.27,0,0,1,1.75-.35,3.45,3.45,0,0,1,2.17.61A3.33,3.33,0,0,1,734.73,199.6Z"/><path class="cls-8" d="M742.55,196a1,1,0,0,1-.72-.29.92.92,0,0,1-.29-.68.94.94,0,0,1,.29-.68,1.07,1.07,0,0,1,1.44,0,.94.94,0,0,1,.29.68.92.92,0,0,1-.29.68A1,1,0,0,1,742.55,196Zm-.72,10.82v-9.28h1.42v9.28Z"/><path class="cls-8" d="M747.28,201.22v5.58h-1.42v-9.28h1.37V199h.12a2.73,2.73,0,0,1,1-1.14,3.2,3.2,0,0,1,1.72-.43,3.35,3.35,0,0,1,1.65.39,2.66,2.66,0,0,1,1.1,1.15,4.36,4.36,0,0,1,.39,2v5.9h-1.43V201a2.46,2.46,0,0,0-.56-1.71,2.06,2.06,0,0,0-1.56-.61,2.45,2.45,0,0,0-1.22.3,2.17,2.17,0,0,0-.84.86A2.81,2.81,0,0,0,747.28,201.22Z"/><path class="cls-8" d="M759.31,207a3.65,3.65,0,0,1-2-.59,4,4,0,0,1-1.39-1.67,6.7,6.7,0,0,1,0-5.08,3.89,3.89,0,0,1,1.4-1.66,3.66,3.66,0,0,1,2.06-.59,2.94,2.94,0,0,1,1.44.3,2.66,2.66,0,0,1,.81.68c.18.25.33.45.43.62h.12v-4.57h1.43V206.8h-1.38v-1.43H762c-.1.17-.25.38-.44.64a2.75,2.75,0,0,1-.83.68A3,3,0,0,1,759.31,207Zm.19-1.28a2.32,2.32,0,0,0,1.45-.45,2.87,2.87,0,0,0,.9-1.25,5.23,5.23,0,0,0,.31-1.85,5.07,5.07,0,0,0-.3-1.82,2.7,2.7,0,0,0-.9-1.22,2.39,2.39,0,0,0-1.46-.44,2.43,2.43,0,0,0-1.5.46,2.68,2.68,0,0,0-.9,1.25,5,5,0,0,0-.3,1.77,5.05,5.05,0,0,0,.3,1.79,2.83,2.83,0,0,0,.91,1.28A2.32,2.32,0,0,0,759.5,205.71Z"/><path class="cls-8" d="M767.08,196a1,1,0,0,1-.71-.29.9.9,0,0,1-.3-.68.91.91,0,0,1,.3-.68,1.05,1.05,0,0,1,1.43,0,.91.91,0,0,1,.3.68.9.9,0,0,1-.3.68A1,1,0,0,1,767.08,196Zm-.72,10.82v-9.28h1.42v9.28Z"/><path class="cls-8" d="M778,197.52l-3.43,9.28H773.1l-3.43-9.28h1.54l2.56,7.39h.1l2.56-7.39Z"/><path class="cls-8" d="M780.58,196a1,1,0,0,1-.71-.29.9.9,0,0,1-.3-.68.91.91,0,0,1,.3-.68,1,1,0,0,1,.71-.28,1,1,0,0,1,.72.28.91.91,0,0,1,.3.68.9.9,0,0,1-.3.68A1,1,0,0,1,780.58,196Zm-.72,10.82v-9.28h1.42v9.28Z"/><path class="cls-8" d="M787.39,207a3.67,3.67,0,0,1-2-.59,3.88,3.88,0,0,1-1.38-1.67,6.58,6.58,0,0,1,0-5.08,3.81,3.81,0,0,1,1.39-1.66,3.68,3.68,0,0,1,2.06-.59,2.91,2.91,0,0,1,1.44.3,2.66,2.66,0,0,1,.81.68c.19.25.33.45.44.62h.12v-4.57h1.42V206.8h-1.38v-1.43h-.16c-.11.17-.26.38-.45.64a2.64,2.64,0,0,1-.83.68A2.92,2.92,0,0,1,787.39,207Zm.19-1.28a2.3,2.3,0,0,0,1.45-.45,2.72,2.72,0,0,0,.9-1.25,5,5,0,0,0,.31-1.85,5.07,5.07,0,0,0-.3-1.82,2.68,2.68,0,0,0-.89-1.22,2.68,2.68,0,0,0-3,0,2.83,2.83,0,0,0-.9,1.25,5,5,0,0,0-.3,1.77,5.05,5.05,0,0,0,.3,1.79,2.9,2.9,0,0,0,.91,1.28A2.32,2.32,0,0,0,787.58,205.71Z"/><path class="cls-8" d="M800.29,203v-5.48h1.42v9.28h-1.42v-1.57h-.1a3,3,0,0,1-1,1.19,2.91,2.91,0,0,1-1.74.5,3.05,3.05,0,0,1-1.55-.39,2.61,2.61,0,0,1-1.06-1.16,4.33,4.33,0,0,1-.39-2v-5.89h1.43v5.8a2.29,2.29,0,0,0,.57,1.62,1.92,1.92,0,0,0,1.46.6,2.46,2.46,0,0,0,1.08-.27,2.38,2.38,0,0,0,.93-.83A2.57,2.57,0,0,0,800.29,203Z"/><path class="cls-8" d="M807.05,207a3.78,3.78,0,0,1-1.6-.33,2.77,2.77,0,0,1-1.14-1,2.69,2.69,0,0,1-.43-1.55,2.37,2.37,0,0,1,.32-1.29,2.25,2.25,0,0,1,.84-.78,4.57,4.57,0,0,1,1.16-.43c.42-.09.85-.17,1.28-.22s1-.13,1.38-.17a2.22,2.22,0,0,0,.77-.2.5.5,0,0,0,.24-.48v-.05a1.92,1.92,0,0,0-.48-1.39,2,2,0,0,0-1.47-.49,2.6,2.6,0,0,0-1.6.44,2.67,2.67,0,0,0-.82,1l-1.35-.48a3.12,3.12,0,0,1,1-1.32,3.63,3.63,0,0,1,1.33-.67,5.84,5.84,0,0,1,1.42-.19,5.94,5.94,0,0,1,1,.11,3.33,3.33,0,0,1,1.13.43,2.63,2.63,0,0,1,.91,1,3.7,3.7,0,0,1,.36,1.77v6.11h-1.43v-1.26h-.07a2.76,2.76,0,0,1-.48.65,2.85,2.85,0,0,1-.9.58A3.5,3.5,0,0,1,807.05,207Zm.21-1.28a2.85,2.85,0,0,0,1.43-.33,2.28,2.28,0,0,0,.88-.86,2.17,2.17,0,0,0,.3-1.1v-1.3a.87.87,0,0,1-.39.19,5.68,5.68,0,0,1-.7.15l-.77.11-.6.08a4.79,4.79,0,0,0-1,.23,1.78,1.78,0,0,0-.77.48,1.22,1.22,0,0,0-.29.86,1.28,1.28,0,0,0,.55,1.12A2.45,2.45,0,0,0,807.26,205.73Z"/><path class="cls-8" d="M815.33,194.43V206.8h-1.42V194.43Z"/><path class="cls-8" d="M826.85,197.52v1.21h-5v-1.21Zm-3.5,9.28V196.24a2.27,2.27,0,0,1,.37-1.33,2.35,2.35,0,0,1,1-.79,3,3,0,0,1,1.26-.27,3.38,3.38,0,0,1,.86.09,4,4,0,0,1,.5.15l-.41,1.24-.3-.1a2.27,2.27,0,0,0-.5,0,1.29,1.29,0,0,0-1,.36,1.5,1.5,0,0,0-.31,1V206.8Z"/><path class="cls-8" d="M828.85,206.8v-9.28h1.38v1.4h.1a2.19,2.19,0,0,1,.91-1.11,2.71,2.71,0,0,1,1.5-.43h.39l.36,0v1.45l-.33-.06a4.56,4.56,0,0,0-.54,0,2.66,2.66,0,0,0-1.21.28,2.22,2.22,0,0,0-.83.78,2.11,2.11,0,0,0-.3,1.12v5.87Z"/><path class="cls-8" d="M837.91,207a3.78,3.78,0,0,1-1.6-.33,2.77,2.77,0,0,1-1.14-1,2.69,2.69,0,0,1-.43-1.55,2.37,2.37,0,0,1,.32-1.29,2.25,2.25,0,0,1,.84-.78,4.57,4.57,0,0,1,1.16-.43c.42-.09.85-.17,1.28-.22l1.38-.17a2.16,2.16,0,0,0,.77-.2.5.5,0,0,0,.24-.48v-.05a1.92,1.92,0,0,0-.48-1.39,2,2,0,0,0-1.47-.49,2.6,2.6,0,0,0-1.6.44,2.67,2.67,0,0,0-.82,1l-1.35-.48a3.12,3.12,0,0,1,1-1.32,3.63,3.63,0,0,1,1.33-.67,5.84,5.84,0,0,1,1.42-.19,5.94,5.94,0,0,1,1,.11,3.33,3.33,0,0,1,1.13.43,2.63,2.63,0,0,1,.91,1,3.7,3.7,0,0,1,.36,1.77v6.11h-1.43v-1.26h-.07a2.76,2.76,0,0,1-.48.65,2.85,2.85,0,0,1-.9.58A3.5,3.5,0,0,1,837.91,207Zm.21-1.28a2.85,2.85,0,0,0,1.43-.33,2.21,2.21,0,0,0,.88-.86,2.17,2.17,0,0,0,.3-1.1v-1.3a.87.87,0,0,1-.39.19,5.68,5.68,0,0,1-.7.15l-.77.11-.6.08a4.79,4.79,0,0,0-1,.23,1.78,1.78,0,0,0-.77.48,1.22,1.22,0,0,0-.29.86,1.28,1.28,0,0,0,.55,1.12A2.45,2.45,0,0,0,838.12,205.73Z"/><path class="cls-8" d="M844.77,206.8v-9.28h1.37V199h.12a2.38,2.38,0,0,1,.94-1.15,2.79,2.79,0,0,1,1.55-.42,2.65,2.65,0,0,1,1.53.42,2.73,2.73,0,0,1,1,1.15h.09a2.73,2.73,0,0,1,1.07-1.14,3.24,3.24,0,0,1,1.71-.43,2.79,2.79,0,0,1,2,.78,3.27,3.27,0,0,1,.79,2.41v6.21h-1.43v-6.21a1.79,1.79,0,0,0-.56-1.47,2.1,2.1,0,0,0-1.32-.44,2,2,0,0,0-1.52.59,2.11,2.11,0,0,0-.53,1.49v6h-1.45v-6.36a1.64,1.64,0,0,0-.52-1.27,1.81,1.81,0,0,0-1.32-.49,1.9,1.9,0,0,0-1,.3,2.28,2.28,0,0,0-.78.82,2.45,2.45,0,0,0-.29,1.2v5.8Z"/><path class="cls-8" d="M863.43,207a4.32,4.32,0,0,1-2.31-.6,3.94,3.94,0,0,1-1.49-1.66,6.29,6.29,0,0,1,0-5,4.06,4.06,0,0,1,1.46-1.7,3.94,3.94,0,0,1,2.2-.62,4.42,4.42,0,0,1,1.43.24,3.38,3.38,0,0,1,1.28.79,3.74,3.74,0,0,1,.93,1.42,6.07,6.07,0,0,1,.34,2.19v.6h-7.15v-1.23h5.7a3,3,0,0,0-.31-1.4,2.43,2.43,0,0,0-.88-1,2.46,2.46,0,0,0-1.34-.36,2.54,2.54,0,0,0-1.47.42,2.7,2.7,0,0,0-1,1.09,3.12,3.12,0,0,0-.34,1.44v.82a4,4,0,0,0,.37,1.78,2.53,2.53,0,0,0,1,1.1,3.24,3.24,0,0,0,2.53.22,2.27,2.27,0,0,0,.79-.48,2.24,2.24,0,0,0,.51-.81l1.38.39a3.11,3.11,0,0,1-.73,1.22,3.59,3.59,0,0,1-1.27.83A4.81,4.81,0,0,1,863.43,207Z"/><path class="cls-8" d="M876,199.6l-1.28.36a2.28,2.28,0,0,0-.35-.62,1.89,1.89,0,0,0-.63-.51,2.34,2.34,0,0,0-1-.2,2.45,2.45,0,0,0-1.42.39,1.17,1.17,0,0,0-.56,1,1,1,0,0,0,.38.84,3.22,3.22,0,0,0,1.21.51l1.38.34a3.78,3.78,0,0,1,1.85.92,2.15,2.15,0,0,1,.61,1.59,2.41,2.41,0,0,1-.45,1.43,3.07,3.07,0,0,1-1.28,1,4.62,4.62,0,0,1-1.89.36,4.17,4.17,0,0,1-2.35-.62,2.75,2.75,0,0,1-1.18-1.8l1.36-.33a1.85,1.85,0,0,0,.73,1.12,2.43,2.43,0,0,0,1.42.37,2.67,2.67,0,0,0,1.58-.42,1.26,1.26,0,0,0,.59-1,1.07,1.07,0,0,0-.34-.81,2.15,2.15,0,0,0-1-.49l-1.54-.36a3.65,3.65,0,0,1-1.87-.94,2.25,2.25,0,0,1-.6-1.6,2.29,2.29,0,0,1,.45-1.39,3,3,0,0,1,1.21-.94,4.24,4.24,0,0,1,1.75-.35,3.4,3.4,0,0,1,2.16.61A3.2,3.2,0,0,1,876,199.6Z"/><path class="cls-8" d="M879.37,206.89a1,1,0,0,1-.77-.32,1.07,1.07,0,0,1,0-1.53,1.09,1.09,0,0,1,1.54,0,1.07,1.07,0,0,1,.17,1.31,1.12,1.12,0,0,1-.39.39A1.06,1.06,0,0,1,879.37,206.89Z"/><path class="cls-8" d="M520.3,227.19l-3.38-12.36h1.52L521,224.9h.12l2.63-10.07h1.69l2.64,10.07h.12l2.58-10.07h1.52l-3.38,12.36H527.4l-2.73-9.85h-.1l-2.73,9.85Z"/><path class="cls-8" d="M537,227.39a4.27,4.27,0,0,1-2.31-.6,3.88,3.88,0,0,1-1.49-1.66,6.29,6.29,0,0,1,0-5,4.08,4.08,0,0,1,1.46-1.71,4,4,0,0,1,2.19-.61,4.38,4.38,0,0,1,1.43.24,3.6,3.6,0,0,1,1.29.78,3.84,3.84,0,0,1,.92,1.43,6.05,6.05,0,0,1,.35,2.19v.6H533.7v-1.23h5.7a3.17,3.17,0,0,0-.31-1.4,2.43,2.43,0,0,0-.88-1,2.47,2.47,0,0,0-1.35-.36,2.59,2.59,0,0,0-1.47.42,2.78,2.78,0,0,0-.95,1.09,3.24,3.24,0,0,0-.33,1.44v.82a3.87,3.87,0,0,0,.37,1.78,2.57,2.57,0,0,0,1,1.1A3.27,3.27,0,0,0,538,226a2.22,2.22,0,0,0,.78-.48,2.26,2.26,0,0,0,.52-.81l1.37.39a3,3,0,0,1-.73,1.22,3.42,3.42,0,0,1-1.27.83A4.71,4.71,0,0,1,537,227.39Z"/><path class="cls-8" d="M547.8,227.19v-9.27h1.38v1.45h.12a2.27,2.27,0,0,1,.94-1.15,2.74,2.74,0,0,1,1.55-.42,2.65,2.65,0,0,1,1.53.42,2.71,2.71,0,0,1,.95,1.15h.1a2.67,2.67,0,0,1,1.07-1.14,3.19,3.19,0,0,1,1.71-.43,2.77,2.77,0,0,1,2,.78A3.22,3.22,0,0,1,560,221v6.2h-1.42V221a1.79,1.79,0,0,0-.56-1.47,2.13,2.13,0,0,0-1.33-.44,2,2,0,0,0-1.51.59,2.12,2.12,0,0,0-.54,1.49v6h-1.45v-6.35a1.67,1.67,0,0,0-.51-1.27,1.81,1.81,0,0,0-1.32-.49,1.93,1.93,0,0,0-1,.3,2.14,2.14,0,0,0-.77.81,2.38,2.38,0,0,0-.29,1.21v5.79Z"/><path class="cls-8" d="M566.47,227.39a4.27,4.27,0,0,1-2.31-.6,3.88,3.88,0,0,1-1.49-1.66,6.29,6.29,0,0,1,0-5,4.08,4.08,0,0,1,1.46-1.71,4,4,0,0,1,2.19-.61,4.38,4.38,0,0,1,1.43.24,3.6,3.6,0,0,1,1.29.78,3.84,3.84,0,0,1,.92,1.43,6.05,6.05,0,0,1,.35,2.19v.6h-7.15v-1.23h5.7a3.17,3.17,0,0,0-.31-1.4,2.43,2.43,0,0,0-.88-1,2.47,2.47,0,0,0-1.35-.36,2.59,2.59,0,0,0-1.47.42,2.78,2.78,0,0,0-1,1.09,3.24,3.24,0,0,0-.33,1.44v.82a3.87,3.87,0,0,0,.37,1.78,2.57,2.57,0,0,0,1,1.1,3.27,3.27,0,0,0,2.54.22,2.22,2.22,0,0,0,.78-.48,2.26,2.26,0,0,0,.52-.81l1.37.39a3,3,0,0,1-.73,1.22,3.42,3.42,0,0,1-1.27.83A4.71,4.71,0,0,1,566.47,227.39Z"/><path class="cls-8" d="M575.21,227.41a3.78,3.78,0,0,1-1.6-.33,2.65,2.65,0,0,1-1.56-2.52,2.37,2.37,0,0,1,.31-1.29,2.25,2.25,0,0,1,.84-.78,4.34,4.34,0,0,1,1.16-.43c.43-.09.85-.17,1.28-.23l1.38-.16a2.16,2.16,0,0,0,.77-.2A.51.51,0,0,0,578,221v-.05a1.93,1.93,0,0,0-.49-1.39,2,2,0,0,0-1.47-.49,2.62,2.62,0,0,0-1.6.44,2.67,2.67,0,0,0-.82,1l-1.35-.48a3.21,3.21,0,0,1,1-1.32,3.71,3.71,0,0,1,1.33-.67,5.39,5.39,0,0,1,1.42-.19,5.94,5.94,0,0,1,1,.11,3.33,3.33,0,0,1,1.13.43,2.55,2.55,0,0,1,.91,1,3.7,3.7,0,0,1,.36,1.77v6.1H578v-1.25H578a2.5,2.5,0,0,1-.48.65,3,3,0,0,1-.9.58A3.5,3.5,0,0,1,575.21,227.41Zm.22-1.28a2.81,2.81,0,0,0,1.42-.33,2.3,2.3,0,0,0,.89-.86,2.17,2.17,0,0,0,.3-1.1v-1.31a.86.86,0,0,1-.4.2,5.31,5.31,0,0,1-.7.15l-.77.11-.6.08a4.7,4.7,0,0,0-1,.23,1.8,1.8,0,0,0-.78.47,1.27,1.27,0,0,0-.29.87,1.3,1.3,0,0,0,.55,1.12A2.47,2.47,0,0,0,575.43,226.13Z"/><path class="cls-8" d="M588.64,220l-1.28.36a2.32,2.32,0,0,0-.36-.62,1.61,1.61,0,0,0-.63-.51,2.28,2.28,0,0,0-1-.2,2.4,2.4,0,0,0-1.41.39,1.16,1.16,0,0,0-.57,1,1,1,0,0,0,.39.84,3.39,3.39,0,0,0,1.21.51l1.37.34a3.86,3.86,0,0,1,1.86.92,2.18,2.18,0,0,1,.6,1.59,2.41,2.41,0,0,1-.45,1.43,3.28,3.28,0,0,1-1.27,1,4.67,4.67,0,0,1-1.9.36,4.19,4.19,0,0,1-2.35-.62,2.7,2.7,0,0,1-1.17-1.8l1.35-.33a1.9,1.9,0,0,0,.73,1.12,2.46,2.46,0,0,0,1.42.37,2.67,2.67,0,0,0,1.58-.42,1.24,1.24,0,0,0,.59-1,1.07,1.07,0,0,0-.34-.81,2.15,2.15,0,0,0-1-.49l-1.54-.36a3.7,3.7,0,0,1-1.87-.94,2.44,2.44,0,0,1-.15-3,2.94,2.94,0,0,1,1.21-.94,4.27,4.27,0,0,1,1.75-.35,3.52,3.52,0,0,1,2.17.6A3.41,3.41,0,0,1,588.64,220Z"/><path class="cls-8" d="M596.8,223.4v-5.48h1.42v9.27H596.8v-1.56h-.1a3,3,0,0,1-1,1.19,2.91,2.91,0,0,1-1.74.5,3.05,3.05,0,0,1-1.55-.39,2.61,2.61,0,0,1-1.06-1.16,4.33,4.33,0,0,1-.39-2v-5.89h1.43v5.8a2.29,2.29,0,0,0,.57,1.62,1.93,1.93,0,0,0,1.46.6,2.46,2.46,0,0,0,1.08-.27,2.33,2.33,0,0,0,.93-.84A2.51,2.51,0,0,0,596.8,223.4Z"/><path class="cls-8" d="M600.83,227.19v-9.27h1.38v1.4h.09a2.21,2.21,0,0,1,.92-1.11,2.66,2.66,0,0,1,1.5-.43h.39l.36,0v1.45l-.33-.06a4.56,4.56,0,0,0-.54,0,2.66,2.66,0,0,0-1.21.28,2.15,2.15,0,0,0-.83.78,2.09,2.09,0,0,0-.31,1.12v5.86Z"/><path class="cls-8" d="M610.75,227.39a4.26,4.26,0,0,1-2.3-.6,3.9,3.9,0,0,1-1.5-1.66,6.29,6.29,0,0,1,0-5,4.15,4.15,0,0,1,1.46-1.71,4,4,0,0,1,2.2-.61A4.42,4.42,0,0,1,612,218a3.6,3.6,0,0,1,1.29.78,4,4,0,0,1,.92,1.43,6.07,6.07,0,0,1,.34,2.19v.6h-7.14v-1.23h5.69a3,3,0,0,0-.31-1.4,2.36,2.36,0,0,0-.88-1,2.46,2.46,0,0,0-1.34-.36,2.54,2.54,0,0,0-1.47.42,2.78,2.78,0,0,0-.95,1.09,3.24,3.24,0,0,0-.33,1.44v.82a4,4,0,0,0,.36,1.78,2.53,2.53,0,0,0,1,1.1,3.24,3.24,0,0,0,2.53.22,2.18,2.18,0,0,0,.79-.48,2.24,2.24,0,0,0,.51-.81l1.38.39a3.11,3.11,0,0,1-.73,1.22,3.5,3.5,0,0,1-1.27.83A4.77,4.77,0,0,1,610.75,227.39Z"/><path class="cls-8" d="M625.87,214.83v12.36h-1.5V216.4h-.07l-3,2v-1.52l3.09-2Z"/><path class="cls-8" d="M633.45,227.36a3.64,3.64,0,0,1-2.32-.74,4.65,4.65,0,0,1-1.47-2.17,10.24,10.24,0,0,1-.5-3.44,10.42,10.42,0,0,1,.5-3.42,4.7,4.7,0,0,1,1.48-2.18,3.95,3.95,0,0,1,4.63,0,4.68,4.68,0,0,1,1.47,2.18,11.79,11.79,0,0,1,0,6.86,4.57,4.57,0,0,1-1.46,2.17A3.67,3.67,0,0,1,633.45,227.36Zm0-1.32a2.33,2.33,0,0,0,2.1-1.31,7.55,7.55,0,0,0,.75-3.72,9.41,9.41,0,0,0-.34-2.73,3.75,3.75,0,0,0-1-1.72,2.13,2.13,0,0,0-1.53-.59,2.31,2.31,0,0,0-2.09,1.32,7.57,7.57,0,0,0-.76,3.72,9.77,9.77,0,0,0,.34,2.73,3.72,3.72,0,0,0,1,1.71A2.17,2.17,0,0,0,633.45,226Z"/><path class="cls-8" d="M644.08,227.36a3.67,3.67,0,0,1-2.33-.74,4.57,4.57,0,0,1-1.46-2.17,11.79,11.79,0,0,1,0-6.86,4.68,4.68,0,0,1,1.47-2.18,3.69,3.69,0,0,1,2.32-.75,3.64,3.64,0,0,1,2.31.75,4.63,4.63,0,0,1,1.48,2.18,11.79,11.79,0,0,1,0,6.86,4.65,4.65,0,0,1-1.47,2.17A3.64,3.64,0,0,1,644.08,227.36Zm0-1.32a2.33,2.33,0,0,0,2.1-1.31,7.55,7.55,0,0,0,.75-3.72,9.77,9.77,0,0,0-.34-2.73,3.84,3.84,0,0,0-1-1.72,2.16,2.16,0,0,0-1.53-.59,2.33,2.33,0,0,0-2.1,1.32,7.58,7.58,0,0,0-.75,3.72,9.41,9.41,0,0,0,.34,2.73,3.71,3.71,0,0,0,1,1.71A2.21,2.21,0,0,0,644.08,226Z"/><path class="cls-8" d="M659.61,217.92v1.21h-5v-1.21Zm-3.51,9.27V216.64a2.2,2.2,0,0,1,1.35-2.12,3,3,0,0,1,1.26-.27,3.38,3.38,0,0,1,.86.09,2.66,2.66,0,0,1,.49.15l-.41,1.24-.3-.1a2.11,2.11,0,0,0-.49,0,1.29,1.29,0,0,0-1,.36,1.5,1.5,0,0,0-.31,1v10.21Z"/><path class="cls-8" d="M661.61,227.19v-9.27H663v1.4h.09a2.21,2.21,0,0,1,.92-1.11,2.66,2.66,0,0,1,1.5-.43h.39l.36,0v1.45l-.33-.06a4.56,4.56,0,0,0-.54,0,2.63,2.63,0,0,0-1.21.28,2.15,2.15,0,0,0-.83.78,2.09,2.09,0,0,0-.31,1.12v5.86Z"/><path class="cls-8" d="M670.66,227.41a3.82,3.82,0,0,1-1.6-.33,2.79,2.79,0,0,1-1.14-1,2.71,2.71,0,0,1-.42-1.54,2.37,2.37,0,0,1,.32-1.29,2.15,2.15,0,0,1,.83-.78,4.28,4.28,0,0,1,1.17-.43c.42-.09.85-.17,1.28-.23l1.37-.16a2.29,2.29,0,0,0,.78-.2.5.5,0,0,0,.24-.48v-.05a1.89,1.89,0,0,0-.49-1.39,2,2,0,0,0-1.47-.49,2.62,2.62,0,0,0-1.6.44,2.74,2.74,0,0,0-.81,1l-1.35-.48a3.12,3.12,0,0,1,1-1.32,3.59,3.59,0,0,1,1.32-.67,5.46,5.46,0,0,1,1.43-.19,5.83,5.83,0,0,1,1,.11,3.26,3.26,0,0,1,1.13.43,2.48,2.48,0,0,1,.91,1,3.7,3.7,0,0,1,.36,1.77v6.1h-1.42v-1.25h-.07a2.57,2.57,0,0,1-.49.65,2.86,2.86,0,0,1-.89.58A3.55,3.55,0,0,1,670.66,227.41Zm.22-1.28a2.85,2.85,0,0,0,1.43-.33,2.28,2.28,0,0,0,.88-.86,2.17,2.17,0,0,0,.3-1.1v-1.31a.77.77,0,0,1-.4.2,5,5,0,0,1-.7.15l-.76.11-.6.08a4.79,4.79,0,0,0-1,.23,1.71,1.71,0,0,0-.77.47,1.22,1.22,0,0,0-.29.87,1.28,1.28,0,0,0,.55,1.12A2.43,2.43,0,0,0,670.88,226.13Z"/><path class="cls-8" d="M677.52,227.19v-9.27h1.38v1.45H679a2.32,2.32,0,0,1,.94-1.15,2.76,2.76,0,0,1,1.55-.42,2.65,2.65,0,0,1,1.53.42,2.71,2.71,0,0,1,1,1.15h.1a2.67,2.67,0,0,1,1.07-1.14,3.19,3.19,0,0,1,1.71-.43,2.77,2.77,0,0,1,2,.78,3.22,3.22,0,0,1,.79,2.41v6.2h-1.42V221a1.79,1.79,0,0,0-.56-1.47,2.13,2.13,0,0,0-1.33-.44,2,2,0,0,0-1.51.59,2.12,2.12,0,0,0-.54,1.49v6h-1.45v-6.35a1.67,1.67,0,0,0-.51-1.27,1.81,1.81,0,0,0-1.32-.49,1.93,1.93,0,0,0-1,.3,2.22,2.22,0,0,0-.77.81,2.38,2.38,0,0,0-.29,1.21v5.79Z"/><path class="cls-8" d="M696.19,227.39a4.3,4.3,0,0,1-2.31-.6,3.88,3.88,0,0,1-1.49-1.66,6.29,6.29,0,0,1,0-5,4.08,4.08,0,0,1,1.46-1.71,4,4,0,0,1,2.19-.61,4.38,4.38,0,0,1,1.43.24,3.52,3.52,0,0,1,1.29.78,3.84,3.84,0,0,1,.92,1.43,6.05,6.05,0,0,1,.35,2.19v.6h-7.15v-1.23h5.7a3,3,0,0,0-.31-1.4,2.43,2.43,0,0,0-.88-1,2.47,2.47,0,0,0-1.35-.36,2.59,2.59,0,0,0-1.47.42,2.78,2.78,0,0,0-1,1.09,3.24,3.24,0,0,0-.33,1.44v.82a3.87,3.87,0,0,0,.37,1.78,2.57,2.57,0,0,0,1,1.1,3.27,3.27,0,0,0,2.54.22,2.22,2.22,0,0,0,.78-.48,2.26,2.26,0,0,0,.52-.81l1.37.39a2.89,2.89,0,0,1-.73,1.22,3.42,3.42,0,0,1-1.27.83A4.71,4.71,0,0,1,696.19,227.39Z"/><path class="cls-8" d="M708.77,220l-1.28.36a2.58,2.58,0,0,0-.35-.62,1.77,1.77,0,0,0-.63-.51,2.34,2.34,0,0,0-1-.2,2.45,2.45,0,0,0-1.42.39,1.15,1.15,0,0,0-.56,1,1,1,0,0,0,.38.84,3.39,3.39,0,0,0,1.21.51l1.38.34a3.87,3.87,0,0,1,1.85.92,2.15,2.15,0,0,1,.61,1.59,2.35,2.35,0,0,1-.46,1.43,3.13,3.13,0,0,1-1.27,1,4.62,4.62,0,0,1-1.89.36,4.17,4.17,0,0,1-2.35-.62,2.75,2.75,0,0,1-1.18-1.8l1.35-.33a1.91,1.91,0,0,0,.74,1.12,2.42,2.42,0,0,0,1.41.37,2.7,2.7,0,0,0,1.59-.42,1.26,1.26,0,0,0,.59-1,1.11,1.11,0,0,0-.34-.81,2.2,2.2,0,0,0-1-.49l-1.55-.36a3.62,3.62,0,0,1-1.86-.94,2.25,2.25,0,0,1-.6-1.6,2.35,2.35,0,0,1,.44-1.39,2.91,2.91,0,0,1,1.22-.94,4.2,4.2,0,0,1,1.75-.35,3.51,3.51,0,0,1,2.16.6A3.34,3.34,0,0,1,708.77,220Z"/><path class="cls-8" d="M715.87,230.67V217.92h1.38v1.48h.16c.11-.17.25-.37.44-.62a2.52,2.52,0,0,1,.81-.68,2.91,2.91,0,0,1,1.44-.3,3.68,3.68,0,0,1,2.06.59,3.81,3.81,0,0,1,1.39,1.66,5.83,5.83,0,0,1,.51,2.53,5.92,5.92,0,0,1-.51,2.55,3.88,3.88,0,0,1-1.38,1.67,3.67,3.67,0,0,1-2,.59,2.92,2.92,0,0,1-1.43-.3,2.64,2.64,0,0,1-.83-.68c-.19-.26-.34-.47-.45-.64h-.12v4.9Zm1.4-8.11a5,5,0,0,0,.31,1.85,2.72,2.72,0,0,0,.9,1.25,2.56,2.56,0,0,0,2.94,0,2.9,2.9,0,0,0,.91-1.28,5.05,5.05,0,0,0,.3-1.79,5,5,0,0,0-.3-1.77,2.83,2.83,0,0,0-.9-1.25,2.37,2.37,0,0,0-1.5-.46,2.44,2.44,0,0,0-1.47.44,2.68,2.68,0,0,0-.89,1.22A5.07,5.07,0,0,0,717.27,222.56Z"/><path class="cls-8" d="M730.12,227.39a4.27,4.27,0,0,1-2.31-.6,3.81,3.81,0,0,1-1.49-1.66,6.18,6.18,0,0,1,0-5,4,4,0,0,1,1.46-1.71,4,4,0,0,1,2.19-.61,4.42,4.42,0,0,1,1.43.24,3.6,3.6,0,0,1,1.29.78,4,4,0,0,1,.92,1.43,6.05,6.05,0,0,1,.35,2.19v.6h-7.15v-1.23h5.7a3.17,3.17,0,0,0-.31-1.4,2.38,2.38,0,0,0-.89-1,2.44,2.44,0,0,0-1.34-.36,2.54,2.54,0,0,0-1.47.42,2.78,2.78,0,0,0-1,1.09,3.24,3.24,0,0,0-.33,1.44v.82a4,4,0,0,0,.36,1.78,2.65,2.65,0,0,0,1,1.1,3,3,0,0,0,1.52.38,2.93,2.93,0,0,0,1-.16,2.18,2.18,0,0,0,.79-.48,2.24,2.24,0,0,0,.51-.81l1.38.39a3,3,0,0,1-.73,1.22,3.42,3.42,0,0,1-1.27.83A4.75,4.75,0,0,1,730.12,227.39Z"/><path class="cls-8" d="M736.13,227.19v-9.27h1.38v1.4h.09a2.21,2.21,0,0,1,.92-1.11,2.66,2.66,0,0,1,1.5-.43h.39l.36,0v1.45l-.33-.06a4.73,4.73,0,0,0-.54,0,2.63,2.63,0,0,0-1.21.28,2.15,2.15,0,0,0-.83.78,2.09,2.09,0,0,0-.31,1.12v5.86Z"/><path class="cls-8" d="M753.8,220l-1.27.36a2.62,2.62,0,0,0-.36-.62,1.61,1.61,0,0,0-.63-.51,2.28,2.28,0,0,0-1-.2,2.4,2.4,0,0,0-1.41.39,1.16,1.16,0,0,0-.57,1,1,1,0,0,0,.39.84,3.33,3.33,0,0,0,1.2.51l1.38.34a3.78,3.78,0,0,1,1.85.92,2.15,2.15,0,0,1,.61,1.59,2.41,2.41,0,0,1-.45,1.43,3.28,3.28,0,0,1-1.27,1,4.7,4.7,0,0,1-1.9.36,4.19,4.19,0,0,1-2.35-.62,2.7,2.7,0,0,1-1.17-1.8l1.35-.33a1.9,1.9,0,0,0,.73,1.12,2.43,2.43,0,0,0,1.42.37,2.67,2.67,0,0,0,1.58-.42,1.26,1.26,0,0,0,.59-1,1.07,1.07,0,0,0-.34-.81,2.15,2.15,0,0,0-1-.49l-1.54-.36a3.7,3.7,0,0,1-1.87-.94,2.25,2.25,0,0,1-.59-1.6,2.28,2.28,0,0,1,.44-1.39,2.94,2.94,0,0,1,1.21-.94,4.27,4.27,0,0,1,1.75-.35,3.47,3.47,0,0,1,2.16.6A3.27,3.27,0,0,1,753.8,220Z"/><path class="cls-8" d="M760,227.39a4.32,4.32,0,0,1-2.31-.6,3.94,3.94,0,0,1-1.49-1.66,6.29,6.29,0,0,1,0-5,4.15,4.15,0,0,1,1.46-1.71,4,4,0,0,1,2.2-.61,4.42,4.42,0,0,1,1.43.24,3.48,3.48,0,0,1,1.28.78,3.86,3.86,0,0,1,.93,1.43,6.07,6.07,0,0,1,.34,2.19v.6H756.7v-1.23h5.7a3,3,0,0,0-.31-1.4,2.43,2.43,0,0,0-.88-1,2.46,2.46,0,0,0-1.34-.36,2.54,2.54,0,0,0-1.47.42,2.7,2.7,0,0,0-.95,1.09,3.12,3.12,0,0,0-.34,1.44v.82a4,4,0,0,0,.37,1.78,2.53,2.53,0,0,0,1,1.1A3.24,3.24,0,0,0,761,226a2.36,2.36,0,0,0,.79-.48,2.24,2.24,0,0,0,.51-.81l1.38.39a3.11,3.11,0,0,1-.73,1.22,3.59,3.59,0,0,1-1.27.83A4.81,4.81,0,0,1,760,227.39Z"/><path class="cls-8" d="M769.79,227.39a4,4,0,0,1-2.25-.62,4,4,0,0,1-1.44-1.69,5.74,5.74,0,0,1-.51-2.47,5.64,5.64,0,0,1,.52-2.5,4.19,4.19,0,0,1,1.46-1.7,4,4,0,0,1,2.2-.61,4.16,4.16,0,0,1,1.76.36,3.41,3.41,0,0,1,1.29,1,3.17,3.17,0,0,1,.62,1.52H772a2.28,2.28,0,0,0-.72-1.13,2.22,2.22,0,0,0-1.5-.49,2.59,2.59,0,0,0-1.46.43,2.9,2.9,0,0,0-1,1.22,4.49,4.49,0,0,0-.35,1.83,4.88,4.88,0,0,0,.34,1.87,2.89,2.89,0,0,0,1,1.24,2.67,2.67,0,0,0,2.48.24,2,2,0,0,0,.77-.55,2.24,2.24,0,0,0,.44-.87h1.43a3.27,3.27,0,0,1-1.85,2.51A3.94,3.94,0,0,1,769.79,227.39Z"/><path class="cls-8" d="M779.28,227.39a4,4,0,0,1-2.2-.6,4.05,4.05,0,0,1-1.47-1.67,6.26,6.26,0,0,1,0-5,4.06,4.06,0,0,1,7.34,0,6.26,6.26,0,0,1,0,5,4.05,4.05,0,0,1-1.47,1.67A4,4,0,0,1,779.28,227.39Zm0-1.28a2.47,2.47,0,0,0,1.57-.49,3,3,0,0,0,.91-1.29,4.82,4.82,0,0,0,.3-1.72,5,5,0,0,0-.3-1.74,3,3,0,0,0-.91-1.29,2.71,2.71,0,0,0-3.14,0,3,3,0,0,0-.91,1.29,5,5,0,0,0-.3,1.74,4.82,4.82,0,0,0,.3,1.72,3,3,0,0,0,.91,1.29A2.49,2.49,0,0,0,779.28,226.11Z"/><path class="cls-8" d="M787.08,221.62v5.57h-1.42v-9.27H787v1.45h.12a2.73,2.73,0,0,1,1-1.14,3.09,3.09,0,0,1,1.72-.43,3.32,3.32,0,0,1,1.64.39,2.56,2.56,0,0,1,1.1,1.15,4.22,4.22,0,0,1,.4,2v5.89h-1.43V221.4a2.42,2.42,0,0,0-.57-1.71,2,2,0,0,0-1.55-.61,2.45,2.45,0,0,0-1.22.3,2,2,0,0,0-.84.86A2.81,2.81,0,0,0,787.08,221.62Z"/><path class="cls-8" d="M799.11,227.39a3.63,3.63,0,0,1-2.05-.59,3.9,3.9,0,0,1-1.39-1.67,6.07,6.07,0,0,1-.5-2.55,6,6,0,0,1,.5-2.53,3.83,3.83,0,0,1,1.4-1.66,3.66,3.66,0,0,1,2.06-.59,2.9,2.9,0,0,1,1.43.3,2.33,2.33,0,0,1,.81.68,7,7,0,0,1,.44.62h.12v-4.57h1.43v12.36H802v-1.42h-.17a6.69,6.69,0,0,1-.45.64,2.59,2.59,0,0,1-.82.68A3,3,0,0,1,799.11,227.39Zm.19-1.28a2.34,2.34,0,0,0,1.45-.45,2.87,2.87,0,0,0,.9-1.25,5.23,5.23,0,0,0,.31-1.85,5.06,5.06,0,0,0-.31-1.82,2.68,2.68,0,0,0-.89-1.22,2.68,2.68,0,0,0-3,0,2.83,2.83,0,0,0-.9,1.25,5,5,0,0,0-.3,1.77,5.05,5.05,0,0,0,.31,1.79,2.76,2.76,0,0,0,.91,1.28A2.3,2.3,0,0,0,799.3,226.11Z"/></g><line class="cls-9" x1="788.98" y1="240.63" x2="436.19" y2="240.63"/><line class="cls-9" x1="436.19" y1="240.63" x2="376.55" y2="296.88"/><ellipse class="cls-6" cx="516.55" cy="306.88" rx="9.85" ry="6.22"/><ellipse class="cls-6" cx="516.55" cy="426.88" rx="9.85" ry="6.22"/><ellipse class="cls-6" cx="376.55" cy="296.88" rx="9.85" ry="6.22"/><ellipse class="cls-6" cx="344.62" cy="699.55" rx="9.85" ry="6.22"/></svg>